NotoSansMongolian.glyphspackage
{
glyphname = exclam;
layers = (
{
layerId = UUID0;
shapes = (
{
closed = 1;
nodes = (
(623,375,l),
(623,432,l),
(110,457,l),
(110,350,l)
);
},
{
closed = 1;
nodes = (
(818,341,o),
(838,368,o),
(838,403,cs),
(838,437,o),
(818,465,o),
(770,465,cs),
(727,465,o),
(703,442,o),
(703,403,cs),
(703,368,o),
(721,341,o),
(770,341,cs)
);
}
);
width = 988;
}
);
unicode = 33;
}
{
glyphname = parenleft;
layers = (
{
layerId = UUID0;
shapes = (
{
closed = 1;
nodes = (
(83,239,o),
(129,85,o),
(230,-32,c),
(312,-32,l),
(220,93,o),
(172,246,o),
(172,401,cs),
(172,559,o),
(220,715,o),
(313,840,c),
(230,840,l),
(129,719,o),
(83,563,o),
(83,400,cs)
);
}
);
vertOrigin = 550;
vertWidth = 1100;
width = 400;
}
);
unicode = 40;
}
{
glyphname = parenright;
layers = (
{
layerId = UUID0;
shapes = (
{
closed = 1;
nodes = (
(338,563,o),
(292,719,o),
(191,840,c),
(108,840,l),
(201,715,o),
(249,559,o),
(249,401,cs),
(249,246,o),
(201,93,o),
(109,-32,c),
(191,-32,l),
(292,85,o),
(338,239,o),
(338,400,cs)
);
}
);
vertOrigin = 550;
vertWidth = 1100;
width = 400;
}
);
unicode = 41;
}
{
glyphname = hyphen;
layers = (
{
layerId = UUID0;
shapes = (
{
closed = 1;
nodes = (
(282,365,l),
(282,443,l),
(40,443,l),
(40,365,l)
);
}
);
width = 322;
}
);
unicode = 45;
}
{
glyphname = question;
layers = (
{
layerId = UUID0;
shapes = (
{
closed = 1;
nodes = (
(199,272,l),
(170,333,o),
(157,370,o),
(157,432,cs),
(157,511,o),
(193,553,o),
(257,553,cs),
(317,553,o),
(348,523,o),
(406,453,cs),
(436,417,o),
(464,395,o),
(487,385,cs),
(510,375,o),
(539,369,o),
(576,369,cs),
(603,369,l),
(603,439,l),
(586,439,ls),
(556,439,o),
(532,444,o),
(514,455,cs),
(496,466,o),
(473,487,o),
(446,519,cs),
(385,591,o),
(346,637,o),
(255,637,cs),
(143,637,o),
(80,561,o),
(80,438,cs),
(80,369,o),
(96,303,o),
(129,241,c)
);
},
{
closed = 1;
nodes = (
(798,346,o),
(818,372,o),
(818,408,cs),
(818,441,o),
(798,469,o),
(750,469,cs),
(706,469,o),
(683,447,o),
(683,408,cs),
(683,367,o),
(705,346,o),
(750,346,cs)
);
}
);
width = 988;
}
);
unicode = 63;
}
{
glyphname = u1800;
layers = (
{
layerId = UUID0;
shapes = (
{
closed = 1;
nodes = (
(261,-99,l),
(379,53,o),
(474,212,o),
(474,363,cs),
(474,508,o),
(400,611,o),
(263,611,cs),
(140,611,o),
(60,525,o),
(60,393,cs),
(60,297,o),
(107,227,o),
(200,182,c),
(240,251,l),
(172,283,o),
(138,331,o),
(138,393,cs),
(138,482,o),
(187,531,o),
(263,531,cs),
(350,531,o),
(396,467,o),
(396,363,cs),
(396,217,o),
(291,68,o),
(165,-99,c)
);
}
);
width = 534;
}
);
unicode = 6144;
}
{
glyphname = u1802;
layers = (
{
layerId = UUID0;
shapes = (
{
closed = 1;
nodes = (
(356,339,o),
(384,359,o),
(384,407,cs),
(384,456,o),
(356,474,o),
(321,474,cs),
(286,474,o),
(260,456,o),
(260,407,cs),
(260,359,o),
(286,339,o),
(321,339,cs)
);
}
);
width = 384;
}
);
unicode = 6146;
}
{
glyphname = u1806;
layers = (
{
layerId = UUID0;
shapes = (
{
closed = 1;
nodes = (
(430,364,l),
(430,444,l),
(0,444,l),
(0,364,l)
);
}
);
width = 400;
}
);
unicode = 6150;
}
{
glyphname = u1807;
layers = (
{
layerId = UUID0;
shapes = (
{
closed = 1;
nodes = (
(335,96,l),
(354,364,l),
(564,364,l),
(564,444,l),
(0,444,l),
(0,364,l),
(250,364,l),
(269,96,l)
);
}
);
width = 534;
}
);
unicode = 6151;
}
{
glyphname = u1808;
layers = (
{
layerId = UUID0;
shapes = (
{
closed = 1;
nodes = (
(365,227,o),
(422,280,o),
(422,404,cs),
(422,524,o),
(369,580,o),
(250,590,c),
(250,512,l),
(313,505,o),
(341,476,o),
(341,404,cs),
(341,332,o),
(313,302,o),
(250,296,c),
(250,218,l)
);
}
);
width = 422;
}
);
unicode = 6152;
}
{
glyphname = u180A;
layers = (
{
layerId = UUID0;
shapes = (
{
closed = 1;
nodes = (
(188,364,l),
(188,444,l),
(0,444,l),
(0,364,l)
);
}
);
width = 168;
}
);
unicode = 6154;
}
{
glyphname = u1810;
layers = (
{
layerId = UUID0;
shapes = (
{
closed = 1;
nodes = (
(445,-10,o),
(523,108,o),
(523,358,cs),
(523,557,o),
(464,725,o),
(285,725,cs),
(125,725,o),
(49,605,o),
(49,358,cs),
(49,116,o),
(131,-10,o),
(285,-10,cs)
);
},
{
closed = 1;
nodes = (
(162,65,o),
(137,192,o),
(137,358,cs),
(137,519,o),
(161,650,o),
(285,650,cs),
(407,650,o),
(434,521,o),
(434,358,cs),
(434,196,o),
(409,65,o),
(285,65,cs)
);
}
);
width = 572;
}
);
unicode = 6160;
}
{
glyphname = u1811;
layers = (
{
layerId = UUID0;
shapes = (
{
closed = 1;
nodes = (
(421,-10,o),
(523,125,o),
(523,388,cs),
(523,579,o),
(459,725,o),
(281,725,cs),
(128,725,o),
(49,627,o),
(49,458,cs),
(49,331,o),
(108,264,o),
(227,264,cs),
(248,264,o),
(265,268,o),
(280,275,c),
(280,349,l),
(265,342,o),
(248,339,o),
(228,339,cs),
(168,339,o),
(137,374,o),
(137,458,cs),
(137,577,o),
(166,650,o),
(281,650,cs),
(390,650,o),
(434,563,o),
(434,388,cs),
(434,189,o),
(380,65,o),
(205,65,cs),
(168,65,o),
(136,71,o),
(108,83,c),
(108,4,l),
(135,-5,o),
(167,-10,o),
(205,-10,cs)
);
}
);
width = 572;
}
);
unicode = 6161;
}
{
glyphname = u1812;
layers = (
{
layerId = UUID0;
shapes = (
{
closed = 1;
nodes = (
(214,0,l),
(161,139,o),
(135,263,o),
(135,406,cs),
(135,539,o),
(182,649,o),
(297,649,cs),
(394,649,o),
(449,572,o),
(449,436,cs),
(449,289,o),
(394,163,o),
(310,0,c),
(565,0,l),
(565,80,l),
(420,80,l),
(497,207,o),
(535,325,o),
(535,436,cs),
(535,606,o),
(457,724,o),
(297,724,cs),
(133,724,o),
(49,590,o),
(49,406,cs),
(49,271,o),
(76,128,o),
(128,0,c)
);
}
);
width = 605;
}
);
unicode = 6162;
}
{
glyphname = u1813;
layers = (
{
layerId = UUID0;
shapes = (
{
closed = 1;
nodes = (
(214,0,l),
(161,139,o),
(135,263,o),
(135,406,cs),
(135,533,o),
(173,649,o),
(277,649,cs),
(379,649,o),
(419,537,o),
(419,406,cs),
(419,271,o),
(390,160,o),
(340,0,c),
(426,0,l),
(474,141,o),
(505,270,o),
(505,406,cs),
(505,480,o),
(494,544,o),
(471,595,c),
(496,631,o),
(531,649,o),
(577,649,cs),
(667,649,o),
(719,572,o),
(719,436,cs),
(719,289,o),
(664,163,o),
(580,0,c),
(835,0,l),
(835,80,l),
(691,80,l),
(761,204,o),
(805,307,o),
(805,436,cs),
(805,599,o),
(735,724,o),
(577,724,cs),
(512,724,o),
(462,703,o),
(429,660,c),
(390,703,o),
(339,724,o),
(277,724,cs),
(123,724,o),
(49,585,o),
(49,406,cs),
(49,271,o),
(76,128,o),
(128,0,c)
);
}
);
width = 875;
}
);
unicode = 6163;
}
{
glyphname = u1814;
layers = (
{
layerId = UUID0;
shapes = (
{
closed = 1;
nodes = (
(408,-10,o),
(484,85,o),
(484,238,cs),
(484,403,o),
(397,568,o),
(280,714,c),
(173,714,l),
(235,641,o),
(288,563,o),
(332,479,cs),
(376,396,o),
(398,315,o),
(398,238,cs),
(398,140,o),
(353,65,o),
(266,65,cs),
(182,65,o),
(136,137,o),
(136,238,cs),
(136,335,o),
(172,395,o),
(253,454,c),
(206,513,l),
(100,442,o),
(50,359,o),
(50,238,cs),
(50,91,o),
(120,-10,o),
(266,-10,cs)
);
}
);
width = 534;
}
);
unicode = 6164;
}
{
glyphname = u1815;
layers = (
{
layerId = UUID0;
shapes = (
{
closed = 1;
nodes = (
(294,-10,o),
(334,84,o),
(369,239,cs),
(424,483,ls),
(429,506,o),
(439,558,o),
(452,636,c),
(465,554,o),
(475,503,o),
(480,483,cs),
(598,0,l),
(687,0,l),
(507,714,l),
(393,714,l),
(287,260,ls),
(255,124,o),
(230,65,o),
(175,65,cs),
(140,65,o),
(116,94,o),
(116,150,cs),
(116,213,o),
(128,266,o),
(156,319,c),
(67,319,l),
(40,260,o),
(30,215,o),
(30,150,cs),
(30,48,o),
(81,-10,o),
(175,-10,cs)
);
}
);
width = 712;
}
);
unicode = 6165;
}
{
glyphname = u1816;
layers = (
{
layerId = UUID0;
shapes = (
{
closed = 1;
nodes = (
(446,-10,o),
(529,63,o),
(529,218,cs),
(529,354,o),
(460,428,o),
(333,428,cs),
(330,428,o),
(328,428,o),
(323,427,c),
(323,511,l),
(237,511,l),
(237,238,l),
(323,238,l),
(323,357,l),
(333,357,ls),
(405,357,o),
(440,314,o),
(440,218,cs),
(440,120,o),
(391,65,o),
(298,65,cs),
(173,65,o),
(118,186,o),
(118,338,cs),
(118,547,o),
(195,649,o),
(359,649,cs),
(412,649,o),
(458,638,o),
(495,617,c),
(495,699,l),
(463,715,o),
(400,724,o),
(357,724,cs),
(142,724,o),
(30,588,o),
(30,338,cs),
(30,136,o),
(111,-10,o),
(298,-10,cs)
);
}
);
width = 630;
}
);
unicode = 6166;
}
{
glyphname = u1817;
layers = (
{
layerId = UUID0;
shapes = (
{
closed = 1;
nodes = (
(533,-10,o),
(592,99,o),
(592,248,cs),
(592,526,o),
(482,724,o),
(225,724,cs),
(182,724,o),
(135,715,o),
(107,699,c),
(107,621,l),
(138,640,o),
(176,649,o),
(223,649,cs),
(407,649,o),
(504,511,o),
(504,248,cs),
(504,156,o),
(474,65,o),
(402,65,cs),
(366,65,o),
(340,90,o),
(340,158,cs),
(340,268,ls),
(340,368,o),
(294,426,o),
(197,426,cs),
(99,426,o),
(42,364,o),
(42,229,cs),
(42,139,o),
(60,63,o),
(95,0,c),
(185,0,l),
(148,60,o),
(130,137,o),
(130,229,cs),
(130,317,o),
(157,351,o),
(197,351,cs),
(236,351,o),
(254,332,o),
(254,268,cs),
(254,158,ls),
(254,46,o),
(303,-10,o),
(402,-10,cs)
);
}
);
width = 630;
}
);
unicode = 6167;
}
{
glyphname = u1818;
layers = (
{
layerId = UUID0;
shapes = (
{
closed = 1;
nodes = (
(484,0,l),
(484,121,o),
(494,218,o),
(514,293,c),
(433,293,l),
(414,231,o),
(403,148,o),
(403,80,c),
(135,80,l),
(148,305,o),
(236,504,o),
(372,714,c),
(272,714,l),
(121,470,o),
(60,286,o),
(40,0,c)
);
}
);
width = 564;
}
);
unicode = 6168;
}
{
glyphname = u1819;
layers = (
{
layerId = UUID0;
shapes = (
{
closed = 1;
nodes = (
(361,0,l),
(241,146,o),
(136,314,o),
(136,476,cs),
(136,585,o),
(186,649,o),
(268,649,cs),
(342,649,o),
(391,600,o),
(391,516,cs),
(391,442,o),
(361,378,o),
(302,322,c),
(302,262,l),
(487,262,l),
(487,342,l),
(394,342,l),
(450,391,o),
(478,456,o),
(478,516,cs),
(478,646,o),
(406,724,o),
(268,724,cs),
(120,724,o),
(50,622,o),
(50,472,cs),
(50,382,o),
(73,302,o),
(111,225,cs),
(148,149,o),
(199,73,o),
(254,0,c)
);
}
);
width = 534;
}
);
unicode = 6169;
}
{
glyphname = u1820;
layers = (
{
layerId = UUID0;
shapes = (
{
closed = 1;
nodes = (
(730,156,ls),
(730,398,o),
(781,666,o),
(919,836,c),
(827,836,l),
(706,677,o),
(653,397,o),
(653,156,c),
(560,210,o),
(543,312,o),
(543,444,c),
(444,444,ls),
(360,444,o),
(307,416,o),
(285,361,c),
(281,361,l),
(278,445,ls),
(273,575,o),
(248,653,o),
(139,653,cs),
(100,653,o),
(57,643,o),
(10,623,c),
(10,550,l),
(52,567,o),
(88,575,o),
(118,575,cs),
(179,575,o),
(194,520,o),
(200,437,cs),
(226,74,l),
(292,74,l),
(302,219,ls),
(310,330,o),
(336,364,o),
(445,364,cs),
(469,364,l),
(469,205,o),
(570,63,o),
(730,53,c)
);
}
);
width = 929;
}
);
unicode = 6176;
}
{
glyphname = u1822;
layers = (
{
layerId = UUID0;
shapes = (
{
closed = 1;
nodes = (
(691,85,l),
(617,188,o),
(569,287,o),
(569,407,cs),
(569,544,o),
(626,609,o),
(718,609,cs),
(806,609,o),
(857,525,o),
(868,376,c),
(948,386,l),
(938,552,o),
(871,692,o),
(718,692,cs),
(582,692,o),
(502,595,o),
(491,444,c),
(444,444,ls),
(360,444,o),
(307,416,o),
(285,361,c),
(281,361,l),
(278,445,ls),
(273,575,o),
(248,653,o),
(139,653,cs),
(100,653,o),
(57,643,o),
(10,623,c),
(10,550,l),
(52,567,o),
(88,575,o),
(118,575,cs),
(179,575,o),
(194,520,o),
(200,437,cs),
(226,74,l),
(292,74,l),
(302,219,ls),
(309,326,o),
(335,364,o),
(445,364,cs),
(492,364,l),
(501,260,o),
(544,152,o),
(619,42,c)
);
}
);
width = 993;
}
);
unicode = 6178;
}
{
glyphname = u1825;
layers = (
{
layerId = UUID0;
shapes = (
{
closed = 1;
nodes = (
(816,40,o),
(887,123,o),
(887,249,cs),
(887,293,o),
(880,331,o),
(865,364,c),
(1015,364,ls),
(1085,364,o),
(1113,333,o),
(1113,279,cs),
(1113,235,o),
(1105,196,o),
(1091,162,c),
(1165,162,l),
(1182,199,o),
(1190,238,o),
(1190,279,cs),
(1190,389,o),
(1132,444,o),
(1015,444,cs),
(444,444,ls),
(360,444,o),
(307,416,o),
(285,361,c),
(281,361,l),
(278,445,ls),
(273,575,o),
(248,653,o),
(139,653,cs),
(100,653,o),
(57,643,o),
(10,623,c),
(10,550,l),
(52,567,o),
(88,575,o),
(118,575,cs),
(179,575,o),
(194,520,o),
(200,437,cs),
(226,74,l),
(292,74,l),
(302,219,ls),
(310,330,o),
(336,364,o),
(445,364,cs),
(512,364,l),
(499,333,o),
(492,294,o),
(492,249,cs),
(492,116,o),
(562,40,o),
(689,40,cs)
);
},
{
closed = 1;
nodes = (
(610,123,o),
(571,166,o),
(571,251,cs),
(571,294,o),
(578,332,o),
(591,364,c),
(788,364,l),
(801,332,o),
(808,294,o),
(808,251,cs),
(808,166,o),
(763,123,o),
(689,123,cs)
);
}
);
width = 1235;
}
);
unicode = 6181;
}
{
glyphname = u1827;
layers = (
{
layerId = UUID0;
shapes = (
{
closed = 1;
nodes = (
(838,-119,o),
(870,-106,o),
(884,-85,c),
(884,6,l),
(865,-22,o),
(837,-36,o),
(801,-36,cs),
(736,-36,o),
(693,51,o),
(648,153,cs),
(617,224,o),
(591,294,o),
(571,364,c),
(980,364,ls),
(1051,364,o),
(1078,333,o),
(1078,279,cs),
(1078,236,o),
(1071,197,o),
(1056,162,c),
(1130,162,l),
(1146,197,o),
(1155,236,o),
(1155,279,cs),
(1155,389,o),
(1097,444,o),
(980,444,cs),
(444,444,ls),
(360,444,o),
(307,416,o),
(285,361,c),
(281,361,l),
(278,445,ls),
(273,575,o),
(248,653,o),
(139,653,cs),
(100,653,o),
(57,643,o),
(10,623,c),
(10,550,l),
(52,567,o),
(88,575,o),
(118,575,cs),
(179,575,o),
(194,520,o),
(200,437,cs),
(226,74,l),
(292,74,l),
(302,219,ls),
(309,326,o),
(335,364,o),
(445,364,cs),
(492,364,l),
(515,280,o),
(541,203,o),
(570,132,cs),
(632,-21,o),
(684,-119,o),
(801,-119,cs)
);
}
);
width = 1200;
}
);
unicode = 6183;
}
{
glyphname = u182E;
layers = (
{
layerId = UUID0;
shapes = (
{
closed = 1;
nodes = (
(292,74,l),
(302,219,ls),
(309,326,o),
(335,364,o),
(445,364,cs),
(522,364,l),
(522,444,l),
(444,444,ls),
(360,444,o),
(307,416,o),
(285,361,c),
(281,361,l),
(278,484,o),
(270,602,o),
(229,693,c),
(265,693,ls),
(320,693,o),
(359,696,o),
(383,701,cs),
(407,706,o),
(428,717,o),
(444,731,c),
(444,808,l),
(427,796,o),
(405,788,o),
(380,782,cs),
(355,776,o),
(317,773,o),
(265,773,cs),
(144,773,l),
(144,716,l),
(163,698,o),
(178,674,o),
(189,646,c),
(176,650,o),
(159,653,o),
(139,653,cs),
(100,653,o),
(57,643,o),
(10,623,c),
(10,550,l),
(52,567,o),
(88,575,o),
(118,575,cs),
(180,575,o),
(194,522,o),
(200,437,cs),
(226,74,l)
);
}
);
width = 567;
}
);
unicode = 6190;
}
{
glyphname = u182F;
layers = (
{
layerId = UUID0;
shapes = (
{
closed = 1;
nodes = (
(292,74,l),
(302,219,ls),
(310,330,o),
(336,364,o),
(445,364,cs),
(522,364,l),
(522,444,l),
(444,444,ls),
(360,444,o),
(307,416,o),
(285,361,c),
(281,361,l),
(278,445,ls),
(276,500,o),
(270,542,o),
(259,573,c),
(266,640,o),
(292,698,o),
(339,766,c),
(339,832,l),
(219,832,ls),
(151,832,o),
(86,835,o),
(39,868,c),
(39,790,l),
(80,754,o),
(142,752,o),
(219,752,cs),
(247,752,l),
(228,723,o),
(212,686,o),
(200,642,c),
(182,649,o),
(162,653,o),
(139,653,cs),
(100,653,o),
(57,643,o),
(10,623,c),
(10,550,l),
(52,567,o),
(88,575,o),
(118,575,cs),
(180,575,o),
(194,520,o),
(200,437,cs),
(226,74,l)
);
}
);
width = 567;
}
);
unicode = 6191;
}
{
glyphname = u1830;
layers = (
{
layerId = UUID0;
shapes = (
{
closed = 1;
nodes = (
(519,73,l),
(497,178,o),
(477,273,o),
(454,364,c),
(711,364,l),
(711,444,l),
(433,444,l),
(406,545,o),
(378,642,o),
(349,734,c),
(255,734,l),
(234,608,o),
(215,525,o),
(199,486,cs),
(183,446,o),
(160,427,o),
(130,427,cs),
(104,427,o),
(76,433,o),
(45,446,c),
(45,371,l),
(74,354,o),
(104,346,o),
(135,346,cs),
(216,346,o),
(249,394,o),
(273,480,cs),
(287,532,o),
(297,579,o),
(302,620,c),
(306,620,l),
(327,562,o),
(350,484,o),
(374,387,cs),
(398,291,o),
(421,186,o),
(443,73,c)
);
}
);
width = 756;
}
);
unicode = 6192;
}
{
glyphname = u1832;
layers = (
{
layerId = UUID0;
shapes = (
{
closed = 1;
nodes = (
(471,96,l),
(490,364,l),
(700,364,l),
(700,444,l),
(460,444,l),
(448,680,o),
(388,777,o),
(243,777,cs),
(122,777,o),
(45,686,o),
(45,563,cs),
(45,497,o),
(61,421,o),
(91,364,c),
(386,364,l),
(405,96,l)
);
},
{
closed = 1;
nodes = (
(132,473,o),
(124,512,o),
(124,563,cs),
(124,646,o),
(171,694,o),
(243,694,cs),
(333,694,o),
(374,616,o),
(380,444,c),
(147,444,l)
);
}
);
width = 745;
}
);
unicode = 6194;
}
{
glyphname = u1833;
layers = (
{
layerId = UUID0;
shapes = (
{
closed = 1;
nodes = (
(480,-157,o),
(551,-84,o),
(551,27,cs),
(551,153,o),
(474,232,o),
(350,232,cs),
(288,232,o),
(234,201,o),
(202,154,c),
(177,225,o),
(156,295,o),
(139,364,c),
(703,364,l),
(703,444,l),
(45,444,l),
(62,342,o),
(89,238,o),
(128,131,cs),
(187,-32,o),
(250,-157,o),
(379,-157,cs)
);
},
{
closed = 1;
nodes = (
(323,-77,o),
(277,-33,o),
(232,76,c),
(255,123,o),
(299,153,o),
(350,153,cs),
(433,153,o),
(473,103,o),
(473,27,cs),
(473,-38,o),
(435,-77,o),
(379,-77,cs)
);
}
);
width = 748;
}
);
unicode = 6195;
}
{
glyphname = u1834;
layers = (
{
layerId = UUID0;
shapes = (
{
closed = 1;
nodes = (
(230,57,o),
(300,63,o),
(397,63,cs),
(518,63,l),
(518,129,l),
(491,209,o),
(477,280,o),
(477,364,c),
(722,364,l),
(722,444,l),
(63,444,l),
(45,364,l),
(403,364,l),
(403,280,o),
(413,207,o),
(433,143,c),
(397,143,ls),
(303,143,o),
(225,140,o),
(162,101,c),
(162,16,l)
);
}
);
width = 767;
}
);
unicode = 6196;
}
{
glyphname = u1835;
layers = (
{
layerId = UUID0;
shapes = (
{
closed = 1;
nodes = (
(306,-31,l),
(233,100,o),
(177,231,o),
(139,364,c),
(451,364,l),
(451,444,l),
(45,444,l),
(73,275,o),
(139,110,o),
(233,-67,c)
);
}
);
width = 496;
}
);
unicode = 6197;
}
{
glyphname = u1836;
layers = (
{
layerId = UUID0;
shapes = (
{
closed = 1;
nodes = (
(154,-95,o),
(258,-27,o),
(293,-7,c),
(239,94,o),
(165,262,o),
(138,364,c),
(451,364,l),
(451,444,l),
(45,444,l),
(67,310,o),
(123,152,o),
(186,25,c),
(151,-4,o),
(119,-36,o),
(87,-70,c),
(125,-119,l)
);
}
);
width = 496;
}
);
unicode = 6198;
}
{
glyphname = u1837;
layers = (
{
layerId = UUID0;
shapes = (
{
closed = 1;
nodes = (
(313,-96,l),
(271,-17,o),
(234,63,o),
(205,143,c),
(289,143,ls),
(379,143,o),
(416,97,o),
(416,13,cs),
(416,-19,o),
(411,-44,o),
(401,-65,c),
(480,-65,l),
(491,-38,o),
(496,-9,o),
(496,24,cs),
(496,144,o),
(421,223,o),
(292,223,cs),
(176,223,l),
(161,268,o),
(148,314,o),
(137,364,c),
(648,364,l),
(648,444,l),
(45,444,l),
(72,267,o),
(137,76,o),
(240,-131,c)
);
}
);
width = 693;
}
);
unicode = 6199;
}
{
glyphname = u1838;
layers = (
{
layerId = UUID0;
shapes = (
{
closed = 1;
nodes = (
(408,-119,o),
(439,-106,o),
(454,-85,c),
(454,6,l),
(435,-22,o),
(407,-36,o),
(371,-36,cs),
(306,-36,o),
(264,49,o),
(218,152,cs),
(186,224,o),
(161,294,o),
(141,364,c),
(550,364,l),
(550,444,l),
(45,444,l),
(70,311,o),
(115,177,o),
(181,41,cs),
(228,-56,o),
(279,-119,o),
(371,-119,cs)
);
}
);
width = 595;
}
);
unicode = 6200;
}
{
glyphname = u1839;
layers = (
{
layerId = UUID0;
shapes = (
{
closed = 1;
nodes = (
(289,-182,l),
(264,-148,o),
(251,-108,o),
(251,-63,cs),
(251,-25,o),
(258,9,o),
(271,40,c),
(274,40,ls),
(375,40,o),
(451,136,o),
(451,274,cs),
(451,311,o),
(440,410,o),
(428,444,c),
(124,444,l),
(126,590,o),
(198,699,o),
(335,699,cs),
(476,699,o),
(543,567,o),
(555,409,c),
(635,419,l),
(622,614,o),
(516,782,o),
(335,782,cs),
(141,782,o),
(45,624,o),
(45,408,cs),
(45,202,o),
(96,83,o),
(201,50,c),
(180,14,o),
(169,-24,o),
(169,-64,cs),
(169,-113,o),
(179,-152,o),
(199,-182,c)
);
},
{
closed = 1;
nodes = (
(173,123,o),
(126,203,o),
(124,364,c),
(362,364,l),
(369,345,o),
(372,314,o),
(372,274,cs),
(372,189,o),
(336,123,o),
(264,123,cs)
);
}
);
width = 680;
}
);
unicode = 6201;
}
{
glyphname = u183A;
layers = (
{
layerId = UUID0;
shapes = (
{
closed = 1;
nodes = (
(306,90,l),
(181,225,o),
(124,329,o),
(124,419,cs),
(124,546,o),
(166,644,o),
(274,644,cs),
(363,644,o),
(415,573,o),
(427,409,c),
(506,419,l),
(494,590,o),
(426,727,o),
(274,727,cs),
(121,727,o),
(45,594,o),
(45,419,cs),
(45,96,l),
(111,96,l),
(119,215,l),
(146,157,o),
(188,97,o),
(244,35,c)
);
}
);
width = 551;
}
);
unicode = 6202;
}
{
glyphname = u183B;
layers = (
{
layerId = UUID0;
shapes = (
{
closed = 1;
nodes = (
(245,85,l),
(173,185,o),
(134,270,o),
(126,364,c),
(285,364,l),
(285,444,l),
(125,444,l),
(133,579,o),
(189,644,o),
(273,644,cs),
(362,644,o),
(414,573,o),
(426,409,c),
(505,419,l),
(493,591,o),
(425,727,o),
(273,727,cs),
(133,727,o),
(45,602,o),
(45,408,cs),
(45,293,o),
(88,170,o),
(174,42,c)
);
}
);
width = 550;
}
);
unicode = 6203;
}
{
glyphname = u183C;
layers = (
{
layerId = UUID0;
shapes = (
{
closed = 1;
nodes = (
(667,-171,o),
(726,-120,o),
(726,-32,cs),
(726,43,o),
(676,100,o),
(595,100,cs),
(556,100,o),
(523,85,o),
(504,62,c),
(501,63,l),
(499,82,o),
(497,103,o),
(497,125,cs),
(497,210,o),
(505,278,o),
(531,364,c),
(847,364,l),
(847,444,l),
(63,444,l),
(45,364,l),
(456,364,l),
(438,296,o),
(428,223,o),
(428,143,c),
(397,143,ls),
(303,143,o),
(225,140,o),
(162,101,c),
(162,16,l),
(230,57,o),
(300,63,o),
(397,63,cs),
(429,63,l),
(437,-58,o),
(485,-171,o),
(585,-171,cs)
);
},
{
closed = 1;
nodes = (
(546,-99,o),
(520,-55,o),
(512,-8,c),
(522,19,o),
(552,37,o),
(585,37,cs),
(629,37,o),
(656,8,o),
(656,-32,cs),
(656,-71,o),
(632,-99,o),
(589,-99,cs)
);
}
);
width = 892;
}
);
unicode = 6204;
}
{
glyphname = u183D;
layers = (
{
layerId = UUID0;
shapes = (
{
closed = 1;
nodes = (
(650,-119,o),
(679,-108,o),
(696,-85,c),
(696,6,l),
(676,-22,o),
(648,-36,o),
(614,-36,cs),
(531,-36,o),
(501,43,o),
(501,151,cs),
(501,216,o),
(511,287,o),
(531,364,c),
(770,364,l),
(770,444,l),
(63,444,l),
(45,364,l),
(456,364,l),
(438,296,o),
(428,223,o),
(428,143,c),
(397,143,ls),
(303,143,o),
(225,140,o),
(162,101,c),
(162,16,l),
(230,57,o),
(300,63,o),
(397,63,cs),
(432,63,l),
(447,-46,o),
(508,-119,o),
(611,-119,cs)
);
}
);
width = 815;
}
);
unicode = 6205;
}
{
glyphname = u183E;
layers = (
{
layerId = UUID0;
shapes = (
{
closed = 1;
nodes = (
(901,-57,l),
(827,82,o),
(790,215,o),
(787,364,c),
(1043,364,l),
(1043,444,l),
(711,444,l),
(711,366,ls),
(711,221,o),
(739,94,o),
(795,-17,c),
(671,-72,l),
(596,69,o),
(567,199,o),
(567,364,cs),
(567,444,l),
(444,444,ls),
(360,444,o),
(307,416,o),
(285,361,c),
(281,361,l),
(278,445,ls),
(273,575,o),
(248,653,o),
(139,653,cs),
(100,653,o),
(57,643,o),
(10,623,c),
(10,550,l),
(52,567,o),
(88,575,o),
(118,575,cs),
(179,575,o),
(194,520,o),
(200,437,cs),
(226,74,l),
(292,74,l),
(302,219,ls),
(309,326,o),
(335,364,o),
(445,364,cs),
(492,364,l),
(492,166,o),
(537,-6,o),
(632,-182,c)
);
}
);
width = 1088;
}
);
unicode = 6206;
}
{
glyphname = u183F;
layers = (
{
layerId = UUID0;
shapes = (
{
closed = 1;
nodes = (
(454,-117,o),
(508,-83,o),
(545,-14,c),
(479,27,l),
(461,-12,o),
(425,-35,o),
(382,-35,cs),
(219,-35,o),
(124,173,o),
(124,374,cs),
(124,559,o),
(213,715,o),
(379,715,cs),
(458,715,o),
(501,680,o),
(527,592,c),
(525,590,l),
(512,599,o),
(497,603,o),
(480,603,cs),
(441,603,o),
(398,593,o),
(351,573,c),
(351,500,l),
(393,517,o),
(428,525,o),
(459,525,cs),
(519,525,o),
(537,482,o),
(543,404,cs),
(567,74,l),
(633,74,l),
(643,219,ls),
(651,332,o),
(676,364,o),
(786,364,cs),
(863,364,l),
(863,444,l),
(785,444,ls),
(701,444,o),
(648,416,o),
(626,361,c),
(622,361,l),
(619,444,ls),
(611,676,o),
(533,792,o),
(379,792,cs),
(175,792,o),
(45,597,o),
(45,374,cs),
(45,131,o),
(161,-117,o),
(382,-117,cs)
);
}
);
width = 908;
}
);
unicode = 6207;
}
{
glyphname = u1842;
layers = (
{
layerId = UUID0;
shapes = (
{
closed = 1;
nodes = (
(369,40,o),
(440,123,o),
(440,249,cs),
(440,294,o),
(433,333,o),
(420,364,c),
(549,364,l),
(536,331,o),
(529,293,o),
(529,249,cs),
(529,116,o),
(598,40,o),
(726,40,cs),
(852,40,o),
(924,122,o),
(924,249,cs),
(924,294,o),
(917,333,o),
(902,364,c),
(1132,364,l),
(1132,444,l),
(90,444,l),
(59,392,o),
(45,336,o),
(45,260,cs),
(45,123,o),
(111,40,o),
(242,40,cs)
);
},
{
closed = 1;
nodes = (
(164,123,o),
(124,169,o),
(124,262,cs),
(124,303,o),
(131,336,o),
(144,364,c),
(341,364,l),
(354,333,o),
(361,295,o),
(361,251,cs),
(361,166,o),
(315,123,o),
(242,123,cs)
);
},
{
closed = 1;
nodes = (
(647,123,o),
(608,166,o),
(608,251,cs),
(608,294,o),
(615,332,o),
(628,364,c),
(825,364,l),
(838,332,o),
(845,294,o),
(845,251,cs),
(845,166,o),
(799,123,o),
(726,123,cs)
);
}
);
width = 1177;
}
);
unicode = 6210;
}
{
glyphname = u1845;
layers = (
{
layerId = UUID0;
shapes = (
{
closed = 1;
nodes = (
(292,74,l),
(302,219,ls),
(310,330,o),
(336,364,o),
(445,364,cs),
(492,364,l),
(492,96,l),
(571,96,l),
(571,629,l),
(710,604,o),
(782,514,o),
(782,373,cs),
(782,275,o),
(757,203,o),
(701,133,c),
(770,87,l),
(833,168,o),
(861,257,o),
(861,373,cs),
(861,586,o),
(716,714,o),
(492,714,c),
(492,444,l),
(444,444,ls),
(360,444,o),
(307,416,o),
(285,361,c),
(281,361,l),
(278,445,ls),
(273,575,o),
(248,653,o),
(139,653,cs),
(100,653,o),
(57,643,o),
(10,623,c),
(10,550,l),
(52,567,o),
(88,575,o),
(118,575,cs),
(179,575,o),
(194,520,o),
(200,437,cs),
(226,74,l)
);
}
);
width = 906;
}
);
unicode = 6213;
}
{
glyphname = u1847;
layers = (
{
layerId = UUID0;
shapes = (
{
closed = 1;
nodes = (
(863,-81,l),
(839,-39,o),
(815,7,o),
(792,58,c),
(854,91,o),
(897,167,o),
(897,275,cs),
(897,321,o),
(887,404,o),
(874,444,c),
(570,444,l),
(572,589,o),
(643,699,o),
(781,699,cs),
(920,699,o),
(991,566,o),
(1001,409,c),
(1081,419,l),
(1070,610,o),
(963,782,o),
(781,782,cs),
(601,782,o),
(503,645,o),
(492,444,c),
(444,444,ls),
(360,444,o),
(307,416,o),
(285,361,c),
(281,361,l),
(278,445,ls),
(273,575,o),
(248,653,o),
(139,653,cs),
(100,653,o),
(57,643,o),
(10,623,c),
(10,550,l),
(52,567,o),
(88,575,o),
(118,575,cs),
(179,575,o),
(194,520,o),
(200,437,cs),
(226,74,l),
(292,74,l),
(302,219,ls),
(309,326,o),
(335,364,o),
(445,364,cs),
(491,364,l),
(501,144,o),
(573,43,o),
(712,40,c),
(734,-10,o),
(761,-64,o),
(792,-121,c)
);
},
{
closed = 1;
nodes = (
(620,123,o),
(573,203,o),
(570,364,c),
(808,364,l),
(814,344,o),
(818,314,o),
(818,275,cs),
(818,190,o),
(783,123,o),
(710,123,cs)
);
}
);
width = 1126;
}
);
unicode = 6215;
}
{
glyphname = u184A;
layers = (
{
layerId = UUID0;
shapes = (
{
closed = 1;
nodes = (
(845,-264,l),
(831,-240,o),
(824,-214,o),
(824,-187,cs),
(824,-125,o),
(846,-91,o),
(891,-31,cs),
(965,67,o),
(1024,152,o),
(1024,245,cs),
(1024,373,o),
(947,444,o),
(793,444,cs),
(45,444,l),
(45,364,l),
(64,96,l),
(130,96,l),
(149,364,l),
(329,364,l),
(329,263,ls),
(329,109,o),
(406,36,o),
(545,36,cs),
(586,36,ls),
(636,36,o),
(671,27,o),
(691,9,c),
(691,92,l),
(670,110,o),
(635,119,o),
(586,119,cs),
(545,119,ls),
(454,119,o),
(408,167,o),
(408,263,cs),
(408,364,l),
(792,364,ls),
(899,364,o),
(946,325,o),
(946,245,cs),
(946,177,o),
(907,116,o),
(839,28,cs),
(783,-44,o),
(744,-109,o),
(744,-187,cs),
(744,-217,o),
(750,-243,o),
(763,-264,c)
);
}
);
width = 1069;
}
);
unicode = 6218;
}
{
glyphname = u184B;
layers = (
{
layerId = UUID0;
shapes = (
{
closed = 1;
nodes = (
(701,-264,l),
(687,-240,o),
(680,-214,o),
(680,-187,cs),
(680,-125,o),
(702,-91,o),
(747,-31,cs),
(822,68,o),
(880,153,o),
(880,245,cs),
(880,373,o),
(803,444,o),
(649,444,cs),
(90,444,l),
(59,392,o),
(45,336,o),
(45,260,cs),
(45,123,o),
(111,40,o),
(242,40,cs),
(369,40,o),
(440,123,o),
(440,249,cs),
(440,294,o),
(433,333,o),
(420,364,c),
(648,364,ls),
(755,364,o),
(802,325,o),
(802,245,cs),
(802,174,o),
(759,112,o),
(695,28,cs),
(640,-45,o),
(600,-109,o),
(600,-187,cs),
(600,-217,o),
(606,-243,o),
(619,-264,c)
);
},
{
closed = 1;
nodes = (
(164,123,o),
(124,169,o),
(124,262,cs),
(124,303,o),
(131,336,o),
(144,364,c),
(341,364,l),
(354,333,o),
(361,295,o),
(361,251,cs),
(361,166,o),
(315,123,o),
(242,123,cs)
);
}
);
width = 925;
}
);
unicode = 6219;
}
{
glyphname = u184C;
layers = (
{
layerId = UUID0;
shapes = (
{
closed = 1;
nodes = (
(405,63,l),
(328,198,o),
(289,320,o),
(289,430,cs),
(289,575,o),
(347,644,o),
(439,644,cs),
(528,644,o),
(580,573,o),
(592,409,c),
(671,419,l),
(659,591,o),
(591,727,o),
(439,727,cs),
(304,727,o),
(210,616,o),
(210,444,c),
(116,444,l),
(116,711,l),
(45,711,l),
(45,63,l)
);
},
{
closed = 1;
nodes = (
(116,364,l),
(213,364,l),
(221,293,o),
(242,220,o),
(276,146,c),
(116,146,l)
);
}
);
width = 716;
}
);
unicode = 6220;
}
{
glyphname = u184F;
layers = (
{
layerId = UUID0;
shapes = (
{
closed = 1;
nodes = (
(341,186,ls),
(341,395,o),
(393,545,o),
(516,718,c),
(417,718,l),
(394,685,o),
(372,650,o),
(353,614,c),
(326,648,o),
(291,665,o),
(246,665,cs),
(134,665,o),
(45,564,o),
(45,409,cs),
(45,223,o),
(160,80,o),
(341,74,c)
);
},
{
closed = 1;
nodes = (
(167,217,o),
(119,304,o),
(119,410,cs),
(119,510,o),
(161,593,o),
(246,593,cs),
(279,593,o),
(305,578,o),
(324,548,c),
(283,444,o),
(262,322,o),
(262,183,c)
);
}
);
width = 526;
}
);
unicode = 6223;
}
{
glyphname = u1850;
layers = (
{
layerId = UUID0;
shapes = (
{
closed = 1;
nodes = (
(370,96,l),
(415,173,o),
(438,263,o),
(443,364,c),
(678,364,l),
(678,444,l),
(443,444,l),
(439,625,o),
(378,711,o),
(253,711,cs),
(131,711,o),
(45,604,o),
(45,420,cs),
(45,401,o),
(46,383,o),
(50,364,c),
(145,300,o),
(222,210,o),
(281,96,c)
);
},
{
closed = 1;
nodes = (
(279,262,o),
(202,353,o),
(126,405,c),
(124,415,o),
(124,417,o),
(124,420,cs),
(124,553,o),
(178,633,o),
(253,633,cs),
(347,633,o),
(364,538,o),
(364,409,cs),
(364,318,o),
(355,248,o),
(324,176,c)
);
}
);
width = 723;
}
);
unicode = 6224;
}
{
glyphname = u1851;
layers = (
{
layerId = UUID0;
shapes = (
{
closed = 1;
nodes = (
(459,62,l),
(307,364,l),
(506,364,l),
(506,444,l),
(45,444,l),
(205,-90,l)
);
},
{
closed = 1;
nodes = (
(146,364,l),
(225,364,l),
(360,96,l),
(247,28,l)
);
}
);
width = 551;
}
);
unicode = 6225;
}
{
glyphname = u1852;
layers = (
{
layerId = UUID0;
shapes = (
{
closed = 1;
nodes = (
(372,-120,o),
(431,-65,o),
(431,14,cs),
(431,66,o),
(406,108,o),
(367,130,c),
(425,161,ls),
(500,201,o),
(531,262,o),
(531,364,c),
(740,364,l),
(740,444,l),
(63,444,l),
(45,364,l),
(454,364,l),
(454,292,o),
(434,253,o),
(376,222,cs),
(264,162,ls),
(196,125,o),
(162,84,o),
(162,12,cs),
(162,-60,o),
(219,-120,o),
(299,-120,cs)
);
},
{
closed = 1;
nodes = (
(262,-50,o),
(236,-23,o),
(236,14,cs),
(236,51,o),
(260,79,o),
(299,79,cs),
(335,79,o),
(361,54,o),
(361,15,cs),
(361,-24,o),
(335,-50,o),
(299,-50,cs)
);
}
);
width = 785;
}
);
unicode = 6226;
}
{
glyphname = u1853;
layers = (
{
layerId = UUID0;
shapes = (
{
closed = 1;
nodes = (
(518,-89,l),
(475,-55,o),
(412,-50,o),
(338,-50,cs),
(317,-50,ls),
(261,-50,o),
(233,-25,o),
(233,12,cs),
(233,69,o),
(279,81,o),
(342,81,cs),
(518,81,l),
(518,142,l),
(491,217,o),
(477,291,o),
(477,364,c),
(722,364,l),
(722,444,l),
(63,444,l),
(45,364,l),
(403,364,l),
(403,289,o),
(412,222,o),
(431,161,c),
(342,161,ls),
(222,161,o),
(162,108,o),
(162,12,cs),
(162,-83,o),
(214,-130,o),
(317,-130,cs),
(338,-130,ls),
(412,-130,o),
(463,-134,o),
(518,-176,c)
);
}
);
width = 767;
}
);
unicode = 6227;
}
{
glyphname = u1855;
layers = (
{
layerId = UUID0;
shapes = (
{
closed = 1;
nodes = (
(261,-31,l),
(231,21,o),
(205,72,o),
(182,122,cs),
(159,171,o),
(142,211,o),
(131,241,cs),
(120,271,o),
(116,298,o),
(116,325,cs),
(116,364,l),
(406,364,l),
(406,444,l),
(45,444,l),
(45,331,ls),
(45,295,o),
(49,261,o),
(59,229,cs),
(69,196,o),
(84,153,o),
(107,98,cs),
(130,43,o),
(158,-12,o),
(188,-67,c)
);
}
);
width = 451;
}
);
unicode = 6229;
}
{
glyphname = u1856;
layers = (
{
layerId = UUID0;
shapes = (
{
closed = 1;
nodes = (
(474,-157,o),
(552,-78,o),
(552,38,cs),
(552,148,o),
(481,231,o),
(363,231,cs),
(294,231,o),
(235,198,o),
(206,142,c),
(146,364,l),
(704,364,l),
(704,444,l),
(45,444,l),
(164,19,ls),
(197,-97,o),
(250,-157,o),
(363,-157,cs)
);
},
{
closed = 1;
nodes = (
(299,-77,o),
(252,-32,o),
(252,38,cs),
(252,106,o),
(297,153,o),
(363,153,cs),
(427,153,o),
(474,108,o),
(474,38,cs),
(474,-30,o),
(429,-77,o),
(363,-77,cs)
);
}
);
width = 749;
}
);
unicode = 6230;
}
{
glyphname = u1857;
layers = (
{
layerId = UUID0;
shapes = (
{
closed = 1;
nodes = (
(256,96,l),
(185,198,o),
(142,288,o),
(142,407,cs),
(142,567,o),
(199,644,o),
(291,644,cs),
(380,644,o),
(432,573,o),
(444,409,c),
(523,419,l),
(511,591,o),
(443,727,o),
(291,727,cs),
(137,727,o),
(63,585,o),
(63,407,cs),
(63,330,o),
(81,252,o),
(117,176,c),
(45,176,l),
(45,96,l)
);
}
);
width = 568;
}
);
unicode = 6231;
}
{
glyphname = u1858;
layers = (
{
layerId = UUID0;
shapes = (
{
closed = 1;
nodes = (
(246,85,l),
(172,188,o),
(124,287,o),
(124,407,cs),
(124,544,o),
(181,609,o),
(273,609,cs),
(361,609,o),
(413,525,o),
(423,376,c),
(503,386,l),
(493,556,o),
(424,692,o),
(273,692,cs),
(124,692,o),
(45,574,o),
(45,407,cs),
(45,356,o),
(53,305,o),
(69,252,c),
(38,209,o),
(9,166,o),
(-20,120,c),
(50,77,l),
(68,107,o),
(86,136,o),
(104,163,c),
(124,123,o),
(147,82,o),
(174,42,c)
);
}
);
width = 548;
}
);
unicode = 6232;
}
{
glyphname = u1859;
layers = (
{
layerId = UUID0;
shapes = (
{
closed = 1;
nodes = (
(738,-57,l),
(664,82,o),
(626,215,o),
(624,364,c),
(880,364,ls),
(951,364,o),
(978,333,o),
(978,279,cs),
(978,236,o),
(971,197,o),
(956,162,c),
(1030,162,l),
(1047,198,o),
(1055,237,o),
(1055,279,cs),
(1055,389,o),
(997,444,o),
(880,444,cs),
(548,444,l),
(548,366,ls),
(548,221,o),
(576,94,o),
(632,-17,c),
(508,-72,l),
(433,69,o),
(404,199,o),
(404,364,cs),
(404,444,l),
(45,444,l),
(45,364,l),
(64,96,l),
(130,96,l),
(149,364,l),
(329,364,l),
(329,166,o),
(374,-6,o),
(469,-182,c)
);
}
);
width = 1100;
}
);
unicode = 6233;
}
{
glyphname = u185A;
layers = (
{
layerId = UUID0;
shapes = (
{
closed = 1;
nodes = (
(694,-83,l),
(694,-3,l),
(562,-3,l),
(641,95,o),
(688,224,o),
(688,368,cs),
(688,605,o),
(581,782,o),
(360,782,cs),
(163,782,o),
(45,640,o),
(45,408,cs),
(45,162,o),
(118,40,o),
(272,40,cs),
(377,40,o),
(451,137,o),
(451,275,cs),
(451,312,o),
(440,410,o),
(428,444,c),
(124,444,l),
(126,593,o),
(207,699,o),
(360,699,cs),
(536,699,o),
(609,560,o),
(609,368,cs),
(609,223,o),
(560,106,o),
(464,-9,c),
(464,-83,l)
);
},
{
closed = 1;
nodes = (
(173,123,o),
(126,203,o),
(124,364,c),
(362,364,l),
(369,345,o),
(372,315,o),
(372,275,cs),
(372,190,o),
(337,123,o),
(264,123,cs)
);
}
);
width = 739;
}
);
unicode = 6234;
}
{
glyphname = u185B;
layers = (
{
layerId = UUID0;
shapes = (
{
closed = 1;
nodes = (
(331,-119,o),
(363,-106,o),
(377,-85,c),
(377,6,l),
(357,-22,o),
(330,-36,o),
(294,-36,cs),
(214,-36,o),
(164,69,o),
(140,170,cs),
(125,232,o),
(116,296,o),
(116,364,c),
(473,364,l),
(473,444,l),
(346,444,l),
(346,674,l),
(275,674,ls),
(196,674,o),
(120,686,o),
(45,710,c),
(45,364,ls),
(45,253,o),
(57,143,o),
(102,36,cs),
(142,-59,o),
(194,-119,o),
(294,-119,cs)
);
},
{
closed = 1;
nodes = (
(116,612,l),
(167,600,o),
(220,594,o),
(275,594,c),
(275,444,l),
(116,444,l)
);
}
);
width = 518;
}
);
unicode = 6235;
}
{
glyphname = u185C;
layers = (
{
layerId = UUID0;
shapes = (
{
closed = 1;
nodes = (
(222,-124,o),
(273,-118,o),
(359,-118,cs),
(480,-118,l),
(480,-52,l),
(458,13,o),
(447,80,o),
(447,151,cs),
(447,222,o),
(457,293,o),
(477,364,c),
(682,364,l),
(682,444,l),
(63,444,l),
(45,364,l),
(403,364,l),
(385,302,o),
(375,238,o),
(374,170,c),
(337,170,ls),
(239,170,o),
(160,167,o),
(102,128,c),
(102,43,l),
(167,84,o),
(236,90,o),
(337,90,cs),
(376,90,l),
(378,49,o),
(385,6,o),
(395,-38,c),
(359,-38,ls),
(280,-38,o),
(218,-40,o),
(168,-80,c),
(168,-164,l)
);
}
);
width = 727;
}
);
unicode = 6236;
}
{
glyphname = u185F;
layers = (
{
layerId = UUID0;
shapes = (
{
closed = 1;
nodes = (
(85,96,l),
(104,364,l),
(314,364,l),
(314,444,l),
(82,444,l),
(168,667,l),
(101,667,l),
(68,576,ls),
(63,563,o),
(60,550,o),
(57,537,c),
(53,537,l),
(50,550,o),
(46,563,o),
(41,576,cs),
(8,667,l),
(-59,667,l),
(26,444,l),
(0,444,l),
(0,364,l),
(19,96,l)
);
}
);
width = 284;
}
);
unicode = 6239;
}
{
glyphname = u1861;
layers = (
{
layerId = UUID0;
shapes = (
{
closed = 1;
nodes = (
(798,-31,l),
(725,100,o),
(669,231,o),
(631,364,c),
(843,364,l),
(843,444,l),
(90,444,l),
(59,392,o),
(45,336,o),
(45,260,cs),
(45,123,o),
(111,40,o),
(242,40,cs),
(369,40,o),
(440,123,o),
(440,249,cs),
(440,294,o),
(433,333,o),
(420,364,c),
(552,364,l),
(590,220,o),
(647,77,o),
(725,-67,c)
);
},
{
closed = 1;
nodes = (
(164,123,o),
(124,169,o),
(124,262,cs),
(124,303,o),
(131,336,o),
(144,364,c),
(341,364,l),
(354,333,o),
(361,295,o),
(361,251,cs),
(361,166,o),
(315,123,o),
(242,123,cs)
);
}
);
width = 888;
}
);
unicode = 6241;
}
{
glyphname = u1862;
layers = (
{
layerId = UUID0;
shapes = (
{
closed = 1;
nodes = (
(696,-264,l),
(682,-238,o),
(675,-213,o),
(675,-187,cs),
(675,-124,o),
(693,-95,o),
(742,-31,cs),
(794,37,o),
(829,91,o),
(847,131,cs),
(865,171,o),
(875,209,o),
(875,245,cs),
(875,373,o),
(797,444,o),
(644,444,cs),
(45,444,l),
(45,364,l),
(64,96,l),
(130,96,l),
(149,364,l),
(329,364,l),
(348,96,l),
(414,96,l),
(433,364,l),
(643,364,ls),
(750,364,o),
(797,325,o),
(797,245,cs),
(797,197,o),
(783,166,o),
(755,120,cs),
(740,95,o),
(718,64,o),
(690,28,cs),
(634,-44,o),
(595,-112,o),
(595,-187,cs),
(595,-217,o),
(602,-242,o),
(614,-264,c)
);
}
);
width = 920;
}
);
unicode = 6242;
}
{
glyphname = u1865;
layers = (
{
layerId = UUID0;
shapes = (
{
closed = 1;
nodes = (
(299,96,l),
(289,268,o),
(258,377,o),
(206,423,c),
(214,574,o),
(272,644,o),
(362,644,cs),
(462,644,o),
(512,563,o),
(512,378,cs),
(512,279,o),
(506,185,o),
(495,96,c),
(573,96,l),
(587,192,o),
(594,281,o),
(594,364,c),
(917,364,l),
(917,444,l),
(591,444,l),
(573,633,o),
(497,727,o),
(362,727,cs),
(222,727,o),
(142,609,o),
(129,451,c),
(96,450,o),
(68,444,o),
(45,433,c),
(45,353,l),
(62,362,o),
(84,366,o),
(112,366,cs),
(192,366,o),
(210,233,o),
(221,96,c)
);
},
{
closed = 1;
nodes = (
(786,519,o),
(838,573,o),
(838,638,cs),
(838,705,o),
(784,757,o),
(719,757,cs),
(652,757,o),
(600,703,o),
(600,638,cs),
(600,572,o),
(654,519,o),
(719,519,cs)
);
},
{
closed = 1;
nodes = (
(683,569,o),
(651,595,o),
(651,638,cs),
(651,678,o),
(680,706,o),
(719,706,cs),
(759,706,o),
(788,676,o),
(788,638,cs),
(788,599,o),
(758,569,o),
(719,569,cs)
);
}
);
width = 962;
}
);
unicode = 6245;
}
{
glyphname = u1866;
layers = (
{
layerId = UUID0;
shapes = (
{
closed = 1;
nodes = (
(378,40,o),
(451,138,o),
(451,275,cs),
(451,312,o),
(440,410,o),
(428,444,c),
(124,444,l),
(129,585,o),
(167,650,o),
(241,650,cs),
(292,650,o),
(325,627,o),
(356,571,c),
(388,627,o),
(417,650,o),
(466,650,cs),
(551,650,o),
(587,530,o),
(593,409,c),
(673,419,l),
(663,582,o),
(602,733,o),
(466,733,cs),
(417,733,o),
(387,715,o),
(356,680,c),
(326,715,o),
(288,733,o),
(241,733,cs),
(111,733,o),
(45,617,o),
(45,408,cs),
(45,162,o),
(118,40,o),
(272,40,cs)
);
},
{
closed = 1;
nodes = (
(173,123,o),
(126,203,o),
(124,364,c),
(362,364,l),
(369,345,o),
(372,314,o),
(372,274,cs),
(372,188,o),
(336,123,o),
(264,123,cs)
);
}
);
width = 718;
}
);
unicode = 6246;
}
{
glyphname = u1867;
layers = (
{
layerId = UUID0;
shapes = (
{
closed = 1;
nodes = (
(519,73,l),
(497,178,o),
(477,273,o),
(454,364,c),
(711,364,l),
(711,444,l),
(433,444,l),
(406,545,o),
(378,642,o),
(349,734,c),
(255,734,l),
(234,608,o),
(215,525,o),
(199,486,cs),
(183,446,o),
(160,427,o),
(130,427,cs),
(104,427,o),
(76,433,o),
(45,446,c),
(45,371,l),
(74,354,o),
(104,346,o),
(135,346,cs),
(216,346,o),
(250,394,o),
(273,480,cs),
(287,532,o),
(297,579,o),
(302,620,c),
(306,620,l),
(354,488,o),
(408,251,o),
(443,73,c)
);
},
{
closed = 1;
nodes = (
(349,124,l),
(287,184,o),
(197,250,o),
(122,286,c),
(86,228,l),
(158,193,o),
(247,128,o),
(305,70,c)
);
}
);
width = 681;
}
);
unicode = 6247;
}
{
glyphname = u1868;
layers = (
{
layerId = UUID0;
shapes = (
{
closed = 1;
nodes = (
(558,96,l),
(577,364,l),
(787,364,l),
(787,444,l),
(547,444,l),
(539,637,o),
(468,728,o),
(318,728,cs),
(228,728,o),
(159,693,o),
(95,621,c),
(95,532,l),
(136,512,o),
(170,482,o),
(197,444,c),
(45,444,l),
(45,364,l),
(473,364,l),
(492,96,l)
);
},
{
closed = 1;
nodes = (
(252,503,o),
(209,549,o),
(158,581,c),
(205,628,o),
(255,645,o),
(318,645,cs),
(417,645,o),
(460,577,o),
(467,444,c),
(286,444,l)
);
}
);
width = 832;
}
);
unicode = 6248;
}
{
glyphname = u186A;
layers = (
{
layerId = UUID0;
shapes = (
{
closed = 1;
nodes = (
(278,-94,l),
(305,-75,o),
(322,-36,o),
(322,9,cs),
(322,49,o),
(312,90,o),
(292,132,cs),
(271,176,o),
(234,243,o),
(159,364,c),
(467,364,l),
(467,444,l),
(30,444,l),
(49,411,o),
(83,352,o),
(136,262,cs),
(202,150,o),
(243,80,o),
(243,9,cs),
(243,-35,o),
(226,-69,o),
(191,-94,c)
);
}
);
width = 512;
}
);
unicode = 6250;
}
{
glyphname = u186B;
layers = (
{
layerId = UUID0;
shapes = (
{
closed = 1;
nodes = (
(388,-59,o),
(419,-46,o),
(434,-25,c),
(434,66,l),
(416,38,o),
(388,24,o),
(351,24,cs),
(300,24,o),
(264,82,o),
(242,194,cs),
(231,250,o),
(225,307,o),
(225,364,c),
(550,364,l),
(550,444,l),
(225,444,l),
(225,530,ls),
(225,673,o),
(197,767,o),
(77,767,cs),
(46,767,o),
(24,762,o),
(10,751,c),
(10,666,l),
(24,678,o),
(43,684,o),
(69,684,cs),
(136,684,o),
(147,623,o),
(147,530,cs),
(147,409,ls),
(147,321,o),
(154,238,o),
(169,162,cs),
(194,33,o),
(241,-59,o),
(351,-59,cs)
);
}
);
width = 595;
}
);
unicode = 6251;
}
{
glyphname = u186E;
layers = (
{
layerId = UUID0;
shapes = (
{
closed = 1;
nodes = (
(519,73,l),
(507,127,o),
(484,225,o),
(450,364,c),
(711,364,l),
(711,444,l),
(428,444,l),
(405,527,o),
(380,610,o),
(352,694,c),
(499,694,l),
(499,756,l),
(334,756,l),
(334,888,l),
(271,888,l),
(271,756,l),
(114,756,l),
(114,694,l),
(258,694,l),
(254,672,o),
(246,632,o),
(227,559,cs),
(208,487,o),
(185,427,o),
(131,427,cs),
(105,427,o),
(76,433,o),
(45,446,c),
(45,371,l),
(74,354,o),
(104,346,o),
(135,346,cs),
(208,346,o),
(243,379,o),
(270,459,cs),
(284,501,o),
(295,544,o),
(304,590,c),
(308,590,l),
(356,458,o),
(413,231,o),
(443,73,c)
);
}
);
width = 756;
}
);
unicode = 6254;
}
{
glyphname = u1870;
layers = (
{
layerId = UUID0;
shapes = (
{
closed = 1;
nodes = (
(118,96,l),
(118,364,l),
(328,364,l),
(328,444,l),
(118,444,l),
(118,712,l),
(45,712,l),
(45,96,l)
);
}
);
width = 373;
}
);
unicode = 6256;
}
{
glyphname = u1873;
layers = (
{
layerId = UUID0;
shapes = (
{
closed = 1;
nodes = (
(306,-31,l),
(233,100,o),
(177,231,o),
(139,364,c),
(351,364,l),
(389,221,o),
(446,78,o),
(524,-67,c),
(597,-31,l),
(524,100,o),
(468,231,o),
(430,364,c),
(742,364,l),
(742,444,l),
(45,444,l),
(73,275,o),
(139,110,o),
(233,-67,c)
);
}
);
width = 787;
}
);
unicode = 6259;
}
{
glyphname = u1875;
layers = (
{
layerId = UUID0;
shapes = (
{
closed = 1;
nodes = (
(313,-96,l),
(271,-17,o),
(234,63,o),
(205,143,c),
(289,143,ls),
(379,143,o),
(416,97,o),
(416,13,cs),
(416,-19,o),
(411,-44,o),
(401,-65,c),
(480,-65,l),
(491,-38,o),
(496,-9,o),
(496,24,cs),
(496,144,o),
(421,223,o),
(292,223,cs),
(176,223,l),
(161,268,o),
(148,314,o),
(137,364,c),
(648,364,ls),
(719,364,o),
(746,333,o),
(746,279,cs),
(746,236,o),
(739,197,o),
(724,162,c),
(798,162,l),
(815,198,o),
(823,237,o),
(823,279,cs),
(823,389,o),
(765,444,o),
(648,444,cs),
(45,444,l),
(72,267,o),
(137,76,o),
(240,-131,c)
);
}
);
width = 868;
}
);
unicode = 6261;
}
{
glyphname = u1876;
layers = (
{
layerId = UUID0;
shapes = (
{
closed = 1;
nodes = (
(453,-59,o),
(484,-46,o),
(499,-25,c),
(499,66,l),
(480,38,o),
(453,24,o),
(416,24,cs),
(325,24,o),
(290,231,o),
(290,364,c),
(515,364,l),
(515,444,l),
(290,444,l),
(290,530,ls),
(290,673,o),
(262,767,o),
(142,767,cs),
(111,767,o),
(89,762,o),
(75,751,c),
(75,666,l),
(88,678,o),
(108,684,o),
(134,684,cs),
(201,684,o),
(212,623,o),
(212,530,cs),
(212,444,l),
(45,444,l),
(45,364,l),
(212,364,l),
(215,252,o),
(234,112,o),
(276,32,cs),
(309,-31,o),
(352,-59,o),
(416,-59,cs)
);
}
);
width = 560;
}
);
unicode = 6262;
}
{
glyphname = u1880;
layers = (
{
layerId = UUID0;
shapes = (
{
closed = 1;
nodes = (
(456,107,o),
(538,246,o),
(538,403,cs),
(538,557,o),
(459,698,o),
(312,744,c),
(290,678,l),
(400,635,o),
(458,534,o),
(458,403,cs),
(458,278,o),
(402,169,o),
(290,128,c),
(312,62,l)
);
},
{
closed = 1;
nodes = (
(287,245,o),
(362,312,o),
(362,403,cs),
(362,488,o),
(292,562,o),
(203,562,cs),
(113,562,o),
(45,491,o),
(45,403,cs),
(45,317,o),
(114,245,o),
(203,245,cs)
);
},
{
closed = 1;
nodes = (
(153,315,o),
(115,354,o),
(115,403,cs),
(115,452,o),
(154,492,o),
(203,492,cs),
(253,492,o),
(292,452,o),
(292,403,cs),
(292,354,o),
(252,315,o),
(203,315,cs)
);
}
);
width = 583;
}
);
unicode = 6272;
}
{
glyphname = u1881;
layers = (
{
layerId = UUID0;
shapes = (
{
closed = 1;
nodes = (
(306,215,o),
(358,239,o),
(395,287,c),
(432,239,o),
(484,215,o),
(552,215,cs),
(668,215,o),
(745,291,o),
(745,403,cs),
(745,514,o),
(671,592,o),
(552,592,cs),
(482,592,o),
(430,568,o),
(395,520,c),
(360,567,o),
(305,592,o),
(238,592,cs),
(121,592,o),
(45,516,o),
(45,403,cs),
(45,294,o),
(119,215,o),
(238,215,cs)
);
},
{
closed = 1;
nodes = (
(167,290,o),
(119,333,o),
(119,403,cs),
(119,473,o),
(167,517,o),
(238,517,cs),
(308,517,o),
(357,471,o),
(357,403,cs),
(357,338,o),
(312,290,o),
(238,290,cs)
);
},
{
closed = 1;
nodes = (
(481,290,o),
(433,333,o),
(433,403,cs),
(433,473,o),
(481,517,o),
(552,517,cs),
(622,517,o),
(671,471,o),
(671,403,cs),
(671,338,o),
(626,290,o),
(552,290,cs)
);
}
);
width = 790;
}
);
unicode = 6273;
}
{
glyphname = u1882;
layers = (
{
layerId = UUID0;
shapes = (
{
closed = 1;
nodes = (
(118,64,l),
(336,346,l),
(555,64,l),
(628,64,l),
(628,744,l),
(555,744,l),
(336,461,l),
(118,744,l),
(45,744,l),
(45,64,l)
);
},
{
closed = 1;
nodes = (
(116,213,o),
(118,257,o),
(118,302,cs),
(118,506,ls),
(118,550,o),
(116,595,o),
(113,639,c),
(117,639,l),
(131,616,o),
(157,579,o),
(197,527,cs),
(292,404,l),
(159,230,ls),
(142,208,o),
(128,187,o),
(117,169,c),
(113,169,l)
);
},
{
closed = 1;
nodes = (
(537,199,o),
(511,236,o),
(476,281,cs),
(381,404,l),
(511,574,ls),
(531,600,o),
(545,621,o),
(556,639,c),
(560,639,l),
(557,589,o),
(555,544,o),
(555,506,cs),
(555,302,ls),
(555,264,o),
(557,219,o),
(560,169,c),
(556,169,l)
);
}
);
width = 673;
}
);
unicode = 6274;
}
{
glyphname = u1883;
layers = (
{
layerId = UUID0;
shapes = (
{
closed = 1;
nodes = (
(356,43,o),
(438,108,o),
(438,232,cs),
(438,317,o),
(394,375,o),
(318,402,c),
(318,406,l),
(394,433,o),
(438,491,o),
(438,576,cs),
(438,697,o),
(359,765,o),
(238,765,cs),
(168,765,o),
(102,746,o),
(40,706,c),
(78,631,l),
(133,670,o),
(180,687,o),
(236,687,cs),
(318,687,o),
(362,640,o),
(362,572,cs),
(362,484,o),
(299,444,o),
(200,444,cs),
(99,444,l),
(99,364,l),
(200,364,ls),
(298,364,o),
(362,325,o),
(362,236,cs),
(362,165,o),
(316,121,o),
(236,121,cs),
(180,121,o),
(133,138,o),
(78,177,c),
(40,102,l),
(106,59,o),
(169,43,o),
(238,43,cs)
);
}
);
width = 483;
}
);
unicode = 6275;
}
{
glyphname = u1884;
layers = (
{
layerId = UUID0;
shapes = (
{
closed = 1;
nodes = (
(314,43,o),
(376,59,o),
(443,102,c),
(405,177,l),
(350,138,o),
(303,121,o),
(247,121,cs),
(170,121,o),
(121,162,o),
(121,236,cs),
(121,322,o),
(182,364,o),
(283,364,cs),
(384,364,l),
(384,444,l),
(283,444,ls),
(186,444,o),
(121,483,o),
(121,572,cs),
(121,640,o),
(165,687,o),
(247,687,cs),
(303,687,o),
(350,670,o),
(405,631,c),
(443,706,l),
(381,746,o),
(315,765,o),
(245,765,cs),
(128,765,o),
(45,699,o),
(45,576,cs),
(45,491,o),
(89,433,o),
(165,406,c),
(165,402,l),
(89,375,o),
(45,317,o),
(45,232,cs),
(45,112,o),
(123,43,o),
(245,43,cs)
);
}
);
width = 483;
}
);
unicode = 6276;
}
{
category = Mark;
glyphname = u1885;
layers = (
{
layerId = UUID0;
shapes = (
{
closed = 1;
nodes = (
(-577,816,o),
(-543,855,o),
(-543,921,c),
(-597,921,l),
(-597,890,o),
(-613,870,o),
(-641,870,cs),
(-675,870,o),
(-696,902,o),
(-696,963,cs),
(-696,1027,o),
(-668,1076,o),
(-609,1076,cs),
(-549,1076,o),
(-515,1039,o),
(-503,956,cs),
(-489,860,o),
(-455,816,o),
(-391,816,cs),
(-327,816,o),
(-293,855,o),
(-293,921,c),
(-347,921,l),
(-347,890,o),
(-363,870,o),
(-391,870,cs),
(-425,870,o),
(-446,902,o),
(-446,963,cs),
(-446,1027,o),
(-418,1076,o),
(-359,1076,cs),
(-304,1076,o),
(-278,1041,o),
(-255,975,cs),
(-243,940,o),
(-230,892,o),
(-218,831,c),
(-165,831,l),
(-165,920,o),
(-143,1005,o),
(-100,1087,c),
(-147,1108,l),
(-171,1061,o),
(-187,1010,o),
(-197,955,c),
(-199,955,l),
(-217,1019,o),
(-239,1076,o),
(-281,1107,cs),
(-301,1122,o),
(-327,1130,o),
(-359,1130,cs),
(-415,1130,o),
(-457,1100,o),
(-477,1047,c),
(-479,1047,l),
(-505,1103,o),
(-545,1130,o),
(-609,1130,cs),
(-698,1130,o),
(-748,1062,o),
(-748,963,cs),
(-748,880,o),
(-717,816,o),
(-641,816,cs)
);
}
);
width = 0;
}
);
subCategory = Nonspacing;
unicode = 6277;
}
{
category = Mark;
glyphname = u1886;
layers = (
{
layerId = UUID0;
shapes = (
{
closed = 1;
nodes = (
(-628,1263,o),
(-597,1291,o),
(-597,1341,c),
(-641,1341,l),
(-641,1320,o),
(-657,1308,o),
(-678,1308,cs),
(-701,1308,o),
(-715,1325,o),
(-715,1355,cs),
(-715,1389,o),
(-697,1412,o),
(-654,1412,cs),
(-606,1412,o),
(-575,1386,o),
(-550,1343,cs),
(-519,1289,o),
(-496,1263,o),
(-445,1263,cs),
(-388,1263,o),
(-360,1291,o),
(-360,1341,c),
(-404,1341,l),
(-404,1321,o),
(-418,1308,o),
(-442,1308,cs),
(-469,1308,o),
(-485,1327,o),
(-485,1355,cs),
(-485,1392,o),
(-460,1412,o),
(-416,1412,cs),
(-344,1412,o),
(-305,1351,o),
(-265,1271,c),
(-224,1271,l),
(-209,1331,o),
(-188,1384,o),
(-156,1435,c),
(-200,1455,l),
(-224,1409,o),
(-241,1367,o),
(-250,1329,c),
(-252,1329,l),
(-293,1414,o),
(-349,1457,o),
(-419,1457,cs),
(-475,1457,o),
(-512,1430,o),
(-524,1379,c),
(-526,1379,l),
(-559,1432,o),
(-598,1457,o),
(-654,1457,cs),
(-724,1457,o),
(-758,1417,o),
(-758,1355,cs),
(-758,1295,o),
(-729,1263,o),
(-676,1263,cs)
);
},
{
closed = 1;
nodes = (
(-628,1043,o),
(-597,1071,o),
(-597,1121,c),
(-641,1121,l),
(-641,1100,o),
(-657,1088,o),
(-678,1088,cs),
(-701,1088,o),
(-715,1105,o),
(-715,1135,cs),
(-715,1169,o),
(-697,1192,o),
(-654,1192,cs),
(-606,1192,o),
(-575,1166,o),
(-550,1123,cs),
(-519,1069,o),
(-496,1043,o),
(-445,1043,cs),
(-388,1043,o),
(-360,1071,o),
(-360,1121,c),
(-404,1121,l),
(-404,1101,o),
(-418,1088,o),
(-442,1088,cs),
(-469,1088,o),
(-485,1107,o),
(-485,1135,cs),
(-485,1172,o),
(-460,1192,o),
(-416,1192,cs),
(-344,1192,o),
(-305,1131,o),
(-265,1051,c),
(-224,1051,l),
(-209,1111,o),
(-188,1164,o),
(-156,1215,c),
(-200,1235,l),
(-224,1189,o),
(-241,1147,o),
(-250,1109,c),
(-252,1109,l),
(-293,1194,o),
(-349,1237,o),
(-419,1237,cs),
(-475,1237,o),
(-512,1210,o),
(-524,1159,c),
(-526,1159,l),
(-559,1212,o),
(-598,1237,o),
(-654,1237,cs),
(-724,1237,o),
(-758,1197,o),
(-758,1135,cs),
(-758,1075,o),
(-729,1043,o),
(-676,1043,cs)
);
},
{
closed = 1;
nodes = (
(-628,823,o),
(-597,851,o),
(-597,901,c),
(-641,901,l),
(-641,880,o),
(-657,868,o),
(-678,868,cs),
(-701,868,o),
(-715,885,o),
(-715,915,cs),
(-715,949,o),
(-697,972,o),
(-654,972,cs),
(-606,972,o),
(-575,946,o),
(-550,903,cs),
(-519,849,o),
(-496,823,o),
(-445,823,cs),
(-388,823,o),
(-360,851,o),
(-360,901,c),
(-404,901,l),
(-404,881,o),
(-418,868,o),
(-442,868,cs),
(-469,868,o),
(-485,887,o),
(-485,915,cs),
(-485,952,o),
(-460,972,o),
(-416,972,cs),
(-344,972,o),
(-305,911,o),
(-265,831,c),
(-224,831,l),
(-209,891,o),
(-188,944,o),
(-156,995,c),
(-200,1015,l),
(-224,969,o),
(-241,927,o),
(-250,889,c),
(-252,889,l),
(-293,974,o),
(-349,1017,o),
(-419,1017,cs),
(-475,1017,o),
(-512,990,o),
(-524,939,c),
(-526,939,l),
(-559,992,o),
(-598,1017,o),
(-654,1017,cs),
(-724,1017,o),
(-758,977,o),
(-758,915,cs),
(-758,855,o),
(-729,823,o),
(-676,823,cs)
);
}
);
width = 0;
}
);
subCategory = Nonspacing;
unicode = 6278;
}
{
glyphname = u1887;
layers = (
{
layerId = UUID0;
shapes = (
{
closed = 1;
nodes = (
(292,74,l),
(302,219,ls),
(309,326,o),
(335,364,o),
(445,364,cs),
(868,364,l),
(820,206,l),
(904,206,l),
(976,444,l),
(444,444,ls),
(360,444,o),
(307,416,o),
(285,361,c),
(281,361,l),
(278,445,ls),
(273,575,o),
(248,653,o),
(139,653,cs),
(100,653,o),
(57,643,o),
(10,623,c),
(10,550,l),
(52,567,o),
(88,575,o),
(118,575,cs),
(180,575,o),
(194,522,o),
(200,437,cs),
(226,74,l)
);
}
);
width = 1021;
}
);
unicode = 6279;
}
{
glyphname = u1888;
layers = (
{
layerId = UUID0;
shapes = (
{
closed = 1;
nodes = (
(292,74,l),
(302,219,ls),
(309,326,o),
(335,364,o),
(445,364,cs),
(491,364,l),
(501,179,o),
(576,82,o),
(711,82,cs),
(745,82,o),
(774,90,o),
(801,107,c),
(801,190,l),
(777,173,o),
(748,165,o),
(711,165,cs),
(616,165,o),
(569,242,o),
(569,407,cs),
(569,544,o),
(626,609,o),
(718,609,cs),
(806,609,o),
(857,525,o),
(868,376,c),
(948,386,l),
(938,552,o),
(871,692,o),
(718,692,cs),
(582,692,o),
(502,595,o),
(491,444,c),
(444,444,ls),
(360,444,o),
(307,416,o),
(285,361,c),
(281,361,l),
(278,445,ls),
(273,575,o),
(248,653,o),
(139,653,cs),
(100,653,o),
(57,643,o),
(10,623,c),
(10,550,l),
(52,567,o),
(88,575,o),
(118,575,cs),
(179,575,o),
(194,520,o),
(200,437,cs),
(226,74,l)
);
}
);
width = 993;
}
);
unicode = 6280;
}
{
glyphname = u188A;
layers = (
{
layerId = UUID0;
shapes = (
{
closed = 1;
nodes = (
(629,112,l),
(572,209,o),
(538,288,o),
(538,396,cs),
(538,500,o),
(581,563,o),
(661,563,cs),
(733,563,o),
(783,499,o),
(791,364,c),
(865,364,l),
(858,516,o),
(800,646,o),
(661,646,cs),
(545,646,o),
(475,562,o),
(462,444,c),
(444,444,ls),
(360,444,o),
(307,416,o),
(285,361,c),
(281,361,l),
(278,445,ls),
(273,575,o),
(248,653,o),
(139,653,cs),
(100,653,o),
(57,643,o),
(10,623,c),
(10,550,l),
(52,567,o),
(88,575,o),
(118,575,cs),
(179,575,o),
(194,520,o),
(200,437,cs),
(226,74,l),
(292,74,l),
(302,219,ls),
(309,326,o),
(335,364,o),
(445,364,cs),
(460,364,l),
(465,271,o),
(497,173,o),
(555,70,c)
);
},
{
closed = 1;
nodes = (
(294,-129,o),
(340,-90,o),
(401,-47,c),
(340,22,l),
(300,-18,o),
(260,-67,o),
(219,-124,c),
(262,-163,l)
);
}
);
width = 910;
}
);
unicode = 6282;
}
{
glyphname = u188B;
layers = (
{
layerId = UUID0;
shapes = (
{
closed = 1;
nodes = (
(437,-164,o),
(480,-125,o),
(480,-45,cs),
(480,15,o),
(444,74,o),
(397,138,c),
(397,151,ls),
(397,221,o),
(407,292,o),
(427,364,c),
(582,364,l),
(582,444,l),
(63,444,l),
(45,364,l),
(353,364,l),
(335,305,o),
(326,240,o),
(324,170,c),
(238,170,o),
(162,166,o),
(102,128,c),
(102,43,l),
(168,85,o),
(240,90,o),
(336,90,c),
(379,30,o),
(401,-15,o),
(401,-45,cs),
(401,-68,o),
(386,-81,o),
(363,-81,cs),
(343,-81,o),
(319,-70,o),
(291,-48,c),
(291,-139,l),
(315,-156,o),
(339,-164,o),
(363,-164,cs)
);
}
);
width = 627;
}
);
unicode = 6283;
}
{
glyphname = u188C;
layers = (
{
layerId = UUID0;
shapes = (
{
closed = 1;
nodes = (
(418,107,l),
(252,364,l),
(465,364,l),
(465,444,l),
(45,444,l),
(45,364,l),
(163,364,l),
(319,122,l),
(236,42,l),
(142,207,l),
(57,207,l),
(223,-82,l)
);
}
);
width = 510;
}
);
unicode = 6284;
}
{
glyphname = u188D;
layers = (
{
layerId = UUID0;
shapes = (
{
closed = 1;
nodes = (
(594,29,l),
(632,152,o),
(683,264,o),
(747,364,c),
(747,444,l),
(90,444,l),
(59,392,o),
(45,336,o),
(45,260,cs),
(45,123,o),
(111,40,o),
(242,40,cs),
(325,40,o),
(389,75,o),
(420,147,c),
(442,102,o),
(465,63,o),
(491,29,c)
);
},
{
closed = 1;
nodes = (
(164,123,o),
(124,169,o),
(124,262,cs),
(124,303,o),
(131,336,o),
(144,364,c),
(341,364,l),
(354,333,o),
(361,295,o),
(361,251,cs),
(361,166,o),
(315,123,o),
(242,123,cs)
);
},
{
closed = 1;
nodes = (
(487,178,o),
(435,288,o),
(418,364,c),
(653,364,l),
(631,326,o),
(609,284,o),
(588,237,cs),
(567,189,o),
(550,145,o),
(536,102,c)
);
}
);
width = 792;
}
);
unicode = 6285;
}
{
glyphname = u188F;
layers = (
{
layerId = UUID0;
shapes = (
{
closed = 1;
nodes = (
(412,-119,o),
(454,-76,o),
(454,-26,cs),
(454,25,o),
(411,67,o),
(361,67,cs),
(328,67,o),
(300,50,o),
(283,25,c),
(231,105,o),
(170,262,o),
(141,364,c),
(480,364,l),
(480,444,l),
(45,444,l),
(63,350,o),
(92,251,o),
(133,149,cs),
(192,2,o),
(251,-119,o),
(361,-119,cs)
);
}
);
width = 525;
}
);
unicode = 6287;
}
{
glyphname = u1890;
layers = (
{
layerId = UUID0;
shapes = (
{
closed = 1;
nodes = (
(379,-59,o),
(437,7,o),
(437,103,cs),
(437,202,o),
(377,282,o),
(290,364,c),
(499,364,l),
(499,444,l),
(45,444,l),
(69,325,o),
(101,203,o),
(141,77,cs),
(168,-7,o),
(206,-59,o),
(294,-59,cs)
);
},
{
closed = 1;
nodes = (
(266,24,o),
(244,38,o),
(227,68,cs),
(218,84,o),
(206,122,o),
(188,181,cs),
(170,240,o),
(152,301,o),
(137,364,c),
(195,364,l),
(308,256,o),
(359,173,o),
(359,103,cs),
(359,51,o),
(330,24,o),
(294,24,cs)
);
}
);
width = 544;
}
);
unicode = 6288;
}
{
glyphname = u1891;
layers = (
{
layerId = UUID0;
shapes = (
{
closed = 1;
nodes = (
(459,62,l),
(366,246,l),
(284,246,l),
(360,95,l),
(247,28,l),
(146,364,l),
(506,364,l),
(506,444,l),
(45,444,l),
(205,-90,l)
);
}
);
width = 551;
}
);
unicode = 6289;
}
{
glyphname = u1892;
layers = (
{
layerId = UUID0;
shapes = (
{
closed = 1;
nodes = (
(375,40,o),
(451,135,o),
(451,275,cs),
(451,312,o),
(440,410,o),
(428,444,c),
(124,444,l),
(126,590,o),
(198,699,o),
(335,699,cs),
(476,699,o),
(543,567,o),
(555,409,c),
(635,419,l),
(621,614,o),
(516,782,o),
(335,782,cs),
(141,782,o),
(45,624,o),
(45,408,cs),
(45,364,l),
(362,364,l),
(369,345,o),
(372,315,o),
(372,275,cs),
(372,190,o),
(337,123,o),
(264,123,cs),
(193,123,o),
(149,172,o),
(132,269,c),
(55,269,l),
(79,116,o),
(151,40,o),
(272,40,cs)
);
}
);
width = 680;
}
);
unicode = 6290;
}
{
glyphname = u1893;
layers = (
{
layerId = UUID0;
shapes = (
{
closed = 1;
nodes = (
(407,-89,l),
(364,-55,o),
(301,-50,o),
(227,-50,cs),
(206,-50,ls),
(150,-50,o),
(122,-26,o),
(122,11,cs),
(122,68,o),
(168,81,o),
(231,81,cs),
(343,81,o),
(418,162,o),
(418,283,cs),
(418,331,o),
(409,400,o),
(397,444,c),
(124,444,l),
(126,588,o),
(194,699,o),
(330,699,cs),
(468,699,o),
(537,571,o),
(550,409,c),
(630,419,l),
(616,617,o),
(509,782,o),
(330,782,cs),
(138,782,o),
(45,624,o),
(45,408,cs),
(45,364,l),
(329,364,l),
(335,346,o),
(339,319,o),
(339,283,cs),
(339,209,o),
(298,161,o),
(231,161,cs),
(111,161,o),
(51,108,o),
(51,12,cs),
(51,-83,o),
(103,-130,o),
(206,-130,cs),
(227,-130,ls),
(301,-130,o),
(352,-134,o),
(407,-176,c)
);
}
);
width = 675;
}
);
unicode = 6291;
}
{
glyphname = u1894;
layers = (
{
layerId = UUID0;
shapes = (
{
closed = 1;
nodes = (
(150,73,l),
(134,142,o),
(124,218,o),
(124,294,cs),
(124,452,o),
(166,557,o),
(246,627,c),
(250,627,l),
(258,433,o),
(287,249,o),
(335,73,c),
(418,73,l),
(389,179,o),
(367,275,o),
(353,364,c),
(610,364,l),
(610,444,l),
(341,444,l),
(329,541,o),
(322,638,o),
(320,734,c),
(241,734,l),
(112,630,o),
(45,491,o),
(45,294,cs),
(45,229,o),
(55,141,o),
(73,73,c)
);
},
{
closed = 1;
nodes = (
(90,-129,o),
(136,-91,o),
(198,-47,c),
(137,22,l),
(98,-17,o),
(57,-66,o),
(16,-124,c),
(59,-163,l)
);
},
{
closed = 1;
nodes = (
(296,-130,o),
(342,-92,o),
(405,-47,c),
(344,22,l),
(305,-17,o),
(264,-66,o),
(223,-124,c),
(266,-163,l)
);
}
);
width = 655;
}
);
unicode = 6292;
}
{
glyphname = u1895;
layers = (
{
layerId = UUID0;
shapes = (
{
closed = 1;
nodes = (
(454,-117,o),
(508,-83,o),
(545,-14,c),
(479,27,l),
(461,-12,o),
(425,-35,o),
(382,-35,cs),
(219,-35,o),
(124,174,o),
(124,364,cs),
(124,529,o),
(208,665,o),
(359,665,cs),
(476,665,o),
(532,562,o),
(546,364,cs),
(567,74,l),
(633,74,l),
(643,219,ls),
(651,332,o),
(675,364,o),
(786,364,cs),
(863,364,l),
(863,444,l),
(785,444,ls),
(701,444,o),
(648,416,o),
(626,361,c),
(622,361,l),
(607,586,o),
(548,742,o),
(359,742,cs),
(171,742,o),
(45,570,o),
(45,364,cs),
(45,123,o),
(163,-117,o),
(382,-117,cs)
);
}
);
width = 833;
}
);
unicode = 6293;
}
{
glyphname = u1896;
layers = (
{
layerId = UUID0;
shapes = (
{
closed = 1;
nodes = (
(170,-151,o),
(208,-147,o),
(266,-147,cs),
(378,-147,o),
(447,-59,o),
(447,55,cs),
(447,151,ls),
(447,222,o),
(457,293,o),
(477,364,c),
(682,364,l),
(682,444,l),
(63,444,l),
(45,364,l),
(403,364,l),
(385,302,o),
(375,238,o),
(374,170,c),
(337,170,ls),
(239,170,o),
(160,167,o),
(102,128,c),
(102,43,l),
(167,84,o),
(236,90,o),
(337,90,cs),
(374,90,l),
(374,55,ls),
(374,-19,o),
(333,-67,o),
(266,-67,cs),
(205,-67,o),
(163,-69,o),
(127,-98,c),
(127,-178,l)
);
}
);
width = 727;
}
);
unicode = 6294;
}
{
glyphname = u1897;
layers = (
{
layerId = UUID0;
shapes = (
{
closed = 1;
nodes = (
(324,30,o),
(355,42,o),
(370,64,c),
(370,155,l),
(351,127,o),
(323,113,o),
(287,113,cs),
(184,113,o),
(124,290,o),
(124,407,cs),
(124,567,o),
(181,644,o),
(273,644,cs),
(362,644,o),
(414,573,o),
(426,409,c),
(505,419,l),
(493,591,o),
(425,727,o),
(273,727,cs),
(135,727,o),
(45,603,o),
(45,407,cs),
(45,328,o),
(66,238,o),
(104,166,cs),
(145,88,o),
(205,30,o),
(287,30,cs)
);
}
);
width = 550;
}
);
unicode = 6295;
}
{
glyphname = u1898;
layers = (
{
layerId = UUID0;
shapes = (
{
closed = 1;
nodes = (
(437,49,l),
(533,49,l),
(533,121,l),
(429,121,l),
(307,364,l),
(580,364,l),
(580,444,l),
(45,444,l),
(205,-90,l)
);
},
{
closed = 1;
nodes = (
(146,364,l),
(225,364,l),
(360,96,l),
(247,28,l)
);
}
);
width = 625;
}
);
unicode = 6296;
}
{
glyphname = u189A;
layers = (
{
layerId = UUID0;
shapes = (
{
closed = 1;
nodes = (
(299,96,l),
(289,268,o),
(258,377,o),
(206,423,c),
(214,574,o),
(272,644,o),
(362,644,cs),
(462,644,o),
(512,563,o),
(512,378,cs),
(512,279,o),
(506,185,o),
(495,96,c),
(573,96,l),
(587,192,o),
(594,281,o),
(594,364,c),
(1123,364,l),
(1123,444,l),
(591,444,l),
(573,633,o),
(497,727,o),
(362,727,cs),
(222,727,o),
(142,609,o),
(129,451,c),
(96,450,o),
(68,444,o),
(45,433,c),
(45,353,l),
(62,362,o),
(84,366,o),
(112,366,cs),
(192,366,o),
(210,233,o),
(221,96,c)
);
},
{
closed = 1;
nodes = (
(669,583,o),
(716,623,o),
(774,663,c),
(713,732,l),
(674,693,o),
(634,645,o),
(592,586,c),
(635,547,l)
);
},
{
closed = 1;
nodes = (
(992,519,o),
(1044,573,o),
(1044,638,cs),
(1044,705,o),
(990,757,o),
(925,757,cs),
(858,757,o),
(806,703,o),
(806,638,cs),
(806,571,o),
(860,519,o),
(925,519,cs)
);
},
{
closed = 1;
nodes = (
(889,569,o),
(857,595,o),
(857,638,cs),
(857,678,o),
(886,706,o),
(925,706,cs),
(965,706,o),
(994,676,o),
(994,638,cs),
(994,599,o),
(964,569,o),
(925,569,cs)
);
}
);
width = 1168;
}
);
unicode = 6298;
}
{
glyphname = u189B;
layers = (
{
layerId = UUID0;
shapes = (
{
closed = 1;
nodes = (
(292,74,l),
(302,219,ls),
(310,330,o),
(336,364,o),
(445,364,cs),
(804,364,l),
(804,444,l),
(444,444,ls),
(360,444,o),
(307,416,o),
(285,361,c),
(281,361,l),
(278,445,ls),
(273,575,o),
(248,653,o),
(139,653,cs),
(100,653,o),
(57,643,o),
(10,623,c),
(10,550,l),
(52,567,o),
(88,575,o),
(118,575,cs),
(179,575,o),
(194,520,o),
(200,437,cs),
(226,74,l)
);
},
{
closed = 1;
nodes = (
(566,49,o),
(623,99,o),
(623,168,cs),
(623,234,o),
(569,287,o),
(504,287,cs),
(442,287,o),
(385,238,o),
(385,168,cs),
(385,100,o),
(440,49,o),
(504,49,cs)
);
},
{
closed = 1;
nodes = (
(469,99,o),
(436,126,o),
(436,168,cs),
(436,207,o),
(467,236,o),
(504,236,cs),
(542,236,o),
(573,206,o),
(573,168,cs),
(573,129,o),
(543,99,o),
(504,99,cs)
);
}
);
width = 849;
}
);
unicode = 6299;
}
{
glyphname = u189D;
layers = (
{
layerId = UUID0;
shapes = (
{
closed = 1;
nodes = (
(519,73,l),
(507,127,o),
(484,225,o),
(450,364,c),
(878,364,l),
(878,444,l),
(428,444,l),
(405,527,o),
(380,610,o),
(352,694,c),
(459,694,l),
(459,756,l),
(114,756,l),
(114,694,l),
(258,694,l),
(254,672,o),
(245,632,o),
(227,559,cs),
(209,487,o),
(184,427,o),
(131,427,cs),
(105,427,o),
(76,433,o),
(45,446,c),
(45,371,l),
(74,354,o),
(104,346,o),
(135,346,cs),
(208,346,o),
(243,379,o),
(270,459,cs),
(284,501,o),
(295,544,o),
(304,590,c),
(308,590,l),
(356,458,o),
(413,231,o),
(443,73,c)
);
},
{
closed = 1;
nodes = (
(677,519,o),
(733,569,o),
(733,638,cs),
(733,704,o),
(679,757,o),
(614,757,cs),
(547,757,o),
(495,703,o),
(495,638,cs),
(495,571,o),
(549,519,o),
(614,519,cs)
);
},
{
closed = 1;
nodes = (
(578,569,o),
(546,595,o),
(546,638,cs),
(546,678,o),
(575,706,o),
(614,706,cs),
(654,706,o),
(683,676,o),
(683,638,cs),
(683,599,o),
(653,569,o),
(614,569,cs)
);
}
);
width = 923;
}
);
unicode = 6301;
}
{
glyphname = u189F;
layers = (
{
layerId = UUID0;
shapes = (
{
closed = 1;
nodes = (
(306,-31,l),
(229,109,o),
(174,241,o),
(139,364,c),
(652,364,l),
(652,444,l),
(45,444,l),
(73,275,o),
(139,110,o),
(233,-67,c)
);
},
{
closed = 1;
nodes = (
(226,519,o),
(283,569,o),
(283,638,cs),
(283,704,o),
(229,757,o),
(164,757,cs),
(102,757,o),
(45,707,o),
(45,638,cs),
(45,572,o),
(99,519,o),
(164,519,cs)
);
},
{
closed = 1;
nodes = (
(124,569,o),
(96,599,o),
(96,638,cs),
(96,674,o),
(121,706,o),
(164,706,cs),
(204,706,o),
(233,676,o),
(233,638,cs),
(233,599,o),
(203,569,o),
(164,569,cs)
);
},
{
closed = 1;
nodes = (
(516,519,o),
(573,568,o),
(573,638,cs),
(573,706,o),
(518,757,o),
(454,757,cs),
(392,757,o),
(335,707,o),
(335,638,cs),
(335,572,o),
(389,519,o),
(454,519,cs)
);
},
{
closed = 1;
nodes = (
(414,569,o),
(386,599,o),
(386,638,cs),
(386,674,o),
(411,706,o),
(454,706,cs),
(494,706,o),
(523,676,o),
(523,638,cs),
(523,599,o),
(493,569,o),
(454,569,cs)
);
}
);
width = 697;
}
);
unicode = 6303;
}
{
glyphname = u18A1;
layers = (
{
layerId = UUID0;
shapes = (
{
closed = 1;
nodes = (
(471,96,l),
(490,364,l),
(1003,364,l),
(1003,444,l),
(460,444,l),
(448,680,o),
(388,777,o),
(243,777,cs),
(122,777,o),
(45,686,o),
(45,563,cs),
(45,497,o),
(61,421,o),
(91,364,c),
(386,364,l),
(405,96,l)
);
},
{
closed = 1;
nodes = (
(132,473,o),
(124,512,o),
(124,563,cs),
(124,646,o),
(171,694,o),
(243,694,cs),
(333,694,o),
(374,616,o),
(380,444,c),
(147,444,l)
);
},
{
closed = 1;
nodes = (
(547,582,o),
(594,621,o),
(654,663,c),
(593,732,l),
(553,692,o),
(513,643,o),
(472,586,c),
(515,547,l)
);
},
{
closed = 1;
nodes = (
(872,519,o),
(924,573,o),
(924,638,cs),
(924,705,o),
(870,757,o),
(805,757,cs),
(738,757,o),
(686,703,o),
(686,638,cs),
(686,571,o),
(740,519,o),
(805,519,cs)
);
},
{
closed = 1;
nodes = (
(769,569,o),
(737,595,o),
(737,638,cs),
(737,678,o),
(766,706,o),
(805,706,cs),
(845,706,o),
(874,676,o),
(874,638,cs),
(874,599,o),
(844,569,o),
(805,569,cs)
);
}
);
width = 1048;
}
);
unicode = 6305;
}
{
glyphname = u18A3;
layers = (
{
layerId = UUID0;
shapes = (
{
closed = 1;
nodes = (
(300,66,l),
(187,364,l),
(475,364,l),
(475,444,l),
(156,444,l),
(80,646,l),
(10,646,l),
(210,66,l)
);
}
);
width = 520;
}
);
unicode = 6307;
}
{
glyphname = u18A6;
layers = (
{
layerId = UUID0;
shapes = (
{
closed = 1;
nodes = (
(307,29,l),
(345,152,o),
(396,264,o),
(460,364,c),
(460,444,l),
(45,444,l),
(54,303,o),
(117,149,o),
(204,29,c)
);
},
{
closed = 1;
nodes = (
(199,176,o),
(151,277,o),
(137,364,c),
(366,364,l),
(325,294,o),
(274,179,o),
(249,102,c)
);
}
);
width = 505;
}
);
unicode = 6310;
}
{
glyphname = u18A7;
layers = (
{
layerId = UUID0;
shapes = (
{
closed = 1;
nodes = (
(356,-73,o),
(450,0,o),
(450,133,cs),
(450,222,o),
(421,274,o),
(353,364,c),
(512,364,l),
(512,444,l),
(268,444,l),
(268,364,l),
(324,281,o),
(370,204,o),
(370,133,cs),
(370,46,o),
(310,3,o),
(217,-12,c),
(235,39,o),
(244,97,o),
(244,162,cs),
(244,295,o),
(189,444,o),
(75,444,cs),
(45,444,l),
(45,364,l),
(94,364,o),
(113,355,o),
(137,313,cs),
(160,273,o),
(170,225,o),
(170,162,cs),
(170,96,o),
(163,38,o),
(138,-24,c),
(161,-102,l)
);
}
);
width = 557;
}
);
unicode = 6311;
}
{
glyphname = u18A8;
layers = (
{
layerId = UUID0;
shapes = (
{
closed = 1;
nodes = (
(375,40,o),
(451,136,o),
(451,273,cs),
(451,310,o),
(440,410,o),
(428,444,c),
(124,444,l),
(126,590,o),
(198,699,o),
(335,699,cs),
(467,699,o),
(552,576,o),
(557,364,c),
(953,364,l),
(953,444,l),
(627,444,l),
(609,626,o),
(508,782,o),
(335,782,cs),
(141,782,o),
(45,624,o),
(45,408,cs),
(45,162,o),
(118,40,o),
(272,40,cs)
);
},
{
closed = 1;
nodes = (
(173,123,o),
(126,203,o),
(124,364,c),
(362,364,l),
(369,345,o),
(372,315,o),
(372,275,cs),
(372,190,o),
(337,123,o),
(264,123,cs)
);
},
{
closed = 1;
nodes = (
(822,519,o),
(874,573,o),
(874,638,cs),
(874,705,o),
(820,757,o),
(755,757,cs),
(688,757,o),
(636,705,o),
(636,638,cs),
(636,571,o),
(689,519,o),
(755,519,cs)
);
},
{
closed = 1;
nodes = (
(720,569,o),
(687,596,o),
(687,638,cs),
(687,677,o),
(716,706,o),
(755,706,cs),
(795,706,o),
(824,676,o),
(824,638,cs),
(824,599,o),
(794,569,o),
(755,569,cs)
);
}
);
width = 998;
}
);
unicode = 6312;
}
{
category = Mark;
glyphname = u18A9;
layers = (
{
layerId = UUID0;
shapes = (
{
closed = 1;
nodes = (
(245,-203,l),
(255,-188,o),
(260,-169,o),
(260,-146,cs),
(260,-64,o),
(216,-21,o),
(135,-21,cs),
(0,-21,l),
(0,-101,l),
(135,-101,ls),
(170,-101,o),
(183,-117,o),
(183,-146,cs),
(183,-167,o),
(179,-187,o),
(171,-203,c)
);
}
);
width = 0;
}
);
subCategory = Nonspacing;
unicode = 6313;
}
{
glyphname = u18AA;
layers = (
{
layerId = UUID0;
shapes = (
{
closed = 1;
nodes = (
(292,74,l),
(302,219,ls),
(310,330,o),
(336,364,o),
(445,364,cs),
(673,364,l),
(673,444,l),
(444,444,ls),
(360,444,o),
(307,416,o),
(285,361,c),
(281,361,l),
(278,445,ls),
(276,500,o),
(270,542,o),
(259,573,c),
(266,640,o),
(292,698,o),
(339,766,c),
(339,832,l),
(219,832,ls),
(151,832,o),
(86,835,o),
(39,868,c),
(39,790,l),
(80,754,o),
(142,752,o),
(219,752,cs),
(247,752,l),
(228,723,o),
(212,686,o),
(200,642,c),
(182,649,o),
(162,653,o),
(139,653,cs),
(100,653,o),
(57,643,o),
(10,623,c),
(10,550,l),
(52,567,o),
(88,575,o),
(118,575,cs),
(179,575,o),
(194,520,o),
(200,437,cs),
(226,74,l)
);
},
{
closed = 1;
nodes = (
(537,519,o),
(594,568,o),
(594,638,cs),
(594,706,o),
(539,757,o),
(475,757,cs),
(413,757,o),
(356,707,o),
(356,638,cs),
(356,572,o),
(410,519,o),
(475,519,cs)
);
},
{
closed = 1;
nodes = (
(435,569,o),
(407,599,o),
(407,638,cs),
(407,674,o),
(432,706,o),
(475,706,cs),
(515,706,o),
(544,676,o),
(544,638,cs),
(544,599,o),
(514,569,o),
(475,569,cs)
);
}
);
width = 718;
}
);
unicode = 6314;
}
{
glyphname = endash;
layers = (
{
layerId = UUID0;
shapes = (
{
closed = 1;
nodes = (
(460,365,l),
(460,443,l),
(40,443,l),
(40,365,l)
);
}
);
width = 500;
}
);
unicode = 8211;
}
{
glyphname = emdash;
layers = (
{
layerId = UUID0;
shapes = (
{
closed = 1;
nodes = (
(960,365,l),
(960,443,l),
(40,443,l),
(40,365,l)
);
}
);
width = 1000;
}
);
unicode = 8212;
}
{
glyphname = quotedblleft;
layers = (
{
layerId = UUID0;
shapes = (
{
closed = 1;
nodes = (
(140,507,l),
(213,474,o),
(305,438,o),
(375,420,c),
(386,427,l),
(386,522,l),
(317,532,o),
(218,553,o),
(140,572,c)
);
},
{
closed = 1;
nodes = (
(140,323,l),
(213,290,o),
(305,255,o),
(375,237,c),
(386,243,l),
(386,337,l),
(317,347,o),
(218,368,o),
(140,387,c)
);
}
);
vertOrigin = 550;
vertWidth = 1100;
width = 406;
}
);
unicode = 8220;
}
{
glyphname = u2048;
layers = (
{
layerId = UUID0;
shapes = (
{
closed = 1;
nodes = (
(623,268,l),
(680,268,l),
(705,781,l),
(598,781,l)
);
},
{
closed = 1;
nodes = (
(589,73,o),
(616,53,o),
(651,53,cs),
(685,53,o),
(713,73,o),
(713,121,cs),
(713,164,o),
(690,188,o),
(651,188,cs),
(616,188,o),
(589,170,o),
(589,121,cs)
);
},
{
closed = 1;
nodes = (
(155,671,l),
(216,700,o),
(253,713,o),
(315,713,cs),
(394,713,o),
(436,677,o),
(436,613,cs),
(436,553,o),
(406,522,o),
(336,464,cs),
(300,434,o),
(278,406,o),
(268,383,cs),
(258,360,o),
(252,331,o),
(252,294,cs),
(252,267,l),
(322,267,l),
(322,284,ls),
(322,314,o),
(327,338,o),
(338,356,cs),
(349,374,o),
(370,397,o),
(402,424,cs),
(474,485,o),
(520,524,o),
(520,615,cs),
(520,727,o),
(444,790,o),
(321,790,cs),
(252,790,o),
(186,774,o),
(124,741,c)
);
},
{
closed = 1;
nodes = (
(229,72,o),
(255,52,o),
(291,52,cs),
(324,52,o),
(352,72,o),
(352,120,cs),
(352,164,o),
(330,187,o),
(291,187,cs),
(250,187,o),
(229,165,o),
(229,120,cs)
);
}
);
width = 988;
}
);
unicode = 8264;
}
{
glyphname = u2049;
layers = (
{
layerId = UUID0;
shapes = (
{
closed = 1;
nodes = (
(276,259,l),
(333,259,l),
(358,772,l),
(251,772,l)
);
},
{
closed = 1;
nodes = (
(242,64,o),
(269,44,o),
(304,44,cs),
(338,44,o),
(366,64,o),
(366,112,cs),
(366,155,o),
(343,179,o),
(304,179,cs),
(269,179,o),
(242,161,o),
(242,112,cs)
);
},
{
closed = 1;
nodes = (
(443,662,l),
(504,691,o),
(541,704,o),
(603,704,cs),
(682,704,o),
(724,668,o),
(724,604,cs),
(724,544,o),
(694,513,o),
(624,455,cs),
(588,425,o),
(566,397,o),
(556,374,cs),
(546,351,o),
(540,322,o),
(540,285,cs),
(540,258,l),
(610,258,l),
(610,275,ls),
(610,305,o),
(615,329,o),
(626,347,cs),
(637,365,o),
(658,388,o),
(690,415,cs),
(762,476,o),
(808,515,o),
(808,606,cs),
(808,718,o),
(732,781,o),
(609,781,cs),
(540,781,o),
(474,765,o),
(412,732,c)
);
},
{
closed = 1;
nodes = (
(517,63,o),
(543,43,o),
(579,43,cs),
(612,43,o),
(640,63,o),
(640,111,cs),
(640,155,o),
(618,178,o),
(579,178,cs),
(538,178,o),
(517,156,o),
(517,111,cs)
);
}
);
width = 988;
}
);
unicode = 8265;
}
{
glyphname = u2460;
layers = (
{
layerId = UUID0;
shapes = (
{
closed = 1;
nodes = (
(50,127,o),
(275,-96,o),
(550,-96,cs),
(826,-96,o),
(1050,129,o),
(1050,404,cs),
(1050,682,o),
(824,904,o),
(550,904,cs),
(278,904,o),
(50,683,o),
(50,404,cs)
);
},
{
closed = 1;
nodes = (
(399,528,l),
(462,576,o),
(498,604,o),
(505,610,cs),
(514,617,o),
(521,623,o),
(530,632,c),
(528,606,o),
(527,568,o),
(527,519,cs),
(527,83,l),
(613,83,l),
(613,725,l),
(540,725,l),
(354,585,l)
);
},
{
closed = 1;
nodes = (
(100,653,o),
(301,854,o),
(550,854,cs),
(799,854,o),
(1000,652,o),
(1000,404,cs),
(1000,155,o),
(797,-46,o),
(550,-46,cs),
(305,-46,o),
(100,152,o),
(100,404,cs)
);
}
);
vertOrigin = 500;
vertWidth = 1100;
width = 1100;
}
);
unicode = 9312;
}
{
glyphname = u2461;
layers = (
{
layerId = UUID0;
shapes = (
{
closed = 1;
nodes = (
(328,83,l),
(778,83,l),
(778,162,l),
(439,162,l),
(439,165,l),
(576,290,ls),
(679,384,o),
(751,460,o),
(751,563,cs),
(751,675,o),
(664,735,o),
(546,735,cs),
(465,735,o),
(400,709,o),
(335,656,c),
(382,598,l),
(434,636,o),
(481,660,o),
(545,660,cs),
(610,660,o),
(662,628,o),
(662,557,cs),
(662,470,o),
(601,413,o),
(505,322,cs),
(328,153,l)
);
},
{
closed = 1;
nodes = (
(50,127,o),
(275,-96,o),
(550,-96,cs),
(826,-96,o),
(1050,129,o),
(1050,404,cs),
(1050,682,o),
(824,904,o),
(550,904,cs),
(278,904,o),
(50,683,o),
(50,404,cs)
);
},
{
closed = 1;
nodes = (
(100,653,o),
(301,854,o),
(550,854,cs),
(799,854,o),
(1000,652,o),
(1000,404,cs),
(1000,155,o),
(797,-46,o),
(550,-46,cs),
(305,-46,o),
(100,152,o),
(100,404,cs)
);
}
);
vertOrigin = 500;
vertWidth = 1100;
width = 1100;
}
);
unicode = 9313;
}
{
glyphname = u2462;
layers = (
{
layerId = UUID0;
shapes = (
{
closed = 1;
nodes = (
(327,109,l),
(383,82,o),
(442,74,o),
(514,74,cs),
(663,74,o),
(775,131,o),
(775,266,cs),
(775,351,o),
(722,405,o),
(613,418,c),
(613,421,l),
(700,438,o),
(754,488,o),
(754,576,cs),
(754,682,o),
(668,735,o),
(543,735,cs),
(451,735,o),
(379,705,o),
(331,669,c),
(374,608,l),
(434,644,o),
(478,661,o),
(543,661,cs),
(619,661,o),
(665,627,o),
(665,567,cs),
(665,498,o),
(609,451,o),
(496,451,cs),
(431,451,l),
(431,378,l),
(495,378,ls),
(616,378,o),
(683,345,o),
(683,269,cs),
(683,187,o),
(627,147,o),
(514,147,cs),
(450,147,o),
(387,161,o),
(327,189,c)
);
},
{
closed = 1;
nodes = (
(50,127,o),
(275,-96,o),
(550,-96,cs),
(826,-96,o),
(1050,129,o),
(1050,404,cs),
(1050,682,o),
(824,904,o),
(550,904,cs),
(278,904,o),
(50,683,o),
(50,404,cs)
);
},
{
closed = 1;
nodes = (
(100,653,o),
(301,854,o),
(550,854,cs),
(799,854,o),
(1000,652,o),
(1000,404,cs),
(1000,155,o),
(797,-46,o),
(550,-46,cs),
(305,-46,o),
(100,152,o),
(100,404,cs)
);
}
);
vertOrigin = 500;
vertWidth = 1100;
width = 1100;
}
);
unicode = 9314;
}
{
glyphname = u2463;
layers = (
{
layerId = UUID0;
shapes = (
{
closed = 1;
nodes = (
(554,559,ls),
(566,575,o),
(580,598,o),
(595,629,c),
(599,629,l),
(596,584,o),
(594,537,o),
(594,487,cs),
(594,302,l),
(357,302,l)
);
},
{
closed = 1;
nodes = (
(272,226,l),
(594,226,l),
(594,83,l),
(679,83,l),
(679,226,l),
(777,226,l),
(777,302,l),
(679,302,l),
(679,725,l),
(590,725,l),
(272,298,l)
);
},
{
closed = 1;
nodes = (
(50,127,o),
(275,-96,o),
(550,-96,cs),
(826,-96,o),
(1050,129,o),
(1050,404,cs),
(1050,682,o),
(824,904,o),
(550,904,cs),
(278,904,o),
(50,683,o),
(50,404,cs)
);
},
{
closed = 1;
nodes = (
(100,653,o),
(301,854,o),
(550,854,cs),
(799,854,o),
(1000,652,o),
(1000,404,cs),
(1000,155,o),
(797,-46,o),
(550,-46,cs),
(305,-46,o),
(100,152,o),
(100,404,cs)
);
}
);
vertOrigin = 500;
vertWidth = 1100;
width = 1100;
}
);
unicode = 9315;
}
{
glyphname = u2464;
layers = (
{
layerId = UUID0;
shapes = (
{
closed = 1;
nodes = (
(343,109,l),
(388,86,o),
(446,74,o),
(519,74,cs),
(671,74,o),
(774,148,o),
(774,290,cs),
(774,414,o),
(685,480,o),
(547,480,cs),
(516,480,o),
(482,476,o),
(444,470,c),
(460,646,l),
(727,646,l),
(727,725,l),
(385,725,l),
(359,418,l),
(402,393,l),
(448,402,o),
(486,406,o),
(517,406,cs),
(634,406,o),
(684,363,o),
(684,281,cs),
(684,197,o),
(625,148,o),
(520,148,cs),
(467,148,o),
(392,163,o),
(343,191,c)
);
},
{
closed = 1;
nodes = (
(50,127,o),
(275,-96,o),
(550,-96,cs),
(826,-96,o),
(1050,129,o),
(1050,404,cs),
(1050,682,o),
(824,904,o),
(550,904,cs),
(278,904,o),
(50,683,o),
(50,404,cs)
);
},
{
closed = 1;
nodes = (
(100,653,o),
(301,854,o),
(550,854,cs),
(799,854,o),
(1000,652,o),
(1000,404,cs),
(1000,155,o),
(797,-46,o),
(550,-46,cs),
(305,-46,o),
(100,152,o),
(100,404,cs)
);
}
);
vertOrigin = 500;
vertWidth = 1100;
width = 1100;
}
);
unicode = 9316;
}
{
glyphname = u2465;
layers = (
{
layerId = UUID0;
shapes = (
{
closed = 1;
nodes = (
(304,193,o),
(383,74,o),
(536,74,cs),
(666,74,o),
(753,153,o),
(753,291,cs),
(753,414,o),
(679,488,o),
(556,488,cs),
(487,488,o),
(432,465,o),
(397,412,c),
(391,412,l),
(398,574,o),
(462,664,o),
(619,664,cs),
(650,664,o),
(677,661,o),
(701,653,c),
(701,728,l),
(682,732,o),
(654,735,o),
(617,735,cs),
(394,735,o),
(304,593,o),
(304,357,cs)
);
},
{
closed = 1;
nodes = (
(393,364,o),
(456,419,o),
(538,419,cs),
(624,419,o),
(666,371,o),
(666,291,cs),
(666,199,o),
(620,147,o),
(535,147,cs),
(450,147,o),
(393,220,o),
(393,306,c)
);
},
{
closed = 1;
nodes = (
(50,127,o),
(275,-96,o),
(550,-96,cs),
(826,-96,o),
(1050,129,o),
(1050,404,cs),
(1050,682,o),
(824,904,o),
(550,904,cs),
(278,904,o),
(50,683,o),
(50,404,cs)
);
},
{
closed = 1;
nodes = (
(100,653,o),
(301,854,o),
(550,854,cs),
(799,854,o),
(1000,652,o),
(1000,404,cs),
(1000,155,o),
(797,-46,o),
(550,-46,cs),
(305,-46,o),
(100,152,o),
(100,404,cs)
);
}
);
vertOrigin = 500;
vertWidth = 1100;
width = 1100;
}
);
unicode = 9317;
}
{
glyphname = u2466;
layers = (
{
layerId = UUID0;
shapes = (
{
closed = 1;
nodes = (
(319,646,l),
(682,646,l),
(406,83,l),
(502,83,l),
(776,660,l),
(776,725,l),
(319,725,l)
);
},
{
closed = 1;
nodes = (
(50,127,o),
(275,-96,o),
(550,-96,cs),
(826,-96,o),
(1050,129,o),
(1050,404,cs),
(1050,682,o),
(824,904,o),
(550,904,cs),
(278,904,o),
(50,683,o),
(50,404,cs)
);
},
{
closed = 1;
nodes = (
(100,653,o),
(301,854,o),
(550,854,cs),
(799,854,o),
(1000,652,o),
(1000,404,cs),
(1000,155,o),
(797,-46,o),
(550,-46,cs),
(305,-46,o),
(100,152,o),
(100,404,cs)
);
}
);
vertOrigin = 500;
vertWidth = 1100;
width = 1100;
}
);
unicode = 9318;
}
{
glyphname = u2467;
layers = (
{
layerId = UUID0;
shapes = (
{
closed = 1;
nodes = (
(431,637,o),
(485,666,o),
(548,666,cs),
(620,666,o),
(667,634,o),
(667,578,cs),
(667,530,o),
(637,492,o),
(553,459,c),
(483,486,o),
(431,519,o),
(431,578,cs)
);
},
{
closed = 1;
nodes = (
(324,139,o),
(404,74,o),
(552,74,cs),
(678,74,o),
(775,135,o),
(775,251,cs),
(775,334,o),
(713,384,o),
(625,424,c),
(717,469,o),
(754,518,o),
(754,581,cs),
(754,682,o),
(667,735,o),
(549,735,cs),
(437,735,o),
(346,683,o),
(346,582,cs),
(346,511,o),
(388,462,o),
(464,420,c),
(374,382,o),
(324,321,o),
(324,248,cs)
);
},
{
closed = 1;
nodes = (
(410,312,o),
(454,350,o),
(536,384,c),
(645,342,o),
(690,309,o),
(690,250,cs),
(690,186,o),
(642,143,o),
(550,143,cs),
(469,143,o),
(410,177,o),
(410,248,cs)
);
},
{
closed = 1;
nodes = (
(50,127,o),
(275,-96,o),
(550,-96,cs),
(826,-96,o),
(1050,129,o),
(1050,404,cs),
(1050,682,o),
(824,904,o),
(550,904,cs),
(278,904,o),
(50,683,o),
(50,404,cs)
);
},
{
closed = 1;
nodes = (
(100,653,o),
(301,854,o),
(550,854,cs),
(799,854,o),
(1000,652,o),
(1000,404,cs),
(1000,155,o),
(797,-46,o),
(550,-46,cs),
(305,-46,o),
(100,152,o),
(100,404,cs)
);
}
);
vertOrigin = 500;
vertWidth = 1100;
width = 1100;
}
);
unicode = 9319;
}
{
glyphname = u2468;
layers = (
{
layerId = UUID0;
shapes = (
{
closed = 1;
nodes = (
(415,610,o),
(461,662,o),
(546,662,cs),
(631,662,o),
(688,588,o),
(688,504,cs),
(688,439,o),
(619,391,o),
(542,391,cs),
(456,391,o),
(415,439,o),
(415,518,cs)
);
},
{
closed = 1;
nodes = (
(328,395,o),
(403,322,o),
(522,322,cs),
(592,322,o),
(649,345,o),
(683,396,c),
(689,396,l),
(683,223,o),
(607,145,o),
(461,145,cs),
(434,145,o),
(406,149,o),
(377,157,c),
(377,83,l),
(396,77,o),
(425,74,o),
(463,74,cs),
(687,74,o),
(777,216,o),
(777,452,cs),
(777,612,o),
(702,735,o),
(546,735,cs),
(411,735,o),
(328,651,o),
(328,517,cs)
);
},
{
closed = 1;
nodes = (
(50,127,o),
(275,-96,o),
(550,-96,cs),
(826,-96,o),
(1050,129,o),
(1050,404,cs),
(1050,682,o),
(824,904,o),
(550,904,cs),
(278,904,o),
(50,683,o),
(50,404,cs)
);
},
{
closed = 1;
nodes = (
(100,653,o),
(301,854,o),
(550,854,cs),
(799,854,o),
(1000,652,o),
(1000,404,cs),
(1000,155,o),
(797,-46,o),
(550,-46,cs),
(305,-46,o),
(100,152,o),
(100,404,cs)
);
}
);
vertOrigin = 500;
vertWidth = 1100;
width = 1100;
}
);
unicode = 9320;
}
{
glyphname = u2469;
layers = (
{
layerId = UUID0;
shapes = (
{
closed = 1;
nodes = (
(231,508,l),
(287,556,o),
(317,583,o),
(321,587,cs),
(326,592,o),
(330,596,o),
(334,601,c),
(332,577,o),
(331,542,o),
(331,498,cs),
(331,119,l),
(414,119,l),
(414,690,l),
(345,690,l),
(189,562,l)
);
},
{
closed = 1;
nodes = (
(506,244,o),
(550,111,o),
(687,111,cs),
(812,111,o),
(869,208,o),
(869,405,cs),
(869,561,o),
(827,699,o),
(687,699,cs),
(544,699,o),
(506,571,o),
(506,405,cs)
);
},
{
closed = 1;
nodes = (
(590,554,o),
(615,628,o),
(687,628,cs),
(759,628,o),
(784,554,o),
(784,405,cs),
(784,254,o),
(759,182,o),
(687,182,cs),
(615,182,o),
(590,255,o),
(590,405,cs)
);
},
{
closed = 1;
nodes = (
(50,127,o),
(275,-96,o),
(550,-96,cs),
(826,-96,o),
(1050,129,o),
(1050,404,cs),
(1050,682,o),
(824,904,o),
(550,904,cs),
(278,904,o),
(50,683,o),
(50,404,cs)
);
},
{
closed = 1;
nodes = (
(100,653,o),
(301,854,o),
(550,854,cs),
(799,854,o),
(1000,652,o),
(1000,404,cs),
(1000,155,o),
(797,-46,o),
(550,-46,cs),
(305,-46,o),
(100,152,o),
(100,404,cs)
);
}
);
vertOrigin = 500;
vertWidth = 1100;
width = 1100;
}
);
unicode = 9321;
}
{
glyphname = u246A;
layers = (
{
layerId = UUID0;
shapes = (
{
closed = 1;
nodes = (
(261,508,l),
(318,557,o),
(348,584,o),
(352,588,cs),
(356,592,o),
(361,597,o),
(364,601,c),
(362,577,o),
(361,542,o),
(361,498,cs),
(361,119,l),
(444,119,l),
(444,690,l),
(375,690,l),
(219,562,l)
);
},
{
closed = 1;
nodes = (
(50,127,o),
(275,-96,o),
(550,-96,cs),
(826,-96,o),
(1050,129,o),
(1050,404,cs),
(1050,682,o),
(824,904,o),
(550,904,cs),
(278,904,o),
(50,683,o),
(50,404,cs)
);
},
{
closed = 1;
nodes = (
(100,653,o),
(301,854,o),
(550,854,cs),
(799,854,o),
(1000,652,o),
(1000,404,cs),
(1000,155,o),
(797,-46,o),
(550,-46,cs),
(305,-46,o),
(100,152,o),
(100,404,cs)
);
},
{
closed = 1;
nodes = (
(601,508,l),
(658,557,o),
(688,584,o),
(692,588,cs),
(696,592,o),
(701,597,o),
(704,601,c),
(702,577,o),
(701,542,o),
(701,498,cs),
(701,119,l),
(784,119,l),
(784,690,l),
(715,690,l),
(559,562,l)
);
}
);
vertOrigin = 500;
vertWidth = 1100;
width = 1100;
}
);
unicode = 9322;
}
{
glyphname = u246B;
layers = (
{
layerId = UUID0;
shapes = (
{
closed = 1;
nodes = (
(231,508,l),
(287,556,o),
(317,583,o),
(321,587,cs),
(326,592,o),
(330,596,o),
(334,601,c),
(332,577,o),
(331,542,o),
(331,498,cs),
(331,119,l),
(414,119,l),
(414,690,l),
(345,690,l),
(189,562,l)
);
},
{
closed = 1;
nodes = (
(503,119,l),
(865,119,l),
(865,194,l),
(609,194,l),
(609,198,l),
(705,301,ls),
(792,395,o),
(846,459,o),
(846,545,cs),
(846,643,o),
(779,699,o),
(681,699,cs),
(614,699,o),
(565,679,o),
(506,628,c),
(552,572,l),
(593,607,o),
(629,627,o),
(678,627,cs),
(727,627,o),
(761,597,o),
(761,538,cs),
(761,467,o),
(719,419,o),
(641,334,c),
(503,185,l)
);
},
{
closed = 1;
nodes = (
(50,127,o),
(275,-96,o),
(550,-96,cs),
(826,-96,o),
(1050,129,o),
(1050,404,cs),
(1050,682,o),
(824,904,o),
(550,904,cs),
(278,904,o),
(50,683,o),
(50,404,cs)
);
},
{
closed = 1;
nodes = (
(100,653,o),
(301,854,o),
(550,854,cs),
(799,854,o),
(1000,652,o),
(1000,404,cs),
(1000,155,o),
(797,-46,o),
(550,-46,cs),
(305,-46,o),
(100,152,o),
(100,404,cs)
);
}
);
vertOrigin = 500;
vertWidth = 1100;
width = 1100;
}
);
unicode = 9323;
}
{
glyphname = u246C;
layers = (
{
layerId = UUID0;
shapes = (
{
closed = 1;
nodes = (
(221,508,l),
(277,556,o),
(307,583,o),
(312,588,cs),
(324,601,l),
(322,579,o),
(321,544,o),
(321,498,cs),
(321,119,l),
(404,119,l),
(404,690,l),
(335,690,l),
(179,562,l)
);
},
{
closed = 1;
nodes = (
(492,142,l),
(533,121,o),
(583,111,o),
(642,111,cs),
(761,111,o),
(851,164,o),
(851,283,cs),
(851,359,o),
(809,408,o),
(723,418,c),
(723,421,l),
(790,436,o),
(835,481,o),
(835,559,cs),
(835,650,o),
(770,699,o),
(664,699,cs),
(599,699,o),
(542,680,o),
(494,641,c),
(535,583,l),
(570,608,o),
(606,629,o),
(662,629,cs),
(721,629,o),
(751,599,o),
(751,548,cs),
(751,482,o),
(708,449,o),
(622,449,cs),
(574,449,l),
(574,380,l),
(621,380,ls),
(718,380,o),
(763,350,o),
(763,286,cs),
(763,220,o),
(729,181,o),
(638,181,cs),
(591,181,o),
(537,194,o),
(492,219,c)
);
},
{
closed = 1;
nodes = (
(50,127,o),
(275,-96,o),
(550,-96,cs),
(826,-96,o),
(1050,129,o),
(1050,404,cs),
(1050,682,o),
(824,904,o),
(550,904,cs),
(278,904,o),
(50,683,o),
(50,404,cs)
);
},
{
closed = 1;
nodes = (
(100,653,o),
(301,854,o),
(550,854,cs),
(799,854,o),
(1000,652,o),
(1000,404,cs),
(1000,155,o),
(797,-46,o),
(550,-46,cs),
(305,-46,o),
(100,152,o),
(100,404,cs)
);
}
);
vertOrigin = 500;
vertWidth = 1100;
width = 1100;
}
);
unicode = 9324;
}
{
glyphname = u246D;
layers = (
{
layerId = UUID0;
shapes = (
{
closed = 1;
nodes = (
(221,508,l),
(277,556,o),
(307,583,o),
(312,588,cs),
(324,601,l),
(322,579,o),
(321,544,o),
(321,498,cs),
(321,119,l),
(404,119,l),
(404,690,l),
(335,690,l),
(179,562,l)
);
},
{
closed = 1;
nodes = (
(672,534,ls),
(683,552,o),
(693,573,o),
(704,597,c),
(707,597,l),
(705,566,o),
(703,524,o),
(703,471,cs),
(703,317,l),
(535,317,l)
);
},
{
closed = 1;
nodes = (
(457,245,l),
(703,245,l),
(703,119,l),
(785,119,l),
(785,245,l),
(857,245,l),
(857,317,l),
(785,317,l),
(785,690,l),
(702,690,l),
(457,312,l)
);
},
{
closed = 1;
nodes = (
(50,127,o),
(275,-96,o),
(550,-96,cs),
(826,-96,o),
(1050,129,o),
(1050,404,cs),
(1050,682,o),
(824,904,o),
(550,904,cs),
(278,904,o),
(50,683,o),
(50,404,cs)
);
},
{
closed = 1;
nodes = (
(100,653,o),
(301,854,o),
(550,854,cs),
(799,854,o),
(1000,652,o),
(1000,404,cs),
(1000,155,o),
(797,-46,o),
(550,-46,cs),
(305,-46,o),
(100,152,o),
(100,404,cs)
);
}
);
vertOrigin = 500;
vertWidth = 1100;
width = 1100;
}
);
unicode = 9325;
}
{
glyphname = u246E;
layers = (
{
layerId = UUID0;
shapes = (
{
closed = 1;
nodes = (
(218,508,l),
(274,556,o),
(304,583,o),
(308,587,cs),
(313,592,o),
(317,596,o),
(321,601,c),
(319,577,o),
(318,542,o),
(318,498,cs),
(318,119,l),
(401,119,l),
(401,690,l),
(332,690,l),
(176,562,l)
);
},
{
closed = 1;
nodes = (
(504,142,l),
(537,121,o),
(584,111,o),
(645,111,cs),
(778,111,o),
(850,183,o),
(850,304,cs),
(850,411,o),
(781,474,o),
(674,474,cs),
(639,474,o),
(613,469,o),
(597,465,c),
(609,615,l),
(813,615,l),
(813,690,l),
(536,690,l),
(516,414,l),
(554,391,l),
(579,398,o),
(615,403,o),
(641,403,cs),
(724,403,o),
(765,368,o),
(765,296,cs),
(765,218,o),
(719,182,o),
(644,182,cs),
(600,182,o),
(541,198,o),
(504,220,c)
);
},
{
closed = 1;
nodes = (
(50,127,o),
(275,-96,o),
(550,-96,cs),
(826,-96,o),
(1050,129,o),
(1050,404,cs),
(1050,682,o),
(824,904,o),
(550,904,cs),
(278,904,o),
(50,683,o),
(50,404,cs)
);
},
{
closed = 1;
nodes = (
(100,653,o),
(301,854,o),
(550,854,cs),
(799,854,o),
(1000,652,o),
(1000,404,cs),
(1000,155,o),
(797,-46,o),
(550,-46,cs),
(305,-46,o),
(100,152,o),
(100,404,cs)
);
}
);
vertOrigin = 500;
vertWidth = 1100;
width = 1100;
}
);
unicode = 9326;
}
{
glyphname = u246F;
layers = (
{
layerId = UUID0;
shapes = (
{
closed = 1;
nodes = (
(222,508,l),
(278,556,o),
(308,583,o),
(313,588,cs),
(325,601,l),
(323,579,o),
(322,544,o),
(322,498,cs),
(322,119,l),
(405,119,l),
(405,690,l),
(336,690,l),
(180,562,l)
);
},
{
closed = 1;
nodes = (
(491,222,o),
(551,111,o),
(678,111,cs),
(788,111,o),
(853,185,o),
(853,305,cs),
(853,412,o),
(798,481,o),
(699,481,cs),
(644,481,o),
(603,458,o),
(576,414,c),
(572,414,l),
(579,546,o),
(619,630,o),
(749,630,cs),
(775,630,o),
(797,627,o),
(814,621,c),
(814,692,l),
(798,697,o),
(775,699,o),
(745,699,cs),
(560,699,o),
(491,566,o),
(491,363,cs)
);
},
{
closed = 1;
nodes = (
(576,371,o),
(624,414,o),
(679,414,cs),
(742,414,o),
(771,372,o),
(771,304,cs),
(771,220,o),
(733,181,o),
(677,181,cs),
(612,181,o),
(576,248,o),
(576,317,cs)
);
},
{
closed = 1;
nodes = (
(50,127,o),
(275,-96,o),
(550,-96,cs),
(826,-96,o),
(1050,129,o),
(1050,404,cs),
(1050,682,o),
(824,904,o),
(550,904,cs),
(278,904,o),
(50,683,o),
(50,404,cs)
);
},
{
closed = 1;
nodes = (
(100,653,o),
(301,854,o),
(550,854,cs),
(799,854,o),
(1000,652,o),
(1000,404,cs),
(1000,155,o),
(797,-46,o),
(550,-46,cs),
(305,-46,o),
(100,152,o),
(100,404,cs)
);
}
);
vertOrigin = 500;
vertWidth = 1100;
width = 1100;
}
);
unicode = 9327;
}
{
glyphname = u2470;
layers = (
{
layerId = UUID0;
shapes = (
{
closed = 1;
nodes = (
(231,488,l),
(287,536,o),
(317,563,o),
(321,567,cs),
(326,572,o),
(330,576,o),
(334,581,c),
(332,557,o),
(331,522,o),
(331,478,cs),
(331,99,l),
(414,99,l),
(414,670,l),
(345,670,l),
(189,542,l)
);
},
{
closed = 1;
nodes = (
(483,595,l),
(762,595,l),
(550,99,l),
(640,99,l),
(852,609,l),
(852,670,l),
(483,670,l)
);
},
{
closed = 1;
nodes = (
(50,127,o),
(275,-96,o),
(550,-96,cs),
(826,-96,o),
(1050,129,o),
(1050,404,cs),
(1050,682,o),
(824,904,o),
(550,904,cs),
(278,904,o),
(50,683,o),
(50,404,cs)
);
},
{
closed = 1;
nodes = (
(100,653,o),
(301,854,o),
(550,854,cs),
(799,854,o),
(1000,652,o),
(1000,404,cs),
(1000,155,o),
(797,-46,o),
(550,-46,cs),
(305,-46,o),
(100,152,o),
(100,404,cs)
);
}
);
vertOrigin = 500;
vertWidth = 1100;
width = 1100;
}
);
unicode = 9328;
}
{
glyphname = u2471;
layers = (
{
layerId = UUID0;
shapes = (
{
closed = 1;
nodes = (
(221,508,l),
(277,556,o),
(307,583,o),
(312,588,cs),
(324,601,l),
(322,579,o),
(321,544,o),
(321,498,cs),
(321,119,l),
(404,119,l),
(404,690,l),
(335,690,l),
(179,562,l)
);
},
{
closed = 1;
nodes = (
(587,606,o),
(621,633,o),
(670,633,cs),
(721,633,o),
(754,606,o),
(754,558,cs),
(754,511,o),
(728,483,o),
(672,456,c),
(618,483,o),
(587,509,o),
(587,558,cs)
);
},
{
closed = 1;
nodes = (
(489,168,o),
(553,111,o),
(672,111,cs),
(777,111,o),
(852,168,o),
(852,267,cs),
(852,331,o),
(815,379,o),
(735,422,c),
(798,456,o),
(835,499,o),
(835,562,cs),
(835,648,o),
(770,699,o),
(670,699,cs),
(578,699,o),
(506,650,o),
(506,563,cs),
(506,501,o),
(535,458,o),
(597,418,c),
(525,382,o),
(489,331,o),
(489,264,cs)
);
},
{
closed = 1;
nodes = (
(569,321,o),
(603,355,o),
(661,383,c),
(736,349,o),
(772,319,o),
(772,267,cs),
(772,214,o),
(738,177,o),
(670,177,cs),
(602,177,o),
(569,215,o),
(569,266,cs)
);
},
{
closed = 1;
nodes = (
(50,127,o),
(275,-96,o),
(550,-96,cs),
(826,-96,o),
(1050,129,o),
(1050,404,cs),
(1050,682,o),
(824,904,o),
(550,904,cs),
(278,904,o),
(50,683,o),
(50,404,cs)
);
},
{
closed = 1;
nodes = (
(100,653,o),
(301,854,o),
(550,854,cs),
(799,854,o),
(1000,652,o),
(1000,404,cs),
(1000,155,o),
(797,-46,o),
(550,-46,cs),
(305,-46,o),
(100,152,o),
(100,404,cs)
);
}
);
vertOrigin = 500;
vertWidth = 1100;
width = 1100;
}
);
unicode = 9329;
}
{
glyphname = u2472;
layers = (
{
layerId = UUID0;
shapes = (
{
closed = 1;
nodes = (
(231,508,l),
(287,556,o),
(317,583,o),
(321,587,cs),
(326,592,o),
(330,596,o),
(334,601,c),
(332,577,o),
(331,542,o),
(331,498,cs),
(331,119,l),
(414,119,l),
(414,690,l),
(345,690,l),
(189,562,l)
);
},
{
closed = 1;
nodes = (
(580,589,o),
(618,629,o),
(674,629,cs),
(740,629,o),
(776,564,o),
(776,493,cs),
(776,438,o),
(728,396,o),
(672,396,cs),
(609,396,o),
(580,437,o),
(580,505,cs)
);
},
{
closed = 1;
nodes = (
(498,398,o),
(552,329,o),
(651,329,cs),
(707,329,o),
(750,352,o),
(775,396,c),
(779,396,l),
(772,263,o),
(730,179,o),
(602,179,cs),
(576,179,o),
(554,183,o),
(536,189,c),
(536,118,l),
(552,114,o),
(575,111,o),
(606,111,cs),
(793,111,o),
(860,243,o),
(860,447,cs),
(860,606,o),
(785,699,o),
(673,699,cs),
(563,699,o),
(498,623,o),
(498,504,cs)
);
},
{
closed = 1;
nodes = (
(50,127,o),
(275,-96,o),
(550,-96,cs),
(826,-96,o),
(1050,129,o),
(1050,404,cs),
(1050,682,o),
(824,904,o),
(550,904,cs),
(278,904,o),
(50,683,o),
(50,404,cs)
);
},
{
closed = 1;
nodes = (
(100,653,o),
(301,854,o),
(550,854,cs),
(799,854,o),
(1000,652,o),
(1000,404,cs),
(1000,155,o),
(797,-46,o),
(550,-46,cs),
(305,-46,o),
(100,152,o),
(100,404,cs)
);
}
);
vertOrigin = 500;
vertWidth = 1100;
width = 1100;
}
);
unicode = 9330;
}
{
glyphname = u2473;
layers = (
{
layerId = UUID0;
shapes = (
{
closed = 1;
nodes = (
(215,129,l),
(534,129,l),
(534,205,l),
(321,205,l),
(321,209,l),
(398,308,o),
(444,368,o),
(458,389,cs),
(493,441,o),
(519,494,o),
(519,556,cs),
(519,648,o),
(464,709,o),
(374,709,cs),
(313,709,o),
(266,689,o),
(216,637,c),
(262,581,l),
(298,616,o),
(330,636,o),
(369,636,cs),
(408,636,o),
(434,606,o),
(434,549,cs),
(434,476,o),
(397,424,o),
(332,343,cs),
(215,196,l)
);
},
{
closed = 1;
nodes = (
(562,261,o),
(599,121,o),
(732,121,cs),
(851,121,o),
(903,222,o),
(903,415,cs),
(903,572,o),
(864,709,o),
(732,709,cs),
(596,709,o),
(562,578,o),
(562,415,cs)
);
},
{
closed = 1;
nodes = (
(646,565,o),
(668,638,o),
(732,638,cs),
(796,638,o),
(818,565,o),
(818,415,cs),
(818,266,o),
(796,192,o),
(732,192,cs),
(668,192,o),
(646,266,o),
(646,415,cs)
);
},
{
closed = 1;
nodes = (
(50,127,o),
(275,-96,o),
(550,-96,cs),
(826,-96,o),
(1050,129,o),
(1050,404,cs),
(1050,682,o),
(824,904,o),
(550,904,cs),
(278,904,o),
(50,683,o),
(50,404,cs)
);
},
{
closed = 1;
nodes = (
(100,653,o),
(301,854,o),
(550,854,cs),
(799,854,o),
(1000,652,o),
(1000,404,cs),
(1000,155,o),
(797,-46,o),
(550,-46,cs),
(305,-46,o),
(100,152,o),
(100,404,cs)
);
}
);
vertOrigin = 500;
vertWidth = 1100;
width = 1100;
}
);
unicode = 9331;
}
{
glyphname = dottedcircle;
layers = (
{
anchors = (
{
name = bottom;
pos = (299,-4);
},
{
name = top;
pos = (294,596);
}
);
layerId = UUID0;
shapes = (
{
closed = 1;
nodes = (
(520,349,o),
(529,358,o),
(529,376,cs),
(529,393,o),
(520,402,o),
(503,402,cs),
(485,402,o),
(476,393,o),
(476,376,cs),
(476,358,o),
(485,349,o),
(502,349,cs)
);
},
{
closed = 1;
nodes = (
(158,107,o),
(167,116,o),
(167,133,cs),
(167,151,o),
(158,160,o),
(140,160,cs),
(123,160,o),
(114,151,o),
(114,133,cs),
(114,116,o),
(123,107,o),
(140,107,cs)
);
},
{
closed = 1;
nodes = (
(109,180,o),
(118,189,o),
(118,206,cs),
(118,224,o),
(109,233,o),
(92,233,cs),
(74,233,o),
(65,224,o),
(65,206,cs),
(65,189,o),
(74,180,o),
(92,180,cs)
);
},
{
closed = 1;
nodes = (
(230,60,o),
(239,69,o),
(239,87,cs),
(239,104,o),
(230,112,o),
(212,112,cs),
(195,112,o),
(186,103,o),
(186,85,cs),
(186,68,o),
(195,60,o),
(212,60,cs)
);
},
{
closed = 1;
nodes = (
(92,265,o),
(101,274,o),
(101,291,cs),
(101,308,o),
(92,317,o),
(75,317,cs),
(57,317,o),
(48,308,o),
(48,291,cs),
(48,274,o),
(57,265,o),
(75,265,cs)
);
},
{
closed = 1;
nodes = (
(314,42,o),
(323,51,o),
(323,69,cs),
(323,86,o),
(314,95,o),
(297,95,cs),
(280,95,o),
(271,86,o),
(271,69,cs),
(271,51,o),
(280,42,o),
(297,42,cs)
);
},
{
closed = 1;
nodes = (
(110,349,o),
(118,358,o),
(118,376,cs),
(118,393,o),
(109,402,o),
(92,402,cs),
(74,402,o),
(65,393,o),
(65,376,cs),
(65,358,o),
(74,349,o),
(93,349,cs)
);
},
{
closed = 1;
nodes = (
(400,60,o),
(408,68,o),
(408,85,cs),
(408,103,o),
(400,112,o),
(383,112,cs),
(364,112,o),
(355,103,o),
(355,85,cs),
(355,68,o),
(364,60,o),
(383,60,cs)
);
},
{
closed = 1;
nodes = (
(472,107,o),
(480,116,o),
(480,133,cs),
(480,151,o),
(472,160,o),
(455,160,cs),
(437,160,o),
(428,151,o),
(428,133,cs),
(428,116,o),
(437,107,o),
(455,107,cs)
);
},
{
closed = 1;
nodes = (
(158,422,o),
(167,431,o),
(167,448,cs),
(167,466,o),
(158,475,o),
(140,475,cs),
(123,475,o),
(114,466,o),
(114,447,cs),
(114,430,o),
(123,422,o),
(140,422,cs)
);
},
{
closed = 1;
nodes = (
(230,470,o),
(239,479,o),
(239,496,cs),
(239,514,o),
(230,523,o),
(212,523,cs),
(195,523,o),
(186,514,o),
(186,496,cs),
(186,479,o),
(195,470,o),
(212,470,cs)
);
},
{
closed = 1;
nodes = (
(520,180,o),
(529,189,o),
(529,206,cs),
(529,224,o),
(520,233,o),
(502,233,cs),
(485,233,o),
(476,224,o),
(476,206,cs),
(476,189,o),
(485,180,o),
(502,180,cs)
);
},
{
closed = 1;
nodes = (
(314,487,o),
(323,496,o),
(323,514,cs),
(323,531,o),
(314,540,o),
(297,540,cs),
(280,540,o),
(271,531,o),
(271,514,cs),
(271,496,o),
(280,487,o),
(297,487,cs)
);
},
{
closed = 1;
nodes = (
(538,265,o),
(546,274,o),
(546,291,cs),
(546,308,o),
(538,317,o),
(521,317,cs),
(503,317,o),
(494,308,o),
(494,291,cs),
(494,274,o),
(503,265,o),
(521,265,cs)
);
},
{
closed = 1;
nodes = (
(400,470,o),
(408,479,o),
(408,496,cs),
(408,514,o),
(400,523,o),
(383,523,cs),
(364,523,o),
(355,514,o),
(355,496,cs),
(355,479,o),
(364,470,o),
(383,470,cs)
);
},
{
closed = 1;
nodes = (
(472,422,o),
(480,431,o),
(480,448,cs),
(480,466,o),
(472,475,o),
(455,475,cs),
(437,475,o),
(428,466,o),
(428,448,cs),
(428,431,o),
(437,422,o),
(455,422,cs)
);
}
);
width = 594;
}
);
unicode = 9676;
}
{
glyphname = u3001;
layers = (
{
layerId = UUID0;
shapes = (
{
closed = 1;
nodes = (
(342,351,o),
(397,399,o),
(458,443,c),
(397,512,l),
(339,455,o),
(291,396,o),
(250,336,c),
(293,297,l)
);
}
);
width = 458;
}
);
unicode = 12289;
}
{
glyphname = u3002;
layers = (
{
layerId = UUID0;
shapes = (
{
closed = 1;
nodes = (
(436,285,o),
(488,337,o),
(488,404,cs),
(488,472,o),
(434,523,o),
(369,523,cs),
(302,523,o),
(250,469,o),
(250,404,cs),
(250,337,o),
(304,285,o),
(369,285,cs)
);
},
{
closed = 1;
nodes = (
(333,335,o),
(301,361,o),
(301,404,cs),
(301,441,o),
(326,472,o),
(369,472,cs),
(409,472,o),
(438,442,o),
(438,404,cs),
(438,365,o),
(408,335,o),
(369,335,cs)
);
}
);
width = 488;
}
);
unicode = 12290;
}
{
glyphname = u300A;
layers = (
{
layerId = UUID0;
shapes = (
{
closed = 1;
nodes = (
(544,27,l),
(344,404,l),
(544,781,l),
(465,781,l),
(265,404,l),
(465,27,l)
);
},
{
closed = 1;
nodes = (
(369,27,l),
(169,404,l),
(369,781,l),
(290,781,l),
(90,404,l),
(290,27,l)
);
}
);
vertOrigin = 550;
vertWidth = 1100;
width = 604;
}
);
unicode = 12298;
}
{
glyphname = u300C;
layers = (
{
layerId = UUID0;
shapes = (
{
closed = 1;
nodes = (
(166,306,l),
(166,761,l),
(358,761,l),
(358,831,l),
(100,831,l),
(100,306,l)
);
}
);
vertOrigin = 550;
vertWidth = 1100;
width = 418;
}
);
unicode = 12300;
}
{
glyphname = u300D;
layers = (
{
layerId = UUID0;
shapes = (
{
closed = 1;
nodes = (
(318,-23,l),
(318,502,l),
(252,502,l),
(252,47,l),
(60,47,l),
(60,-23,l)
);
}
);
vertOrigin = 550;
vertWidth = 1100;
width = 418;
}
);
unicode = 12301;
}
{
glyphname = u300F;
layers = (
{
layerId = UUID0;
shapes = (
{
closed = 1;
nodes = (
(348,-23,l),
(348,502,l),
(252,502,l),
(252,77,l),
(60,77,l),
(60,-23,l)
);
},
{
closed = 1;
nodes = (
(84,53,l),
(276,53,l),
(276,478,l),
(324,478,l),
(324,1,l),
(84,1,l)
);
}
);
vertOrigin = 550;
vertWidth = 1100;
width = 448;
}
);
unicode = 12303;
}
{
glyphname = uFE3E;
layers = (
{
layerId = UUID0;
shapes = (
{
closed = 1;
nodes = (
(350,27,l),
(550,404,l),
(350,781,l),
(271,781,l),
(471,404,l),
(271,27,l)
);
},
{
closed = 1;
nodes = (
(175,27,l),
(375,404,l),
(175,781,l),
(96,781,l),
(296,404,l),
(96,27,l)
);
}
);
width = 610;
}
);
unicode = 65086;
}
{
glyphname = uFE41;
layers = (
{
layerId = UUID0;
shapes = (
{
closed = 1;
nodes = (
(166,306,l),
(166,761,l),
(358,761,l),
(358,831,l),
(100,831,l),
(100,306,l)
);
}
);
width = 418;
}
);
unicode = 65089;
}
{
glyphname = uFE42;
layers = (
{
layerId = UUID0;
shapes = (
{
closed = 1;
nodes = (
(318,-23,l),
(318,502,l),
(252,502,l),
(252,47,l),
(60,47,l),
(60,-23,l)
);
}
);
width = 418;
}
);
unicode = 65090;
}
{
glyphname = uFE43;
layers = (
{
layerId = UUID0;
shapes = (
{
closed = 1;
nodes = (
(196,306,l),
(196,731,l),
(388,731,l),
(388,831,l),
(100,831,l),
(100,306,l)
);
},
{
closed = 1;
nodes = (
(124,807,l),
(364,807,l),
(364,755,l),
(172,755,l),
(172,330,l),
(124,330,l)
);
}
);
width = 448;
}
);
unicode = 65091;
}
{
glyphname = u11664;
layers = (
{
layerId = UUID0;
shapes = (
{
closed = 1;
nodes = (
(261,-99,l),
(379,53,o),
(474,212,o),
(474,363,cs),
(474,508,o),
(400,611,o),
(263,611,cs),
(140,611,o),
(60,525,o),
(60,393,cs),
(60,297,o),
(107,227,o),
(200,182,c),
(240,251,l),
(172,283,o),
(138,331,o),
(138,393,cs),
(138,482,o),
(187,531,o),
(263,531,cs),
(350,531,o),
(396,467,o),
(396,363,cs),
(396,217,o),
(291,68,o),
(165,-99,c)
);
},
{
closed = 1;
nodes = (
(569,151,l),
(609,202,o),
(636,278,o),
(636,368,cs),
(636,458,o),
(609,534,o),
(569,585,c),
(485,585,l),
(534,528,o),
(558,456,o),
(558,368,cs),
(558,281,o),
(534,208,o),
(485,151,c)
);
},
{
closed = 1;
nodes = (
(731,151,l),
(771,202,o),
(798,278,o),
(798,368,cs),
(798,458,o),
(771,534,o),
(731,585,c),
(647,585,l),
(696,528,o),
(720,456,o),
(720,368,cs),
(720,281,o),
(696,208,o),
(647,151,c)
);
}
);
width = 858;
}
);
unicode = 71268;
}
{
glyphname = u11665;
layers = (
{
layerId = UUID0;
shapes = (
{
closed = 1;
nodes = (
(865,181,l),
(905,232,o),
(932,288,o),
(932,368,cs),
(932,448,o),
(905,504,o),
(865,555,c),
(781,555,l),
(830,498,o),
(854,446,o),
(854,368,cs),
(854,291,o),
(830,238,o),
(781,181,c)
);
},
{
ref = u11661;
}
);
width = 992;
}
);
unicode = 71269;
}
{
glyphname = u11666;
layers = (
{
layerId = UUID0;
shapes = (
{
closed = 1;
nodes = (
(1027,181,l),
(1067,232,o),
(1094,288,o),
(1094,368,cs),
(1094,448,o),
(1067,504,o),
(1027,555,c),
(943,555,l),
(992,498,o),
(1016,446,o),
(1016,368,cs),
(1016,291,o),
(992,238,o),
(943,181,c)
);
},
{
ref = u11665;
}
);
width = 1154;
}
);
unicode = 71270;
}
{
glyphname = u11667;
layers = (
{
layerId = UUID0;
shapes = (
{
closed = 1;
nodes = (
(293,484,o),
(396,305,o),
(396,154,cs),
(396,55,o),
(351,-19,o),
(258,-19,cs),
(188,-19,o),
(138,25,o),
(138,108,cs),
(138,176,o),
(172,229,o),
(240,261,c),
(200,330,l),
(107,285,o),
(60,206,o),
(60,110,cs),
(60,-22,o),
(141,-99,o),
(258,-99,cs),
(401,-99,o),
(474,14,o),
(474,154,cs),
(474,310,o),
(379,479,o),
(261,611,c),
(165,611,l)
);
}
);
width = 534;
}
);
unicode = 71271;
}
{
glyphname = u11668;
layers = (
{
layerId = UUID0;
shapes = (
{
closed = 1;
nodes = (
(569,-73,l),
(609,-22,o),
(636,54,o),
(636,144,cs),
(636,234,o),
(609,310,o),
(569,361,c),
(485,361,l),
(534,304,o),
(558,232,o),
(558,144,cs),
(558,57,o),
(534,-16,o),
(485,-73,c)
);
},
{
closed = 1;
nodes = (
(731,-73,l),
(771,-22,o),
(798,54,o),
(798,144,cs),
(798,234,o),
(771,310,o),
(731,361,c),
(647,361,l),
(696,304,o),
(720,232,o),
(720,144,cs),
(720,57,o),
(696,-16,o),
(647,-73,c)
);
},
{
ref = u11667;
}
);
width = 858;
}
);
unicode = 71272;
}
{
glyphname = u11669;
layers = (
{
layerId = UUID0;
shapes = (
{
closed = 1;
nodes = (
(368,169,l),
(362,113,o),
(337,53,o),
(260,53,cs),
(183,53,o),
(138,112,o),
(138,229,cs),
(138,347,o),
(191,479,o),
(246,570,c),
(150,570,l),
(92,463,o),
(60,342,o),
(60,238,cs),
(60,84,o),
(131,-27,o),
(260,-27,cs),
(363,-27,o),
(445,43,o),
(446,169,c)
);
},
{
closed = 1;
nodes = (
(340,389,l),
(338,454,o),
(368,506,o),
(453,506,cs),
(522,506,o),
(570,476,o),
(570,339,cs),
(570,241,o),
(548,123,o),
(471,-1,c),
(561,-1,l),
(623,106,o),
(648,246,o),
(648,339,cs),
(648,504,o),
(573,586,o),
(453,586,cs),
(342,586,o),
(262,516,o),
(262,389,c)
);
}
);
width = 708;
}
);
unicode = 71273;
}
{
glyphname = u1166A;
layers = (
{
layerId = UUID0;
shapes = (
{
closed = 1;
nodes = (
(646,570,l),
(696,506,o),
(730,421,o),
(730,303,cs),
(730,202,o),
(707,94,o),
(650,-1,c),
(740,-1,l),
(796,97,o),
(808,210,o),
(808,302,cs),
(808,436,o),
(774,513,o),
(736,570,c)
);
},
{
ref = u11669;
}
);
width = 858;
}
);
unicode = 71274;
}
{
glyphname = u1166B;
layers = (
{
layerId = UUID0;
shapes = (
{
closed = 1;
nodes = (
(808,570,l),
(858,506,o),
(892,421,o),
(892,303,cs),
(892,202,o),
(869,94,o),
(812,-1,c),
(902,-1,l),
(958,97,o),
(970,210,o),
(970,302,cs),
(970,436,o),
(936,513,o),
(898,570,c)
);
},
{
ref = u1166A;
}
);
width = 1030;
}
);
unicode = 71275;
}
{
export = 0;
glyphname = LeftTail;
layers = (
{
layerId = UUID0;
shapes = (
{
closed = 1;
nodes = (
(128,-264,l),
(114,-238,o),
(107,-213,o),
(107,-187,cs),
(107,-127,o),
(123,-97,o),
(174,-31,cs),
(210,16,o),
(243,62,o),
(267,107,cs),
(292,154,o),
(307,199,o),
(307,245,cs),
(307,373,o),
(229,444,o),
(76,444,cs),
(0,444,l),
(0,364,l),
(75,364,ls),
(181,364,o),
(229,325,o),
(229,245,cs),
(229,203,o),
(217,167,o),
(188,121,cs),
(172,96,o),
(150,64,o),
(122,28,cs),
(64,-47,o),
(27,-111,o),
(27,-187,cs),
(27,-216,o),
(33,-242,o),
(46,-264,c)
);
}
);
width = 352;
}
);
}
{
export = 0;
glyphname = MongolianDot;
layers = (
{
layerId = UUID0;
shapes = (
{
closed = 1;
nodes = (
(102,-128,o),
(148,-90,o),
(208,-47,c),
(147,22,l),
(108,-17,o),
(68,-65,o),
(26,-124,c),
(69,-163,l)
);
}
);
width = 208;
}
);
}
{
export = 0;
glyphname = MongolianRing;
layers = (
{
layerId = UUID0;
shapes = (
{
closed = 1;
nodes = (
(225,-211,o),
(277,-157,o),
(277,-92,cs),
(277,-25,o),
(223,27,o),
(158,27,cs),
(91,27,o),
(39,-27,o),
(39,-92,cs),
(39,-159,o),
(93,-211,o),
(158,-211,cs)
);
},
{
closed = 1;
nodes = (
(122,-161,o),
(90,-135,o),
(90,-92,cs),
(90,-52,o),
(119,-24,o),
(158,-24,cs),
(198,-24,o),
(227,-54,o),
(227,-92,cs),
(227,-131,o),
(197,-161,o),
(158,-161,cs)
);
}
);
width = 317;
}
);
}
{
glyphname = .notdef;
layers = (
{
layerId = UUID0;
shapes = (
{
closed = 1;
nodes = (
(505,0,l),
(505,714,l),
(94,714,l),
(94,0,l)
);
},
{
closed = 1;
nodes = (
(145,663,l),
(454,663,l),
(454,51,l),
(145,51,l)
);
}
);
width = 600;
}
);
}
{
glyphname = emdash.v;
layers = (
{
layerId = UUID0;
shapes = (
{
closed = 1;
nodes = (
(211,-166,l),
(289,-166,l),
(289,754,l),
(211,754,l)
);
}
);
vertOrigin = 550;
vertWidth = 1100;
width = 1004;
}
);
}
{
glyphname = endash.v;
layers = (
{
layerId = UUID0;
shapes = (
{
closed = 1;
nodes = (
(211,194,l),
(289,194,l),
(289,614,l),
(211,614,l)
);
}
);
vertOrigin = 550;
vertWidth = 1100;
width = 500;
}
);
}
{
glyphname = exclam.v;
layers = (
{
layerId = UUID0;
shapes = (
{
closed = 1;
nodes = (
(213,255,l),
(270,255,l),
(295,768,l),
(188,768,l)
);
},
{
closed = 1;
nodes = (
(179,60,o),
(206,40,o),
(241,40,cs),
(275,40,o),
(303,60,o),
(303,108,cs),
(303,151,o),
(280,175,o),
(241,175,cs),
(206,175,o),
(179,157,o),
(179,108,cs)
);
}
);
vertOrigin = 550;
vertWidth = 1100;
width = 988;
}
);
}
{
glyphname = parenleft.v;
layers = (
{
layerId = UUID0;
shapes = (
{
closed = 1;
nodes = (
(102,319,o),
(-54,273,o),
(-175,172,c),
(-175,89,l),
(-50,182,o),
(106,230,o),
(264,230,cs),
(419,230,o),
(572,182,o),
(697,90,c),
(697,172,l),
(580,273,o),
(426,319,o),
(265,319,cs)
);
}
);
vertOrigin = 550;
vertWidth = 1100;
width = 992;
}
);
}
{
glyphname = parenright.v;
layers = (
{
layerId = UUID0;
shapes = (
{
closed = 1;
nodes = (
(426,78,o),
(580,124,o),
(697,225,c),
(697,307,l),
(572,215,o),
(419,167,o),
(264,167,cs),
(106,167,o),
(-50,215,o),
(-175,308,c),
(-175,225,l),
(-54,124,o),
(102,78,o),
(265,78,cs)
);
}
);
vertOrigin = 550;
vertWidth = 1100;
width = 992;
}
);
}
{
glyphname = question.v;
layers = (
{
layerId = UUID0;
shapes = (
{
closed = 1;
nodes = (
(106,661,l),
(167,690,o),
(204,703,o),
(266,703,cs),
(345,703,o),
(387,667,o),
(387,603,cs),
(387,543,o),
(357,512,o),
(287,454,cs),
(251,424,o),
(229,396,o),
(219,373,cs),
(209,350,o),
(203,321,o),
(203,284,cs),
(203,257,l),
(273,257,l),
(273,274,ls),
(273,304,o),
(278,328,o),
(289,346,cs),
(300,364,o),
(321,387,o),
(353,414,cs),
(425,475,o),
(471,514,o),
(471,605,cs),
(471,717,o),
(395,780,o),
(272,780,cs),
(203,780,o),
(137,764,o),
(75,731,c)
);
},
{
closed = 1;
nodes = (
(180,62,o),
(206,42,o),
(242,42,cs),
(275,42,o),
(303,62,o),
(303,110,cs),
(303,154,o),
(281,177,o),
(242,177,cs),
(201,177,o),
(180,155,o),
(180,110,cs)
);
}
);
vertOrigin = 550;
vertWidth = 1100;
width = 988;
}
);
}
{
glyphname = quotedbl.v;
layers = (
{
layerId = UUID0;
shapes = (
{
closed = 1;
nodes = (
(130,265,l),
(388,285,l),
(388,340,l),
(130,360,l)
);
},
{
closed = 1;
nodes = (
(130,448,l),
(388,468,l),
(388,523,l),
(130,543,l)
);
}
);
vertOrigin = 550;
vertWidth = 1100;
width = 418;
}
);
}
{
glyphname = quotedblright.v;
layers = (
{
layerId = UUID0;
shapes = (
{
closed = 1;
nodes = (
(140,471,l),
(211,461,o),
(311,439,o),
(386,420,c),
(386,486,l),
(315,518,o),
(223,554,o),
(151,572,c),
(140,565,l)
);
},
{
closed = 1;
nodes = (
(140,286,l),
(211,276,o),
(311,256,o),
(386,237,c),
(386,301,l),
(315,333,o),
(223,369,o),
(151,387,c),
(140,380,l)
);
}
);
vertOrigin = 550;
vertWidth = 1100;
width = 406;
}
);
}
{
export = 0;
glyphname = tail;
layers = (
{
layerId = UUID0;
shapes = (
{
closed = 1;
nodes = (
(180,162,l),
(197,199,o),
(205,238,o),
(205,279,cs),
(205,389,o),
(146,444,o),
(30,444,cs),
(0,444,l),
(0,364,l),
(30,364,ls),
(101,364,o),
(128,333,o),
(128,279,cs),
(128,235,o),
(121,196,o),
(106,162,c)
);
}
);
width = 250;
}
);
}
{
glyphname = u1800.V1;
layers = (
{
layerId = UUID0;
shapes = (
{
closed = 1;
nodes = (
(261,-99,l),
(379,53,o),
(474,212,o),
(474,363,cs),
(474,508,o),
(400,611,o),
(263,611,cs),
(140,611,o),
(60,525,o),
(60,393,cs),
(60,297,o),
(107,227,o),
(200,182,c),
(240,251,l),
(172,283,o),
(138,331,o),
(138,393,cs),
(138,482,o),
(187,531,o),
(263,531,cs),
(350,531,o),
(396,467,o),
(396,363,cs),
(396,217,o),
(291,68,o),
(165,-99,c)
);
},
{
closed = 1;
nodes = (
(569,151,l),
(609,202,o),
(636,278,o),
(636,368,cs),
(636,458,o),
(609,534,o),
(569,585,c),
(485,585,l),
(534,528,o),
(558,456,o),
(558,368,cs),
(558,281,o),
(534,208,o),
(485,151,c)
);
}
);
width = 696;
}
);
}
{
glyphname = u1800.V2;
layers = (
{
layerId = UUID0;
shapes = (
{
closed = 1;
nodes = (
(668,159,o),
(770,233,o),
(770,370,cs),
(770,491,o),
(684,573,o),
(552,573,cs),
(456,573,o),
(386,526,o),
(341,433,c),
(410,393,l),
(443,461,o),
(490,495,o),
(552,495,cs),
(642,495,o),
(690,446,o),
(690,370,cs),
(690,284,o),
(626,237,o),
(522,237,cs),
(381,237,o),
(222,342,o),
(60,468,c),
(60,372,l),
(215,254,o),
(371,159,o),
(522,159,cs)
);
}
);
width = 830;
}
);
}
{
glyphname = u1800.V3;
layers = (
{
layerId = UUID0;
shapes = (
{
closed = 1;
nodes = (
(251,-205,l),
(347,-88,o),
(434,32,o),
(434,147,cs),
(434,228,o),
(410,288,o),
(360,328,c),
(404,372,o),
(434,435,o),
(434,496,cs),
(434,622,o),
(367,710,o),
(243,710,cs),
(134,710,o),
(60,637,o),
(60,520,cs),
(60,467,o),
(84,421,o),
(134,383,c),
(182,441,l),
(151,462,o),
(138,493,o),
(138,520,cs),
(138,592,o),
(179,630,o),
(243,630,cs),
(316,630,o),
(356,579,o),
(356,496,cs),
(356,441,o),
(337,399,o),
(291,360,c),
(276,363,o),
(260,365,o),
(243,365,cs),
(136,365,o),
(60,294,o),
(60,177,cs),
(60,98,o),
(93,39,o),
(160,1,c),
(210,65,l),
(162,90,o),
(138,127,o),
(138,177,cs),
(138,249,o),
(179,285,o),
(243,285,cs),
(316,285,o),
(356,233,o),
(356,147,cs),
(356,40,o),
(258,-86,o),
(155,-205,c)
);
},
{
closed = 1;
nodes = (
(529,-45,l),
(574,7,o),
(596,71,o),
(596,148,cs),
(596,213,o),
(574,271,o),
(529,321,c),
(569,366,o),
(596,418,o),
(596,494,cs),
(596,574,o),
(569,640,o),
(529,683,c),
(445,683,l),
(494,631,o),
(518,573,o),
(518,494,cs),
(518,419,o),
(494,368,o),
(445,321,c),
(494,276,o),
(518,219,o),
(518,148,cs),
(518,68,o),
(494,4,o),
(445,-45,c)
);
}
);
width = 656;
}
);
}
{
glyphname = u1800.V4;
layers = (
{
layerId = UUID0;
shapes = (
{
closed = 1;
nodes = (
(251,-240,l),
(330,-158,o),
(394,-71,o),
(394,20,cs),
(394,82,o),
(374,128,o),
(332,159,c),
(370,197,o),
(394,250,o),
(394,300,cs),
(394,363,o),
(373,411,o),
(330,443,c),
(369,482,o),
(394,536,o),
(394,586,cs),
(394,693,o),
(327,760,o),
(223,760,cs),
(128,760,o),
(60,701,o),
(60,600,cs),
(60,559,o),
(77,522,o),
(111,491,c),
(169,540,l),
(148,557,o),
(138,577,o),
(138,600,cs),
(138,652,o),
(172,680,o),
(223,680,cs),
(283,680,o),
(316,645,o),
(316,586,cs),
(316,539,o),
(298,503,o),
(256,472,c),
(246,473,o),
(234,474,o),
(223,474,cs),
(128,474,o),
(60,415,o),
(60,314,cs),
(60,277,o),
(76,237,o),
(111,205,c),
(169,254,l),
(148,271,o),
(138,291,o),
(138,314,cs),
(138,366,o),
(172,394,o),
(223,394,cs),
(283,394,o),
(316,359,o),
(316,300,cs),
(316,255,o),
(300,220,o),
(257,187,c),
(247,188,o),
(235,189,o),
(223,189,cs),
(128,189,o),
(60,130,o),
(60,29,cs),
(60,-39,o),
(93,-87,o),
(160,-117,c),
(200,-49,l),
(159,-30,o),
(138,-4,o),
(138,29,cs),
(138,80,o),
(172,109,o),
(223,109,cs),
(283,109,o),
(316,77,o),
(316,20,cs),
(316,-67,o),
(247,-141,o),
(155,-240,c)
);
},
{
closed = 1;
nodes = (
(489,-151,l),
(529,-108,o),
(556,-60,o),
(556,12,cs),
(556,69,o),
(534,116,o),
(489,155,c),
(529,191,o),
(556,234,o),
(556,298,cs),
(556,355,o),
(534,402,o),
(489,441,c),
(529,477,o),
(556,520,o),
(556,584,cs),
(556,641,o),
(534,688,o),
(489,727,c),
(405,727,l),
(454,690,o),
(478,643,o),
(478,584,cs),
(478,521,o),
(454,480,o),
(405,441,c),
(454,404,o),
(478,357,o),
(478,298,cs),
(478,235,o),
(454,194,o),
(405,155,c),
(454,118,o),
(478,71,o),
(478,12,cs),
(478,-59,o),
(454,-107,o),
(405,-151,c)
);
}
);
width = 616;
}
);
}
{
glyphname = u1807.med;
layers = (
{
layerId = UUID0;
shapes = (
{
closed = 1;
nodes = (
(185,96,l),
(204,364,l),
(414,364,l),
(414,444,l),
(0,444,l),
(0,364,l),
(100,364,l),
(119,96,l)
);
}
);
width = 384;
}
);
}
{
glyphname = u1820.V1;
layers = (
{
layerId = UUID0;
shapes = (
{
closed = 1;
nodes = (
(600,-264,l),
(586,-240,o),
(579,-214,o),
(579,-187,cs),
(579,-124,o),
(598,-93,o),
(646,-31,cs),
(722,67,o),
(779,153,o),
(779,245,cs),
(779,373,o),
(702,444,o),
(548,444,cs),
(444,444,ls),
(360,444,o),
(307,416,o),
(285,361,c),
(281,361,l),
(278,445,ls),
(273,575,o),
(248,653,o),
(139,653,cs),
(100,653,o),
(57,643,o),
(10,623,c),
(10,550,l),
(52,567,o),
(88,575,o),
(118,575,cs),
(179,575,o),
(194,520,o),
(200,437,cs),
(226,74,l),
(292,74,l),
(302,219,ls),
(310,330,o),
(336,364,o),
(445,364,cs),
(547,364,ls),
(654,364,o),
(701,325,o),
(701,245,cs),
(701,175,o),
(657,112,o),
(594,28,cs),
(538,-46,o),
(499,-112,o),
(499,-187,cs),
(499,-217,o),
(505,-243,o),
(518,-264,c)
);
}
);
width = 824;
}
);
}
{
glyphname = u1820.fin;
layers = (
{
layerId = UUID0;
shapes = (
{
closed = 1;
nodes = (
(228,156,ls),
(228,299,o),
(245,429,o),
(277,547,cs),
(309,666,o),
(357,762,o),
(417,836,c),
(325,836,l),
(273,768,o),
(231,674,o),
(199,555,cs),
(167,435,o),
(151,302,o),
(151,156,c),
(58,210,o),
(41,312,o),
(41,444,c),
(-33,444,l),
(-33,364,ls),
(-33,206,o),
(67,63,o),
(228,53,c)
);
}
);
width = 427;
}
);
}
{
glyphname = u1820.finV1;
layers = (
{
layerId = UUID0;
shapes = (
{
closed = 1;
nodes = (
(246,-264,l),
(232,-240,o),
(225,-214,o),
(225,-187,cs),
(225,-125,o),
(244,-91,o),
(292,-31,cs),
(340,29,o),
(374,82,o),
(394,123,cs),
(415,165,o),
(425,206,o),
(425,245,cs),
(425,373,o),
(348,444,o),
(194,444,cs),
(118,444,l),
(100,364,l),
(193,364,ls),
(300,364,o),
(347,325,o),
(347,245,cs),
(347,214,o),
(339,183,o),
(323,152,cs),
(307,121,o),
(280,80,o),
(240,28,cs),
(183,-46,o),
(145,-112,o),
(145,-187,cs),
(145,-217,o),
(151,-243,o),
(164,-264,c)
);
}
);
width = 470;
}
);
}
{
glyphname = u1820.ini;
layers = (
{
layerId = UUID0;
shapes = (
{
closed = 1;
nodes = (
(292,74,l),
(302,219,ls),
(309,326,o),
(335,364,o),
(445,364,cs),
(502,364,l),
(521,96,l),
(587,96,l),
(606,364,l),
(816,364,l),
(816,444,l),
(444,444,ls),
(360,444,o),
(307,416,o),
(285,361,c),
(281,361,l),
(278,445,ls),
(273,575,o),
(248,653,o),
(139,653,cs),
(100,653,o),
(57,643,o),
(10,623,c),
(10,550,l),
(52,567,o),
(88,575,o),
(118,575,cs),
(179,575,o),
(194,520,o),
(200,437,cs),
(226,74,l)
);
}
);
width = 786;
}
);
}
{
glyphname = u1820.iniV1;
layers = (
{
layerId = UUID0;
shapes = (
{
closed = 1;
nodes = (
(292,74,l),
(302,219,ls),
(310,329,o),
(337,364,o),
(445,364,cs),
(522,364,l),
(522,444,l),
(444,444,ls),
(360,444,o),
(307,416,o),
(285,361,c),
(281,361,l),
(278,445,ls),
(273,575,o),
(248,653,o),
(139,653,cs),
(100,653,o),
(57,643,o),
(10,623,c),
(10,550,l),
(52,567,o),
(88,575,o),
(118,575,cs),
(180,575,o),
(194,522,o),
(200,437,cs),
(226,74,l)
);
}
);
width = 492;
}
);
}
{
glyphname = u1820.med;
layers = (
{
layerId = UUID0;
shapes = (
{
closed = 1;
nodes = (
(85,96,l),
(104,364,l),
(314,364,l),
(314,444,l),
(0,444,l),
(0,364,l),
(19,96,l)
);
}
);
width = 284;
}
);
}
{
glyphname = u1820.medV1;
layers = (
{
layerId = UUID0;
shapes = (
{
closed = 1;
nodes = (
(85,96,l),
(104,364,l),
(284,364,l),
(303,96,l),
(369,96,l),
(388,364,l),
(598,364,l),
(598,444,l),
(0,444,l),
(0,364,l),
(19,96,l)
);
}
);
width = 568;
}
);
}
{
glyphname = u1820_1843.fin;
layers = (
{
layerId = UUID0;
shapes = (
{
closed = 1;
nodes = (
(261,156,ls),
(261,403,o),
(314,667,o),
(450,836,c),
(358,836,l),
(236,677,o),
(184,399,o),
(184,156,c),
(93,209,o),
(74,309,o),
(74,444,c),
(58,444,l),
(81,632,l),
(-7,632,l),
(15,444,l),
(0,444,l),
(0,364,ls),
(0,206,o),
(100,63,o),
(261,53,c)
);
}
);
width = 460;
}
);
}
{
glyphname = u1822.fin;
layers = (
{
layerId = UUID0;
shapes = (
{
closed = 1;
nodes = (
(198,85,l),
(120,194,o),
(77,285,o),
(77,407,cs),
(77,567,o),
(134,644,o),
(226,644,cs),
(314,644,o),
(366,546,o),
(376,376,c),
(456,386,l),
(446,568,o),
(381,727,o),
(226,727,cs),
(74,727,o),
(-2,586,o),
(-2,407,cs),
(-2,292,o),
(41,170,o),
(127,42,c)
);
}
);
width = 501;
}
);
}
{
glyphname = u1822.ini;
layers = (
{
layerId = UUID0;
shapes = (
{
closed = 1;
nodes = (
(699,-31,l),
(626,100,o),
(570,231,o),
(532,364,c),
(844,364,l),
(844,444,l),
(444,444,ls),
(360,444,o),
(307,416,o),
(285,361,c),
(281,361,l),
(278,445,ls),
(273,575,o),
(248,653,o),
(139,653,cs),
(100,653,o),
(57,643,o),
(10,623,c),
(10,550,l),
(52,567,o),
(88,575,o),
(118,575,cs),
(179,575,o),
(194,520,o),
(200,437,cs),
(226,74,l),
(292,74,l),
(302,219,ls),
(310,330,o),
(336,364,o),
(445,364,cs),
(453,364,l),
(491,221,o),
(548,78,o),
(626,-67,c)
);
}
);
width = 814;
}
);
}
{
glyphname = u1822.med;
layers = (
{
layerId = UUID0;
shapes = (
{
closed = 1;
nodes = (
(246,-31,l),
(173,100,o),
(117,231,o),
(79,364,c),
(391,364,l),
(391,444,l),
(0,444,l),
(0,364,l),
(37,224,o),
(94,80,o),
(173,-67,c)
);
}
);
width = 361;
}
);
}
{
glyphname = u1822.medV1;
layers = (
{
layerId = UUID0;
shapes = (
{
closed = 1;
nodes = (
(464,-31,l),
(391,100,o),
(335,231,o),
(297,364,c),
(609,364,l),
(609,444,l),
(0,444,l),
(0,364,l),
(19,96,l),
(85,96,l),
(104,364,l),
(218,364,l),
(256,220,o),
(313,77,o),
(391,-67,c)
);
}
);
width = 579;
}
);
}
{
glyphname = u1822.medV2;
layers = (
{
layerId = UUID0;
shapes = (
{
closed = 1;
nodes = (
(246,-31,l),
(173,100,o),
(117,231,o),
(79,364,c),
(391,364,l),
(391,444,l),
(0,444,l),
(0,364,l),
(37,224,o),
(94,80,o),
(173,-67,c)
);
},
{
closed = 1;
nodes = (
(539,-31,l),
(466,100,o),
(410,231,o),
(372,364,c),
(684,364,l),
(684,444,l),
(293,444,l),
(293,364,l),
(330,224,o),
(387,80,o),
(466,-67,c)
);
}
);
width = 654;
}
);
}
{
glyphname = u1823.fin;
layers = (
{
layerId = UUID0;
shapes = (
{
closed = 1;
nodes = (
(331,40,o),
(405,137,o),
(405,275,cs),
(405,316,o),
(395,403,o),
(382,444,c),
(78,444,l),
(82,592,o),
(151,699,o),
(289,699,cs),
(427,699,o),
(496,573,o),
(509,409,c),
(589,419,l),
(575,616,o),
(469,782,o),
(289,782,cs),
(95,782,o),
(-1,624,o),
(-1,408,cs),
(-1,164,o),
(71,40,o),
(225,40,cs)
);
},
{
closed = 1;
nodes = (
(127,123,o),
(81,203,o),
(78,364,c),
(316,364,l),
(323,343,o),
(326,313,o),
(326,275,cs),
(326,190,o),
(291,123,o),
(218,123,cs)
);
}
);
width = 634;
}
);
}
{
glyphname = u1823.finV1;
layers = (
{
layerId = UUID0;
shapes = (
{
closed = 1;
nodes = (
(324,40,o),
(395,123,o),
(395,249,cs),
(395,314,o),
(378,388,o),
(348,444,c),
(0,444,l),
(0,364,l),
(20,364,l),
(7,333,o),
(0,294,o),
(0,249,cs),
(0,116,o),
(69,40,o),
(197,40,cs)
);
},
{
closed = 1;
nodes = (
(118,123,o),
(79,166,o),
(79,251,cs),
(79,295,o),
(86,333,o),
(99,364,c),
(294,364,l),
(309,330,o),
(316,292,o),
(316,251,cs),
(316,166,o),
(271,123,o),
(197,123,cs)
);
}
);
width = 440;
}
);
}
{
glyphname = u1823.ini;
layers = (
{
layerId = UUID0;
shapes = (
{
closed = 1;
nodes = (
(816,40,o),
(887,123,o),
(887,249,cs),
(887,293,o),
(880,331,o),
(865,364,c),
(1095,364,l),
(1095,444,l),
(444,444,ls),
(360,444,o),
(307,416,o),
(285,361,c),
(281,361,l),
(278,445,ls),
(273,575,o),
(248,653,o),
(139,653,cs),
(100,653,o),
(57,643,o),
(10,623,c),
(10,550,l),
(52,567,o),
(88,575,o),
(118,575,cs),
(179,575,o),
(194,520,o),
(200,437,cs),
(226,74,l),
(292,74,l),
(302,219,ls),
(309,326,o),
(335,364,o),
(445,364,cs),
(512,364,l),
(499,333,o),
(492,294,o),
(492,249,cs),
(492,116,o),
(562,40,o),
(689,40,cs)
);
},
{
closed = 1;
nodes = (
(610,123,o),
(571,166,o),
(571,251,cs),
(571,294,o),
(578,332,o),
(591,364,c),
(788,364,l),
(801,332,o),
(808,294,o),
(808,251,cs),
(808,166,o),
(763,123,o),
(689,123,cs)
);
}
);
width = 1065;
}
);
}
{
glyphname = u1823.med;
layers = (
{
layerId = UUID0;
shapes = (
{
closed = 1;
nodes = (
(324,40,o),
(395,123,o),
(395,249,cs),
(395,293,o),
(388,331,o),
(373,364,c),
(603,364,l),
(603,444,l),
(0,444,l),
(0,364,l),
(20,364,l),
(7,333,o),
(0,294,o),
(0,249,cs),
(0,117,o),
(68,40,o),
(197,40,cs)
);
},
{
closed = 1;
nodes = (
(118,123,o),
(79,166,o),
(79,251,cs),
(79,295,o),
(86,333,o),
(99,364,c),
(296,364,l),
(309,333,o),
(316,295,o),
(316,251,cs),
(316,166,o),
(271,123,o),
(197,123,cs)
);
}
);
width = 573;
}
);
}
{
glyphname = u1823.medV1;
layers = (
{
layerId = UUID0;
shapes = (
{
closed = 1;
nodes = (
(608,40,o),
(679,123,o),
(679,249,cs),
(679,293,o),
(672,331,o),
(657,364,c),
(887,364,l),
(887,444,l),
(0,444,l),
(0,364,l),
(19,96,l),
(85,96,l),
(104,364,l),
(304,364,l),
(291,333,o),
(284,294,o),
(284,249,cs),
(284,116,o),
(354,40,o),
(481,40,cs)
);
},
{
closed = 1;
nodes = (
(402,123,o),
(363,166,o),
(363,251,cs),
(363,294,o),
(370,332,o),
(383,364,c),
(580,364,l),
(593,332,o),
(600,294,o),
(600,251,cs),
(600,166,o),
(555,123,o),
(481,123,cs)
);
}
);
width = 857;
}
);
}
{
glyphname = u1825.medV1;
layers = (
{
layerId = UUID0;
shapes = (
{
closed = 1;
nodes = (
(753,-31,l),
(680,100,o),
(624,231,o),
(586,364,c),
(898,364,l),
(898,444,l),
(0,444,l),
(0,364,l),
(20,364,l),
(7,333,o),
(0,294,o),
(0,249,cs),
(0,116,o),
(69,40,o),
(197,40,cs),
(324,40,o),
(395,123,o),
(395,249,cs),
(395,293,o),
(388,331,o),
(373,364,c),
(507,364,l),
(545,220,o),
(603,77,o),
(680,-67,c)
);
},
{
closed = 1;
nodes = (
(118,123,o),
(79,166,o),
(79,251,cs),
(79,295,o),
(86,333,o),
(99,364,c),
(296,364,l),
(309,333,o),
(316,295,o),
(316,251,cs),
(316,166,o),
(271,123,o),
(197,123,cs)
);
}
);
width = 868;
}
);
}
{
glyphname = u1825.medV2;
layers = (
{
layerId = UUID0;
shapes = (
{
closed = 1;
nodes = (
(1037,-31,l),
(964,100,o),
(908,231,o),
(870,364,c),
(1182,364,l),
(1182,444,l),
(0,444,l),
(0,364,l),
(19,96,l),
(85,96,l),
(104,364,l),
(304,364,l),
(291,333,o),
(284,294,o),
(284,249,cs),
(284,116,o),
(354,40,o),
(481,40,cs),
(608,40,o),
(679,123,o),
(679,249,cs),
(679,293,o),
(672,331,o),
(657,364,c),
(791,364,l),
(828,224,o),
(885,80,o),
(964,-67,c)
);
},
{
closed = 1;
nodes = (
(402,123,o),
(363,166,o),
(363,251,cs),
(363,294,o),
(370,332,o),
(383,364,c),
(580,364,l),
(593,332,o),
(600,294,o),
(600,251,cs),
(600,166,o),
(555,123,o),
(481,123,cs)
);
}
);
width = 1152;
}
);
}
{
glyphname = u1826.iniV1;
layers = (
{
layerId = UUID0;
shapes = (
{
closed = 1;
nodes = (
(369,40,o),
(440,123,o),
(440,249,cs),
(440,294,o),
(433,333,o),
(420,364,c),
(648,364,l),
(648,444,l),
(90,444,l),
(59,392,o),
(45,336,o),
(45,260,cs),
(45,123,o),
(111,40,o),
(242,40,cs)
);
},
{
closed = 1;
nodes = (
(164,123,o),
(124,169,o),
(124,262,cs),
(124,303,o),
(131,336,o),
(144,364,c),
(341,364,l),
(354,333,o),
(361,295,o),
(361,251,cs),
(361,166,o),
(315,123,o),
(242,123,cs)
);
}
);
width = 618;
}
);
}
{
glyphname = u1826.isoV1;
layers = (
{
layerId = UUID0;
shapes = (
{
closed = 1;
nodes = (
(824,40,o),
(897,138,o),
(897,275,cs),
(897,321,o),
(887,404,o),
(874,444,c),
(570,444,l),
(572,589,o),
(643,699,o),
(781,699,cs),
(920,699,o),
(991,566,o),
(1001,409,c),
(1081,419,l),
(1070,607,o),
(965,782,o),
(781,782,cs),
(601,782,o),
(503,645,o),
(492,444,c),
(444,444,ls),
(360,444,o),
(307,416,o),
(285,361,c),
(281,361,l),
(278,445,ls),
(273,575,o),
(248,653,o),
(139,653,cs),
(100,653,o),
(57,643,o),
(10,623,c),
(10,550,l),
(52,567,o),
(88,575,o),
(118,575,cs),
(179,575,o),
(194,520,o),
(200,437,cs),
(226,74,l),
(292,74,l),
(302,219,ls),
(310,329,o),
(337,364,o),
(445,364,cs),
(491,364,l),
(501,141,o),
(577,40,o),
(717,40,cs)
);
},
{
closed = 1;
nodes = (
(620,123,o),
(573,203,o),
(570,364,c),
(808,364,l),
(814,344,o),
(818,314,o),
(818,275,cs),
(818,190,o),
(783,123,o),
(710,123,cs)
);
}
);
width = 1126;
}
);
}
{
glyphname = u1827.med;
layers = (
{
layerId = UUID0;
shapes = (
{
closed = 1;
nodes = (
(346,-119,o),
(377,-106,o),
(392,-85,c),
(392,6,l),
(373,-22,o),
(345,-36,o),
(309,-36,cs),
(244,-36,o),
(202,49,o),
(156,152,cs),
(124,224,o),
(99,294,o),
(79,364,c),
(488,364,l),
(488,444,l),
(0,444,l),
(0,364,l),
(20,292,o),
(42,223,o),
(68,157,cs),
(133,-6,o),
(187,-119,o),
(309,-119,cs)
);
}
);
width = 458;
}
);
}
{
glyphname = u1828.medV3;
layers = (
{
layerId = UUID0;
shapes = (
{
closed = 1;
nodes = (
(253,96,l),
(272,364,l),
(482,364,l),
(482,444,l),
(0,444,l),
(0,364,l),
(168,364,l),
(187,96,l)
);
},
{
closed = 1;
nodes = (
(246,-128,o),
(292,-90,o),
(352,-47,c),
(291,22,l),
(251,-17,o),
(211,-66,o),
(170,-124,c),
(213,-163,l)
);
}
);
width = 452;
}
);
}
{
glyphname = u1829.fin;
layers = (
{
layerId = UUID0;
shapes = (
{
closed = 1;
nodes = (
(618,-264,l),
(604,-240,o),
(597,-214,o),
(597,-187,cs),
(597,-130,o),
(617,-91,o),
(664,-31,cs),
(740,66,o),
(797,153,o),
(797,245,cs),
(797,373,o),
(720,444,o),
(566,444,cs),
(0,444,l),
(0,364,l),
(19,96,l),
(85,96,l),
(104,364,l),
(218,364,l),
(256,220,o),
(313,77,o),
(391,-67,c),
(464,-31,l),
(391,100,o),
(335,231,o),
(297,364,c),
(565,364,ls),
(672,364,o),
(719,325,o),
(719,245,cs),
(719,172,o),
(674,110,o),
(612,28,cs),
(558,-44,o),
(517,-109,o),
(517,-187,cs),
(517,-217,o),
(523,-243,o),
(536,-264,c)
);
}
);
width = 842;
}
);
}
{
glyphname = u1829.med;
layers = (
{
layerId = UUID0;
shapes = (
{
closed = 1;
nodes = (
(412,112,l),
(356,205,o),
(321,292,o),
(321,396,cs),
(321,500,o),
(364,563,o),
(444,563,cs),
(516,563,o),
(566,499,o),
(574,364,c),
(648,364,l),
(641,521,o),
(581,646,o),
(444,646,cs),
(327,646,o),
(258,561,o),
(245,444,c),
(0,444,l),
(0,364,l),
(19,96,l),
(85,96,l),
(104,364,l),
(243,364,l),
(249,271,o),
(280,173,o),
(338,70,c)
);
}
);
width = 574;
}
);
}
{
glyphname = u1829_182F.med;
layers = (
{
layerId = UUID0;
shapes = (
{
closed = 1;
nodes = (
(412,112,l),
(356,205,o),
(321,292,o),
(321,396,cs),
(321,500,o),
(364,563,o),
(444,563,cs),
(516,563,o),
(564,500,o),
(574,365,cs),
(593,96,l),
(659,96,l),
(678,364,l),
(888,364,l),
(888,444,l),
(639,444,l),
(633,473,o),
(626,500,o),
(616,523,c),
(616,612,o),
(641,682,o),
(688,766,c),
(688,832,l),
(568,832,ls),
(500,832,o),
(435,835,o),
(388,868,c),
(388,790,l),
(429,754,o),
(491,752,o),
(568,752,cs),
(596,752,l),
(576,711,o),
(562,664,o),
(553,609,c),
(522,634,o),
(486,646,o),
(444,646,cs),
(327,646,o),
(258,561,o),
(245,444,c),
(0,444,l),
(0,364,l),
(19,96,l),
(85,96,l),
(104,364,l),
(243,364,l),
(249,271,o),
(280,173,o),
(338,70,c)
);
}
);
width = 858;
}
);
}
{
glyphname = u182A.fin;
layers = (
{
layerId = UUID0;
shapes = (
{
closed = 1;
nodes = (
(479,-264,l),
(465,-238,o),
(458,-213,o),
(458,-187,cs),
(458,-119,o),
(482,-79,o),
(536,-7,cs),
(638,130,o),
(702,243,o),
(702,388,cs),
(702,632,o),
(569,782,o),
(344,782,cs),
(123,782,o),
(-1,640,o),
(-1,408,cs),
(-1,164,o),
(71,40,o),
(225,40,cs),
(328,40,o),
(405,136,o),
(405,275,cs),
(405,316,o),
(395,403,o),
(382,444,c),
(78,444,l),
(82,606,o),
(182,699,o),
(344,699,cs),
(523,699,o),
(623,583,o),
(623,388,cs),
(623,260,o),
(577,173,o),
(484,50,cs),
(419,-35,o),
(378,-102,o),
(378,-187,cs),
(378,-214,o),
(384,-239,o),
(397,-264,c)
);
},
{
closed = 1;
nodes = (
(127,123,o),
(81,203,o),
(78,364,c),
(316,364,l),
(323,343,o),
(326,313,o),
(326,275,cs),
(326,190,o),
(291,123,o),
(218,123,cs)
);
}
);
width = 747;
}
);
}
{
glyphname = u182A.finV1;
layers = (
{
layerId = UUID0;
shapes = (
{
closed = 1;
nodes = (
(596,-264,l),
(582,-240,o),
(575,-214,o),
(575,-187,cs),
(575,-130,o),
(595,-91,o),
(642,-31,cs),
(718,66,o),
(775,153,o),
(775,245,cs),
(775,373,o),
(698,444,o),
(544,444,cs),
(0,444,l),
(0,364,l),
(20,364,l),
(7,333,o),
(0,294,o),
(0,249,cs),
(0,116,o),
(69,40,o),
(197,40,cs),
(324,40,o),
(395,123,o),
(395,249,cs),
(395,293,o),
(388,331,o),
(373,364,c),
(543,364,ls),
(650,364,o),
(697,325,o),
(697,243,cs),
(697,175,o),
(657,117,o),
(590,28,cs),
(536,-44,o),
(495,-109,o),
(495,-187,cs),
(495,-217,o),
(501,-243,o),
(514,-264,c)
);
},
{
closed = 1;
nodes = (
(118,123,o),
(79,166,o),
(79,251,cs),
(79,295,o),
(86,333,o),
(99,364,c),
(296,364,l),
(309,333,o),
(316,295,o),
(316,251,cs),
(316,166,o),
(271,123,o),
(197,123,cs)
);
}
);
width = 820;
}
);
}
{
glyphname = u182A.ini;
layers = (
{
layerId = UUID0;
shapes = (
{
closed = 1;
nodes = (
(376,40,o),
(451,138,o),
(451,275,cs),
(451,312,o),
(440,410,o),
(428,444,c),
(124,444,l),
(126,590,o),
(198,699,o),
(335,699,cs),
(467,699,o),
(552,576,o),
(557,364,c),
(631,364,l),
(631,586,o),
(531,782,o),
(335,782,cs),
(141,782,o),
(45,624,o),
(45,408,cs),
(45,162,o),
(118,40,o),
(273,40,cs)
);
},
{
closed = 1;
nodes = (
(173,123,o),
(126,203,o),
(124,364,c),
(362,364,l),
(369,345,o),
(372,315,o),
(372,275,cs),
(372,190,o),
(337,123,o),
(264,123,cs)
);
}
);
width = 557;
}
);
}
{
glyphname = u182A_1820;
layers = (
{
layerId = UUID0;
shapes = (
{
closed = 1;
nodes = (
(946,-264,l),
(932,-238,o),
(925,-213,o),
(925,-187,cs),
(925,-124,o),
(943,-95,o),
(992,-31,cs),
(1066,66,o),
(1125,155,o),
(1125,245,cs),
(1125,373,o),
(1047,444,o),
(894,444,cs),
(652,444,l),
(625,637,o),
(535,782,o),
(352,782,cs),
(150,782,o),
(45,630,o),
(45,408,cs),
(45,161,o),
(119,40,o),
(270,40,cs),
(376,40,o),
(451,137,o),
(451,275,cs),
(451,312,o),
(440,410,o),
(428,444,c),
(124,444,l),
(126,592,o),
(204,699,o),
(352,699,cs),
(493,699,o),
(563,586,o),
(579,364,cs),
(598,96,l),
(664,96,l),
(683,364,l),
(893,364,ls),
(1000,364,o),
(1047,325,o),
(1047,245,cs),
(1047,177,o),
(1008,116,o),
(940,28,cs),
(885,-44,o),
(845,-110,o),
(845,-187,cs),
(845,-217,o),
(852,-242,o),
(864,-264,c)
);
},
{
closed = 1;
nodes = (
(173,123,o),
(126,203,o),
(124,364,c),
(362,364,l),
(369,345,o),
(372,315,o),
(372,275,cs),
(372,190,o),
(337,123,o),
(264,123,cs)
);
}
);
width = 1170;
}
);
}
{
glyphname = u182A_1820.ini;
layers = (
{
layerId = UUID0;
shapes = (
{
closed = 1;
nodes = (
(375,40,o),
(451,134,o),
(451,275,cs),
(451,312,o),
(440,410,o),
(428,444,c),
(124,444,l),
(126,592,o),
(204,699,o),
(352,699,cs),
(493,699,o),
(563,586,o),
(579,364,cs),
(598,96,l),
(664,96,l),
(683,364,l),
(893,364,l),
(893,444,l),
(652,444,l),
(625,637,o),
(535,782,o),
(352,782,cs),
(150,782,o),
(45,630,o),
(45,408,cs),
(45,161,o),
(119,40,o),
(271,40,cs)
);
},
{
closed = 1;
nodes = (
(173,123,o),
(126,203,o),
(124,364,c),
(362,364,l),
(369,345,o),
(372,315,o),
(372,275,cs),
(372,190,o),
(337,123,o),
(264,123,cs)
);
}
);
width = 863;
}
);
}
{
glyphname = u182A_1822;
layers = (
{
layerId = UUID0;
shapes = (
{
closed = 1;
nodes = (
(802,-31,l),
(722,113,o),
(668,238,o),
(642,364,c),
(947,364,ls),
(1018,364,o),
(1045,333,o),
(1045,279,cs),
(1045,235,o),
(1038,196,o),
(1023,162,c),
(1097,162,l),
(1114,199,o),
(1122,238,o),
(1122,279,cs),
(1122,389,o),
(1063,444,o),
(947,444,cs),
(627,444,l),
(589,650,o),
(514,782,o),
(330,782,cs),
(138,782,o),
(45,624,o),
(45,408,cs),
(45,161,o),
(119,40,o),
(270,40,cs),
(375,40,o),
(451,137,o),
(451,275,cs),
(451,312,o),
(440,410,o),
(428,444,c),
(124,444,l),
(126,588,o),
(194,699,o),
(330,699,cs),
(469,699,o),
(523,589,o),
(552,418,cs),
(566,334,o),
(585,259,o),
(609,192,cs),
(633,125,o),
(674,39,o),
(729,-67,c)
);
},
{
closed = 1;
nodes = (
(173,123,o),
(126,203,o),
(124,364,c),
(362,364,l),
(369,345,o),
(372,315,o),
(372,275,cs),
(372,190,o),
(337,123,o),
(264,123,cs)
);
}
);
width = 1167;
}
);
}
{
glyphname = u182A_1822.ini;
layers = (
{
layerId = UUID0;
shapes = (
{
closed = 1;
nodes = (
(802,-31,l),
(722,113,o),
(668,238,o),
(642,364,c),
(947,364,l),
(947,444,l),
(627,444,l),
(589,650,o),
(514,782,o),
(330,782,cs),
(242,782,o),
(172,749,o),
(121,683,cs),
(70,617,o),
(45,525,o),
(45,408,cs),
(45,161,o),
(118,40,o),
(272,40,cs),
(378,40,o),
(451,138,o),
(451,275,cs),
(451,312,o),
(440,410,o),
(428,444,c),
(124,444,l),
(126,588,o),
(194,699,o),
(330,699,cs),
(469,699,o),
(523,589,o),
(552,418,cs),
(566,334,o),
(584,258,o),
(609,192,cs),
(634,125,o),
(674,39,o),
(729,-67,c)
);
},
{
closed = 1;
nodes = (
(173,123,o),
(126,203,o),
(124,364,c),
(362,364,l),
(369,345,o),
(372,311,o),
(372,271,cs),
(372,186,o),
(333,123,o),
(264,123,cs)
);
}
);
width = 917;
}
);
}
{
glyphname = u182A_1823;
layers = (
{
layerId = UUID0;
shapes = (
{
closed = 1;
nodes = (
(311,40,o),
(370,72,o),
(396,135,c),
(424,71,o),
(474,40,o),
(538,40,cs),
(683,40,o),
(752,146,o),
(752,375,cs),
(752,607,o),
(632,782,o),
(405,782,cs),
(178,782,o),
(45,617,o),
(45,375,cs),
(45,155,o),
(107,40,o),
(249,40,cs)
);
},
{
closed = 1;
nodes = (
(145,123,o),
(124,222,o),
(124,364,c),
(359,364,l),
(359,286,ls),
(359,195,o),
(325,123,o),
(249,123,cs)
);
},
{
closed = 1;
nodes = (
(471,123,o),
(438,177,o),
(438,286,cs),
(438,364,l),
(673,364,l),
(668,188,o),
(638,123,o),
(538,123,cs)
);
},
{
closed = 1;
nodes = (
(145,605,o),
(236,699,o),
(405,699,cs),
(556,699,o),
(647,596,o),
(668,444,c),
(127,444,l)
);
}
);
width = 797;
}
);
}
{
glyphname = u182A_1825.ini;
layers = (
{
layerId = UUID0;
shapes = (
{
closed = 1;
nodes = (
(1109,-31,l),
(1037,97,o),
(981,229,o),
(942,364,c),
(1254,364,l),
(1254,444,l),
(748,444,l),
(726,652,o),
(599,782,o),
(405,782,cs),
(178,782,o),
(45,615,o),
(45,375,cs),
(45,155,o),
(107,40,o),
(249,40,cs),
(311,40,o),
(370,72,o),
(396,135,c),
(424,71,o),
(474,40,o),
(538,40,cs),
(681,40,o),
(750,146,o),
(752,364,c),
(863,364,l),
(901,220,o),
(958,77,o),
(1036,-67,c)
);
},
{
closed = 1;
nodes = (
(142,123,o),
(124,227,o),
(124,364,c),
(359,364,l),
(359,281,ls),
(359,187,o),
(318,123,o),
(248,123,cs)
);
},
{
closed = 1;
nodes = (
(471,123,o),
(438,177,o),
(438,286,cs),
(438,364,l),
(673,364,l),
(668,188,o),
(638,123,o),
(538,123,cs)
);
},
{
closed = 1;
nodes = (
(148,605,o),
(233,699,o),
(405,699,cs),
(556,699,o),
(647,596,o),
(668,444,c),
(127,444,l)
);
}
);
width = 1224;
}
);
}
{
glyphname = u182A_1827.ini;
layers = (
{
layerId = UUID0;
shapes = (
{
closed = 1;
nodes = (
(896,-119,o),
(926,-106,o),
(940,-85,c),
(940,6,l),
(921,-22,o),
(891,-36,o),
(855,-36,cs),
(761,-36,o),
(668,218,o),
(641,364,c),
(1036,364,l),
(1036,444,l),
(626,444,l),
(590,648,o),
(512,782,o),
(330,782,cs),
(138,782,o),
(45,624,o),
(45,408,cs),
(45,161,o),
(119,40,o),
(271,40,cs),
(378,40,o),
(451,138,o),
(451,275,cs),
(451,312,o),
(440,410,o),
(428,444,c),
(124,444,l),
(126,588,o),
(194,699,o),
(330,699,cs),
(469,699,o),
(523,589,o),
(552,418,cs),
(576,279,o),
(614,153,o),
(667,41,cs),
(713,-56,o),
(765,-119,o),
(858,-119,cs)
);
},
{
closed = 1;
nodes = (
(173,123,o),
(126,203,o),
(124,364,c),
(362,364,l),
(369,345,o),
(372,315,o),
(372,275,cs),
(372,190,o),
(337,123,o),
(264,123,cs)
);
}
);
width = 1006;
}
);
}
{
glyphname = u182A_182F.ini;
layers = (
{
layerId = UUID0;
shapes = (
{
closed = 1;
nodes = (
(377,40,o),
(451,138,o),
(451,275,cs),
(451,312,o),
(440,410,o),
(428,444,c),
(124,444,l),
(126,578,o),
(213,659,o),
(348,659,cs),
(487,659,o),
(565,559,o),
(579,364,cs),
(598,96,l),
(664,96,l),
(683,364,l),
(893,364,l),
(893,444,l),
(652,444,l),
(640,510,o),
(621,565,o),
(593,611,c),
(596,695,o),
(624,767,o),
(675,848,c),
(675,914,l),
(555,914,ls),
(475,914,o),
(423,917,o),
(375,950,c),
(375,872,l),
(415,837,o),
(478,834,o),
(555,834,cs),
(583,834,l),
(557,787,o),
(539,736,o),
(530,683,c),
(482,723,o),
(422,742,o),
(348,742,cs),
(155,742,o),
(45,615,o),
(45,408,cs),
(45,161,o),
(120,40,o),
(271,40,cs)
);
},
{
closed = 1;
nodes = (
(173,123,o),
(126,203,o),
(124,364,c),
(362,364,l),
(369,345,o),
(372,315,o),
(372,275,cs),
(372,190,o),
(337,123,o),
(264,123,cs)
);
}
);
width = 863;
}
);
}
{
glyphname = u182A_1844;
layers = (
{
layerId = UUID0;
shapes = (
{
closed = 1;
nodes = (
(921,92,l),
(903,108,o),
(865,119,o),
(816,119,cs),
(775,119,ls),
(684,119,o),
(638,167,o),
(638,263,cs),
(638,364,l),
(921,364,l),
(921,444,l),
(634,444,l),
(618,640,o),
(519,782,o),
(340,782,cs),
(143,782,o),
(45,628,o),
(45,408,cs),
(45,161,o),
(119,40,o),
(271,40,cs),
(376,40,o),
(451,136,o),
(451,273,cs),
(451,310,o),
(440,410,o),
(428,444,c),
(124,444,l),
(126,590,o),
(197,699,o),
(340,699,cs),
(488,699,o),
(559,585,o),
(559,374,cs),
(559,263,ls),
(559,109,o),
(636,36,o),
(775,36,cs),
(816,36,ls),
(866,36,o),
(901,27,o),
(921,9,c)
);
},
{
closed = 1;
nodes = (
(173,123,o),
(126,203,o),
(124,364,c),
(362,364,l),
(369,345,o),
(372,315,o),
(372,275,cs),
(372,190,o),
(337,123,o),
(264,123,cs)
);
}
);
width = 966;
}
);
}
{
glyphname = u182A_1845;
layers = (
{
layerId = UUID0;
shapes = (
{
closed = 1;
nodes = (
(981,92,l),
(960,110,o),
(925,119,o),
(876,119,cs),
(847,119,l),
(847,364,l),
(1133,364,ls),
(1204,364,o),
(1231,333,o),
(1231,279,cs),
(1231,235,o),
(1224,196,o),
(1209,162,c),
(1283,162,l),
(1300,199,o),
(1308,238,o),
(1308,279,cs),
(1308,389,o),
(1250,444,o),
(1133,444,cs),
(768,444,l),
(768,119,l),
(735,119,ls),
(670,119,o),
(638,154,o),
(638,223,cs),
(638,374,ls),
(638,591,o),
(549,782,o),
(340,782,cs),
(143,782,o),
(45,628,o),
(45,408,cs),
(45,161,o),
(119,40,o),
(271,40,cs),
(376,40,o),
(451,136,o),
(451,273,cs),
(451,310,o),
(440,410,o),
(428,444,c),
(124,444,l),
(126,590,o),
(197,699,o),
(340,699,cs),
(488,699,o),
(559,585,o),
(559,374,cs),
(559,223,ls),
(559,99,o),
(618,36,o),
(735,36,cs),
(876,36,ls),
(926,36,o),
(961,27,o),
(981,9,c)
);
},
{
closed = 1;
nodes = (
(173,123,o),
(126,203,o),
(124,364,c),
(362,364,l),
(369,345,o),
(372,315,o),
(372,275,cs),
(372,190,o),
(337,123,o),
(264,123,cs)
);
}
);
width = 1353;
}
);
}
{
glyphname = u182A_1847;
layers = (
{
layerId = UUID0;
shapes = (
{
closed = 1;
nodes = (
(688,-81,l),
(663,-37,o),
(640,9,o),
(619,54,c),
(708,89,o),
(752,196,o),
(752,375,cs),
(752,607,o),
(632,782,o),
(405,782,cs),
(178,782,o),
(45,617,o),
(45,375,cs),
(45,155,o),
(107,40,o),
(249,40,cs),
(311,40,o),
(370,72,o),
(396,135,c),
(424,72,o),
(471,40,o),
(537,40,c),
(559,-10,o),
(586,-64,o),
(617,-121,c)
);
},
{
closed = 1;
nodes = (
(144,123,o),
(124,224,o),
(124,364,c),
(359,364,l),
(359,284,ls),
(359,193,o),
(324,123,o),
(248,123,cs)
);
},
{
closed = 1;
nodes = (
(471,123,o),
(438,177,o),
(438,286,cs),
(438,364,l),
(673,364,l),
(668,188,o),
(638,123,o),
(538,123,cs)
);
},
{
closed = 1;
nodes = (
(146,605,o),
(235,699,o),
(405,699,cs),
(556,699,o),
(647,596,o),
(668,444,c),
(127,444,l)
);
}
);
width = 797;
}
);
}
{
glyphname = u182B.fin;
layers = (
{
layerId = UUID0;
shapes = (
{
closed = 1;
nodes = (
(447,-264,l),
(433,-238,o),
(426,-213,o),
(426,-187,cs),
(426,-120,o),
(450,-79,o),
(504,-7,cs),
(605,128,o),
(670,244,o),
(670,388,cs),
(670,631,o),
(544,782,o),
(321,782,cs),
(122,782,o),
(0,638,o),
(0,408,cs),
(0,364,l),
(284,364,l),
(291,344,o),
(294,314,o),
(294,275,cs),
(294,201,o),
(253,153,o),
(186,153,cs),
(121,153,o),
(60,150,o),
(16,122,c),
(16,42,l),
(63,67,o),
(116,73,o),
(186,73,cs),
(301,73,o),
(373,158,o),
(373,275,cs),
(373,332,o),
(366,388,o),
(352,444,c),
(79,444,l),
(83,595,o),
(167,699,o),
(322,699,cs),
(503,699,o),
(591,576,o),
(591,388,cs),
(591,258,o),
(546,176,o),
(452,50,cs),
(386,-38,o),
(346,-100,o),
(346,-187,cs),
(346,-217,o),
(353,-243,o),
(365,-264,c)
);
}
);
width = 715;
}
);
}
{
glyphname = u182B.ini;
layers = (
{
layerId = UUID0;
shapes = (
{
closed = 1;
nodes = (
(109,68,o),
(162,73,o),
(231,73,cs),
(346,73,o),
(418,158,o),
(418,275,cs),
(418,332,o),
(411,388,o),
(397,444,c),
(124,444,l),
(126,588,o),
(194,699,o),
(330,699,cs),
(462,699,o),
(547,578,o),
(552,364,c),
(626,364,l),
(626,586,o),
(526,782,o),
(330,782,cs),
(138,782,o),
(45,624,o),
(45,408,cs),
(45,364,l),
(329,364,l),
(335,344,o),
(339,314,o),
(339,275,cs),
(339,201,o),
(298,153,o),
(231,153,cs),
(166,153,o),
(104,150,o),
(62,122,c),
(62,42,l)
);
}
);
width = 552;
}
);
}
{
glyphname = u182B_1820;
layers = (
{
layerId = UUID0;
shapes = (
{
closed = 1;
nodes = (
(913,-264,l),
(899,-240,o),
(892,-214,o),
(892,-187,cs),
(892,-128,o),
(910,-94,o),
(959,-31,cs),
(1035,66,o),
(1092,153,o),
(1092,245,cs),
(1092,373,o),
(1015,444,o),
(861,444,cs),
(618,444,l),
(586,665,o),
(488,782,o),
(330,782,cs),
(138,782,o),
(45,624,o),
(45,408,cs),
(45,364,l),
(329,364,l),
(335,344,o),
(339,314,o),
(339,275,cs),
(339,201,o),
(298,153,o),
(231,153,cs),
(166,153,o),
(104,150,o),
(62,122,c),
(62,42,l),
(109,68,o),
(162,73,o),
(231,73,cs),
(346,73,o),
(418,158,o),
(418,275,cs),
(418,332,o),
(411,388,o),
(397,444,c),
(124,444,l),
(126,588,o),
(194,699,o),
(330,699,cs),
(461,699,o),
(530,586,o),
(546,364,cs),
(565,96,l),
(631,96,l),
(650,364,l),
(860,364,ls),
(967,364,o),
(1014,325,o),
(1014,245,cs),
(1014,175,o),
(969,111,o),
(907,28,cs),
(851,-47,o),
(812,-109,o),
(812,-187,cs),
(812,-217,o),
(818,-243,o),
(831,-264,c)
);
}
);
width = 1137;
}
);
}
{
glyphname = u182B_1820.ini;
layers = (
{
layerId = UUID0;
shapes = (
{
closed = 1;
nodes = (
(109,68,o),
(162,73,o),
(231,73,cs),
(346,73,o),
(418,158,o),
(418,275,cs),
(418,332,o),
(411,388,o),
(397,444,c),
(124,444,l),
(126,588,o),
(194,699,o),
(330,699,cs),
(461,699,o),
(530,586,o),
(546,364,cs),
(565,96,l),
(631,96,l),
(650,364,l),
(860,364,l),
(860,444,l),
(618,444,l),
(586,665,o),
(488,782,o),
(330,782,cs),
(138,782,o),
(45,624,o),
(45,408,cs),
(45,364,l),
(329,364,l),
(335,344,o),
(339,312,o),
(339,273,cs),
(339,201,o),
(298,153,o),
(231,153,cs),
(167,153,o),
(104,150,o),
(62,122,c),
(62,42,l)
);
}
);
width = 830;
}
);
}
{
glyphname = u182B_1822.ini;
layers = (
{
layerId = UUID0;
shapes = (
{
closed = 1;
nodes = (
(780,-31,l),
(708,99,o),
(646,234,o),
(620,364,c),
(925,364,l),
(925,444,l),
(605,444,l),
(571,646,o),
(496,782,o),
(319,782,cs),
(132,782,o),
(45,621,o),
(45,408,cs),
(45,364,l),
(329,364,l),
(335,344,o),
(339,314,o),
(339,275,cs),
(339,201,o),
(298,153,o),
(231,153,cs),
(166,153,o),
(104,150,o),
(62,122,c),
(62,42,l),
(109,68,o),
(162,73,o),
(231,73,cs),
(346,73,o),
(418,158,o),
(418,275,cs),
(418,332,o),
(411,388,o),
(397,444,c),
(124,444,l),
(126,585,o),
(189,699,o),
(319,699,cs),
(435,699,o),
(499,602,o),
(530,418,cs),
(561,231,o),
(609,122,o),
(707,-67,c)
);
}
);
width = 895;
}
);
}
{
glyphname = u182B_1823;
layers = (
{
layerId = UUID0;
shapes = (
{
closed = 1;
nodes = (
(650,40,o),
(719,148,o),
(719,375,cs),
(719,618,o),
(588,782,o),
(372,782,cs),
(174,782,o),
(45,637,o),
(45,409,cs),
(45,364,l),
(326,364,l),
(326,275,ls),
(326,195,o),
(284,153,o),
(225,153,cs),
(162,153,o),
(104,150,o),
(62,122,c),
(62,42,l),
(109,68,o),
(159,73,o),
(225,73,cs),
(282,73,o),
(328,94,o),
(363,136,c),
(388,72,o),
(436,40,o),
(505,40,cs)
);
},
{
closed = 1;
nodes = (
(438,123,o),
(405,177,o),
(405,286,cs),
(405,364,l),
(640,364,l),
(638,219,o),
(618,123,o),
(505,123,cs)
);
},
{
closed = 1;
nodes = (
(127,595,o),
(224,699,o),
(372,699,cs),
(522,699,o),
(614,596,o),
(635,444,c),
(124,444,l)
);
}
);
width = 764;
}
);
}
{
glyphname = u182B_1823.ini;
layers = (
{
layerId = UUID0;
shapes = (
{
closed = 1;
nodes = (
(647,40,o),
(716,144,o),
(719,364,c),
(930,364,l),
(930,444,l),
(715,444,l),
(693,652,o),
(564,782,o),
(372,782,cs),
(178,782,o),
(45,637,o),
(45,409,cs),
(45,364,l),
(326,364,l),
(326,275,ls),
(326,195,o),
(284,153,o),
(225,153,cs),
(162,153,o),
(104,150,o),
(62,122,c),
(62,42,l),
(109,68,o),
(159,73,o),
(225,73,cs),
(282,73,o),
(328,94,o),
(363,136,c),
(388,72,o),
(436,40,o),
(505,40,cs)
);
},
{
closed = 1;
nodes = (
(438,123,o),
(405,177,o),
(405,286,cs),
(405,364,l),
(640,364,l),
(636,220,o),
(619,123,o),
(505,123,cs)
);
},
{
closed = 1;
nodes = (
(127,595,o),
(224,699,o),
(372,699,cs),
(522,699,o),
(614,596,o),
(635,444,c),
(124,444,l)
);
}
);
width = 900;
}
);
}
{
glyphname = u182B_1825.V1;
layers = (
{
layerId = UUID0;
shapes = (
{
closed = 1;
nodes = (
(647,40,o),
(716,144,o),
(719,364,c),
(930,364,ls),
(1000,364,o),
(1028,333,o),
(1028,279,cs),
(1028,235,o),
(1021,196,o),
(1006,162,c),
(1080,162,l),
(1097,199,o),
(1105,238,o),
(1105,279,cs),
(1105,389,o),
(1047,444,o),
(930,444,cs),
(715,444,l),
(693,652,o),
(566,782,o),
(372,782,cs),
(176,782,o),
(45,639,o),
(45,412,cs),
(45,364,l),
(326,364,l),
(326,275,ls),
(326,195,o),
(284,153,o),
(225,153,cs),
(162,153,o),
(104,150,o),
(62,122,c),
(62,42,l),
(109,68,o),
(159,73,o),
(225,73,cs),
(282,73,o),
(328,94,o),
(363,136,c),
(388,72,o),
(436,40,o),
(505,40,cs)
);
},
{
closed = 1;
nodes = (
(438,123,o),
(405,177,o),
(405,286,cs),
(405,364,l),
(640,364,l),
(636,219,o),
(619,123,o),
(506,123,cs)
);
},
{
closed = 1;
nodes = (
(127,595,o),
(223,699,o),
(372,699,cs),
(522,699,o),
(614,596,o),
(635,444,c),
(124,444,l)
);
}
);
width = 1150;
}
);
}
{
glyphname = u182B_1825.ini;
layers = (
{
layerId = UUID0;
shapes = (
{
closed = 1;
nodes = (
(1076,-31,l),
(1003,100,o),
(947,231,o),
(909,364,c),
(1221,364,l),
(1221,444,l),
(715,444,l),
(693,652,o),
(566,782,o),
(371,782,cs),
(175,782,o),
(45,638,o),
(45,410,cs),
(45,364,l),
(326,364,l),
(326,275,ls),
(326,195,o),
(284,153,o),
(225,153,cs),
(162,153,o),
(104,150,o),
(62,122,c),
(62,42,l),
(109,68,o),
(159,73,o),
(225,73,cs),
(282,73,o),
(328,94,o),
(363,136,c),
(388,72,o),
(436,40,o),
(505,40,cs),
(647,40,o),
(716,144,o),
(719,364,c),
(830,364,l),
(868,221,o),
(925,78,o),
(1003,-67,c)
);
},
{
closed = 1;
nodes = (
(438,123,o),
(405,177,o),
(405,286,cs),
(405,364,l),
(640,364,l),
(638,219,o),
(618,123,o),
(505,123,cs)
);
},
{
closed = 1;
nodes = (
(127,595,o),
(223,699,o),
(372,699,cs),
(522,699,o),
(614,596,o),
(635,444,c),
(124,444,l)
);
}
);
width = 1191;
}
);
}
{
glyphname = u182B_1827.ini;
layers = (
{
layerId = UUID0;
shapes = (
{
closed = 1;
nodes = (
(873,-119,o),
(904,-106,o),
(918,-85,c),
(918,6,l),
(899,-22,o),
(872,-36,o),
(836,-36,cs),
(787,-36,o),
(747,13,o),
(703,106,cs),
(659,199,o),
(633,287,o),
(619,364,c),
(1014,364,l),
(1014,444,l),
(604,444,l),
(567,645,o),
(496,782,o),
(319,782,cs),
(132,782,o),
(45,621,o),
(45,408,cs),
(45,364,l),
(329,364,l),
(335,344,o),
(339,314,o),
(339,275,cs),
(339,201,o),
(298,153,o),
(231,153,cs),
(166,153,o),
(104,150,o),
(62,122,c),
(62,42,l),
(109,68,o),
(162,73,o),
(231,73,cs),
(346,73,o),
(418,158,o),
(418,275,cs),
(418,332,o),
(411,388,o),
(397,444,c),
(124,444,l),
(126,585,o),
(189,699,o),
(319,699,cs),
(453,699,o),
(502,585,o),
(530,418,cs),
(553,279,o),
(592,153,o),
(645,41,cs),
(691,-56,o),
(743,-119,o),
(836,-119,cs)
);
}
);
width = 984;
}
);
}
{
glyphname = u182C.fin;
layers = (
{
layerId = UUID0;
shapes = (
{
closed = 1;
nodes = (
(506,186,ls),
(506,361,o),
(535,516,o),
(618,666,c),
(525,666,l),
(459,536,o),
(427,376,o),
(427,188,c),
(340,237,o),
(321,318,o),
(321,444,c),
(0,444,l),
(0,364,l),
(19,96,l),
(85,96,l),
(104,364,l),
(251,364,l),
(251,214,o),
(359,74,o),
(506,74,c)
);
}
);
width = 663;
}
);
}
{
glyphname = u182C.ini;
layers = (
{
layerId = UUID0;
shapes = (
{
closed = 1;
nodes = (
(299,96,l),
(289,268,o),
(258,377,o),
(206,423,c),
(214,574,o),
(272,644,o),
(362,644,cs),
(462,644,o),
(512,563,o),
(512,378,cs),
(512,279,o),
(506,185,o),
(495,96,c),
(573,96,l),
(587,192,o),
(594,281,o),
(594,364,c),
(818,364,l),
(818,444,l),
(591,444,l),
(573,633,o),
(497,727,o),
(362,727,cs),
(222,727,o),
(142,609,o),
(129,451,c),
(96,450,o),
(68,444,o),
(45,433,c),
(45,353,l),
(62,362,o),
(84,366,o),
(112,366,cs),
(192,366,o),
(210,233,o),
(221,96,c)
);
}
);
width = 788;
}
);
}
{
export = 0;
glyphname = u182C.iniFem;
layers = (
{
layerId = UUID0;
shapes = (
{
closed = 1;
nodes = (
(245,85,l),
(167,194,o),
(124,285,o),
(124,407,cs),
(124,567,o),
(181,644,o),
(273,644,cs),
(393,644,o),
(417,530,o),
(428,364,c),
(502,364,l),
(492,610,o),
(421,727,o),
(273,727,cs),
(132,727,o),
(45,601,o),
(45,407,cs),
(45,292,o),
(88,170,o),
(174,42,c)
);
}
);
width = 428;
}
);
}
{
glyphname = u182C_1821;
layers = (
{
layerId = UUID0;
shapes = (
{
closed = 1;
nodes = (
(797,-264,l),
(783,-238,o),
(776,-213,o),
(776,-187,cs),
(776,-125,o),
(796,-92,o),
(843,-31,cs),
(917,64,o),
(976,155,o),
(976,245,cs),
(976,373,o),
(898,444,o),
(745,444,cs),
(503,444,l),
(482,614,o),
(424,727,o),
(274,727,cs),
(134,727,o),
(45,605,o),
(45,418,cs),
(45,300,o),
(88,174,o),
(174,42,c),
(245,85,l),
(169,197,o),
(124,291,o),
(124,417,cs),
(124,571,o),
(182,644,o),
(274,644,cs),
(394,644,o),
(418,531,o),
(430,361,cs),
(449,96,l),
(515,96,l),
(534,364,l),
(744,364,ls),
(851,364,o),
(898,324,o),
(898,244,cs),
(898,176,o),
(859,116,o),
(791,28,cs),
(736,-44,o),
(696,-108,o),
(696,-187,cs),
(696,-216,o),
(702,-242,o),
(715,-264,c)
);
}
);
width = 1021;
}
);
}
{
glyphname = u182C_1821.ini;
layers = (
{
layerId = UUID0;
shapes = (
{
closed = 1;
nodes = (
(245,85,l),
(169,197,o),
(124,291,o),
(124,417,cs),
(124,571,o),
(183,644,o),
(275,644,cs),
(394,644,o),
(418,529,o),
(430,363,cs),
(449,96,l),
(515,96,l),
(534,364,l),
(744,364,l),
(744,444,l),
(503,444,l),
(482,614,o),
(424,727,o),
(274,727,cs),
(136,727,o),
(45,606,o),
(45,417,cs),
(45,299,o),
(88,174,o),
(174,42,c)
);
}
);
width = 714;
}
);
}
{
glyphname = u182C_1822;
layers = (
{
layerId = UUID0;
shapes = (
{
closed = 1;
nodes = (
(695,-31,l),
(611,101,o),
(558,232,o),
(533,364,c),
(840,364,ls),
(911,364,o),
(938,333,o),
(938,279,cs),
(938,236,o),
(931,197,o),
(916,162,c),
(990,162,l),
(1007,199,o),
(1015,238,o),
(1015,279,cs),
(1015,389,o),
(957,444,o),
(840,444,cs),
(523,444,l),
(501,628,o),
(443,760,o),
(287,760,cs),
(127,760,o),
(45,608,o),
(45,417,cs),
(45,299,o),
(88,174,o),
(174,42,c),
(245,85,l),
(169,197,o),
(124,291,o),
(124,417,cs),
(124,557,o),
(170,677,o),
(287,677,cs),
(400,677,o),
(426,577,o),
(447,418,cs),
(469,253,o),
(529,82,o),
(622,-67,c)
);
}
);
width = 1060;
}
);
}
{
glyphname = u182C_1822.ini;
layers = (
{
layerId = UUID0;
shapes = (
{
closed = 1;
nodes = (
(695,-31,l),
(611,101,o),
(558,232,o),
(533,364,c),
(840,364,l),
(840,444,l),
(523,444,l),
(501,628,o),
(443,760,o),
(287,760,cs),
(126,760,o),
(45,606,o),
(45,417,cs),
(45,299,o),
(88,174,o),
(174,42,c),
(245,85,l),
(169,197,o),
(124,291,o),
(124,417,cs),
(124,557,o),
(170,677,o),
(287,677,cs),
(354,677,o),
(390,645,o),
(416,572,cs),
(429,536,o),
(438,485,o),
(447,418,cs),
(457,340,o),
(476,259,o),
(505,176,cs),
(534,92,o),
(574,12,o),
(622,-67,c)
);
}
);
width = 810;
}
);
}
{
glyphname = u182C_1825;
layers = (
{
layerId = UUID0;
shapes = (
{
closed = 1;
nodes = (
(621,40,o),
(704,144,o),
(704,303,cs),
(704,324,o),
(704,344,o),
(702,364,c),
(915,364,ls),
(985,364,o),
(1013,333,o),
(1013,279,cs),
(1013,236,o),
(1006,197,o),
(991,162,c),
(1065,162,l),
(1082,197,o),
(1090,236,o),
(1090,279,cs),
(1090,389,o),
(1032,444,o),
(915,444,cs),
(693,444,l),
(658,649,o),
(545,760,o),
(365,760,cs),
(170,760,o),
(45,616,o),
(45,408,cs),
(45,290,o),
(86,152,o),
(146,42,c),
(219,73,l),
(152,198,o),
(124,313,o),
(124,405,cs),
(124,567,o),
(211,677,o),
(365,677,cs),
(503,677,o),
(586,599,o),
(614,444,c),
(347,444,l),
(323,397,o),
(309,330,o),
(309,275,cs),
(309,131,o),
(377,40,o),
(510,40,cs)
);
},
{
closed = 1;
nodes = (
(426,123,o),
(388,174,o),
(388,275,cs),
(388,311,o),
(394,341,o),
(404,364,c),
(623,364,l),
(625,344,o),
(625,324,o),
(625,303,cs),
(625,204,o),
(586,123,o),
(502,123,cs)
);
}
);
width = 1135;
}
);
}
{
glyphname = u182C_1825.ini;
layers = (
{
layerId = UUID0;
shapes = (
{
closed = 1;
nodes = (
(1065,-31,l),
(992,100,o),
(936,231,o),
(898,364,c),
(1210,364,l),
(1210,444,l),
(693,444,l),
(658,649,o),
(545,760,o),
(365,760,cs),
(170,760,o),
(45,616,o),
(45,408,cs),
(45,290,o),
(86,152,o),
(146,42,c),
(219,73,l),
(152,198,o),
(124,313,o),
(124,405,cs),
(124,567,o),
(211,677,o),
(365,677,cs),
(503,677,o),
(586,599,o),
(614,444,c),
(347,444,l),
(323,397,o),
(309,330,o),
(309,275,cs),
(309,132,o),
(376,40,o),
(509,40,cs),
(619,40,o),
(704,141,o),
(704,298,cs),
(704,319,o),
(704,344,o),
(702,364,c),
(819,364,l),
(857,220,o),
(915,77,o),
(992,-67,c)
);
},
{
closed = 1;
nodes = (
(426,123,o),
(388,174,o),
(388,275,cs),
(388,311,o),
(394,341,o),
(404,364,c),
(623,364,l),
(625,344,o),
(625,324,o),
(625,303,cs),
(625,204,o),
(586,123,o),
(502,123,cs)
);
}
);
width = 1180;
}
);
}
{
glyphname = u182C_1825.iniV1;
layers = (
{
layerId = UUID0;
shapes = (
{
closed = 1;
nodes = (
(622,40,o),
(704,145,o),
(704,302,cs),
(704,323,o),
(704,344,o),
(702,364,c),
(915,364,l),
(915,444,l),
(693,444,l),
(658,649,o),
(545,760,o),
(365,760,cs),
(170,760,o),
(45,616,o),
(45,408,cs),
(45,290,o),
(86,152,o),
(146,42,c),
(219,73,l),
(152,198,o),
(124,313,o),
(124,405,cs),
(124,567,o),
(211,677,o),
(365,677,cs),
(503,677,o),
(586,599,o),
(614,444,c),
(347,444,l),
(323,397,o),
(309,330,o),
(309,275,cs),
(309,132,o),
(376,40,o),
(509,40,cs)
);
},
{
closed = 1;
nodes = (
(426,123,o),
(388,174,o),
(388,275,cs),
(388,311,o),
(394,341,o),
(404,364,c),
(623,364,l),
(625,344,o),
(625,324,o),
(625,303,cs),
(625,204,o),
(586,123,o),
(502,123,cs)
);
}
);
width = 885;
}
);
}
{
glyphname = u182C_1827;
layers = (
{
layerId = UUID0;
shapes = (
{
closed = 1;
nodes = (
(774,-119,o),
(805,-106,o),
(819,-85,c),
(819,6,l),
(801,-22,o),
(773,-36,o),
(737,-36,cs),
(678,-36,o),
(637,33,o),
(599,117,cs),
(566,190,o),
(542,271,o),
(530,364,c),
(915,364,ls),
(985,364,o),
(1013,333,o),
(1013,279,cs),
(1013,236,o),
(1006,197,o),
(991,162,c),
(1065,162,l),
(1082,197,o),
(1090,236,o),
(1090,279,cs),
(1090,389,o),
(1032,444,o),
(915,444,cs),
(521,444,l),
(499,627,o),
(443,760,o),
(287,760,cs),
(126,760,o),
(45,606,o),
(45,417,cs),
(45,299,o),
(88,174,o),
(174,42,c),
(245,85,l),
(169,197,o),
(124,291,o),
(124,417,cs),
(124,557,o),
(170,677,o),
(287,677,cs),
(336,677,o),
(372,657,o),
(395,616,cs),
(418,576,o),
(435,510,o),
(445,418,cs),
(460,280,o),
(493,154,o),
(547,41,cs),
(594,-58,o),
(644,-119,o),
(737,-119,cs)
);
}
);
width = 1135;
}
);
}
{
glyphname = u182C_1827.ini;
layers = (
{
layerId = UUID0;
shapes = (
{
closed = 1;
nodes = (
(774,-119,o),
(805,-106,o),
(819,-85,c),
(819,6,l),
(801,-22,o),
(773,-36,o),
(737,-36,cs),
(678,-36,o),
(637,33,o),
(599,117,cs),
(566,190,o),
(542,271,o),
(530,364,c),
(915,364,l),
(915,444,l),
(521,444,l),
(499,627,o),
(443,760,o),
(287,760,cs),
(126,760,o),
(45,606,o),
(45,417,cs),
(45,299,o),
(88,174,o),
(174,42,c),
(245,85,l),
(169,197,o),
(124,291,o),
(124,417,cs),
(124,557,o),
(170,677,o),
(287,677,cs),
(398,677,o),
(428,570,o),
(445,418,cs),
(460,280,o),
(493,154,o),
(547,41,cs),
(594,-58,o),
(644,-119,o),
(737,-119,cs)
);
}
);
width = 885;
}
);
}
{
glyphname = u182Cv1_1820_1.finV1;
layers = (
{
layerId = UUID0;
shapes = (
{
closed = 1;
nodes = (
(215,112,l),
(158,206,o),
(124,294,o),
(124,400,cs),
(124,489,o),
(167,543,o),
(247,543,cs),
(319,543,o),
(369,485,o),
(377,364,c),
(451,364,l),
(444,509,o),
(384,626,o),
(247,626,cs),
(124,626,o),
(45,537,o),
(45,400,cs),
(45,296,o),
(77,186,o),
(141,70,c)
);
},
{
closed = 1;
nodes = (
(526,-264,l),
(512,-240,o),
(505,-214,o),
(505,-187,cs),
(505,-125,o),
(524,-91,o),
(572,-31,cs),
(620,29,o),
(654,82,o),
(674,123,cs),
(695,165,o),
(705,206,o),
(705,245,cs),
(705,373,o),
(628,444,o),
(474,444,cs),
(398,444,l),
(380,364,l),
(473,364,ls),
(580,364,o),
(627,325,o),
(627,245,cs),
(627,214,o),
(619,183,o),
(603,152,cs),
(587,121,o),
(560,80,o),
(520,28,cs),
(463,-46,o),
(425,-112,o),
(425,-187,cs),
(425,-217,o),
(431,-243,o),
(444,-264,c)
);
}
);
width = 750;
}
);
}
{
glyphname = u182D.finV1;
layers = (
{
layerId = UUID0;
shapes = (
{
closed = 1;
nodes = (
(444,-264,l),
(430,-238,o),
(423,-213,o),
(423,-187,cs),
(423,-126,o),
(443,-93,o),
(490,-31,cs),
(542,37,o),
(577,91,o),
(595,131,cs),
(613,171,o),
(623,209,o),
(623,245,cs),
(623,373,o),
(545,444,o),
(392,444,cs),
(0,444,l),
(0,364,l),
(37,224,o),
(94,80,o),
(173,-67,c),
(246,-31,l),
(173,100,o),
(117,231,o),
(79,364,c),
(391,364,ls),
(498,364,o),
(545,325,o),
(545,245,cs),
(545,197,o),
(531,166,o),
(503,120,cs),
(488,95,o),
(466,64,o),
(438,28,cs),
(382,-44,o),
(343,-108,o),
(343,-187,cs),
(343,-216,o),
(349,-242,o),
(362,-264,c)
);
}
);
width = 668;
}
);
}
{
glyphname = u182D.iniFem;
layers = (
{
layerId = UUID0;
shapes = (
{
closed = 1;
nodes = (
(245,85,l),
(167,194,o),
(124,285,o),
(124,407,cs),
(124,567,o),
(181,644,o),
(273,644,cs),
(393,644,o),
(417,530,o),
(428,364,c),
(661,364,l),
(661,444,l),
(496,444,l),
(478,611,o),
(420,727,o),
(273,727,cs),
(135,727,o),
(45,604,o),
(45,407,cs),
(45,292,o),
(88,170,o),
(174,42,c)
);
}
);
width = 631;
}
);
}
{
glyphname = u182D.iniV2;
layers = (
{
layerId = UUID0;
shapes = (
{
closed = 1;
nodes = (
(215,112,l),
(158,206,o),
(124,294,o),
(124,400,cs),
(124,489,o),
(167,543,o),
(247,543,cs),
(319,543,o),
(369,485,o),
(377,364,c),
(451,364,l),
(444,509,o),
(384,626,o),
(247,626,cs),
(124,626,o),
(45,537,o),
(45,400,cs),
(45,296,o),
(77,186,o),
(141,70,c)
);
}
);
width = 377;
}
);
}
{
glyphname = u182D_182F.med;
layers = (
{
layerId = UUID0;
shapes = (
{
closed = 1;
nodes = (
(197,85,l),
(118,199,o),
(76,295,o),
(76,417,cs),
(76,571,o),
(134,644,o),
(226,644,cs),
(344,644,o),
(370,534,o),
(382,364,cs),
(401,96,l),
(467,96,l),
(486,364,l),
(696,364,l),
(696,444,l),
(455,444,l),
(447,507,o),
(433,561,o),
(414,605,c),
(414,691,o),
(441,766,o),
(496,848,c),
(496,914,l),
(376,914,ls),
(300,914,o),
(244,917,o),
(196,950,c),
(196,872,l),
(237,836,o),
(299,834,o),
(376,834,cs),
(404,834,l),
(378,791,o),
(361,742,o),
(351,688,c),
(317,714,o),
(276,727,o),
(226,727,cs),
(88,727,o),
(-3,608,o),
(-3,417,cs),
(-3,299,o),
(40,174,o),
(126,42,c)
);
}
);
width = 666;
}
);
}
{
glyphname = u182E.fin;
layers = (
{
layerId = UUID0;
shapes = (
{
closed = 1;
nodes = (
(270,186,ls),
(270,395,o),
(322,544,o),
(445,718,c),
(346,718,l),
(239,571,o),
(191,396,o),
(191,183,c),
(99,234,o),
(73,300,o),
(70,449,cs),
(69,506,o),
(63,558,o),
(49,606,c),
(118,606,o),
(174,610,o),
(213,644,c),
(213,722,l),
(169,690,o),
(117,686,o),
(45,686,cs),
(-27,686,l),
(-27,620,l),
(-9,564,o),
(0,507,o),
(0,449,cs),
(0,364,ls),
(0,212,o),
(112,77,o),
(270,74,c)
);
}
);
width = 455;
}
);
}
{
glyphname = u182E.med;
layers = (
{
layerId = UUID0;
shapes = (
{
closed = 1;
nodes = (
(85,96,l),
(104,364,l),
(314,364,l),
(314,444,l),
(84,444,l),
(81,519,o),
(71,583,o),
(54,639,c),
(90,639,ls),
(170,639,o),
(226,641,o),
(269,677,c),
(269,754,l),
(217,723,o),
(165,719,o),
(90,719,cs),
(-31,719,l),
(-31,653,l),
(0,581,o),
(12,518,o),
(14,444,c),
(0,444,l),
(0,364,l),
(19,96,l)
);
}
);
width = 284;
}
);
}
{
glyphname = u182E_1820_1.finV1;
layers = (
{
layerId = UUID0;
shapes = (
{
closed = 1;
nodes = (
(292,74,l),
(302,219,ls),
(309,326,o),
(335,364,o),
(445,364,cs),
(522,364,l),
(522,444,l),
(444,444,ls),
(360,444,o),
(307,416,o),
(285,361,c),
(281,361,l),
(278,484,o),
(270,602,o),
(229,693,c),
(265,693,ls),
(320,693,o),
(359,696,o),
(383,701,cs),
(407,706,o),
(428,717,o),
(444,731,c),
(444,808,l),
(427,796,o),
(405,788,o),
(380,782,cs),
(355,776,o),
(317,773,o),
(265,773,cs),
(144,773,l),
(144,716,l),
(163,698,o),
(178,674,o),
(189,646,c),
(176,650,o),
(159,653,o),
(139,653,cs),
(100,653,o),
(57,643,o),
(10,623,c),
(10,550,l),
(52,567,o),
(88,575,o),
(118,575,cs),
(180,575,o),
(194,522,o),
(200,437,cs),
(226,74,l)
);
},
{
closed = 1;
nodes = (
(575,-264,l),
(561,-240,o),
(554,-214,o),
(554,-187,cs),
(554,-125,o),
(573,-91,o),
(621,-31,cs),
(669,29,o),
(703,82,o),
(723,123,cs),
(744,165,o),
(754,206,o),
(754,245,cs),
(754,373,o),
(677,444,o),
(523,444,cs),
(447,444,l),
(429,364,l),
(522,364,ls),
(629,364,o),
(676,325,o),
(676,245,cs),
(676,214,o),
(668,183,o),
(652,152,cs),
(636,121,o),
(609,80,o),
(569,28,cs),
(512,-46,o),
(474,-112,o),
(474,-187,cs),
(474,-217,o),
(480,-243,o),
(493,-264,c)
);
}
);
width = 800;
}
);
}
{
glyphname = u182E_182E.med;
layers = (
{
layerId = UUID0;
shapes = (
{
closed = 1;
nodes = (
(85,96,l),
(104,364,l),
(284,364,l),
(303,96,l),
(369,96,l),
(388,364,l),
(598,364,l),
(598,444,l),
(368,444,l),
(367,500,o),
(363,548,o),
(359,589,c),
(374,589,ls),
(456,589,o),
(508,590,o),
(553,627,c),
(553,705,l),
(502,671,o),
(452,669,o),
(374,669,cs),
(279,669,l),
(279,603,l),
(290,557,o),
(296,504,o),
(298,444,c),
(84,444,l),
(83,527,o),
(73,606,o),
(54,679,c),
(100,679,ls),
(140,679,o),
(179,681,o),
(209,700,c),
(209,778,l),
(189,765,o),
(152,759,o),
(100,759,cs),
(-31,759,l),
(-31,693,l),
(-3,618,o),
(12,535,o),
(14,444,c),
(0,444,l),
(0,364,l),
(19,96,l)
);
}
);
width = 568;
}
);
}
{
glyphname = u182E_182F.med;
layers = (
{
layerId = UUID0;
shapes = (
{
closed = 1;
nodes = (
(85,96,l),
(104,364,l),
(284,364,l),
(303,96,l),
(369,96,l),
(388,364,l),
(598,364,l),
(598,444,l),
(376,444,l),
(378,532,o),
(403,609,o),
(452,693,c),
(452,759,l),
(342,759,ls),
(296,759,o),
(254,760,o),
(222,781,c),
(222,703,l),
(249,681,o),
(292,679,o),
(342,679,cs),
(366,679,l),
(329,610,o),
(309,532,o),
(306,444,c),
(84,444,l),
(81,503,o),
(67,555,o),
(41,599,c),
(63,599,ls),
(118,599,o),
(143,603,o),
(162,615,c),
(162,693,l),
(136,680,o),
(104,679,o),
(63,679,cs),
(-51,679,l),
(-51,613,l),
(-8,553,o),
(11,502,o),
(13,444,c),
(0,444,l),
(0,364,l),
(19,96,l)
);
}
);
width = 568;
}
);
}
{
glyphname = u182F.fin;
layers = (
{
layerId = UUID0;
shapes = (
{
closed = 1;
nodes = (
(244,157,ls),
(244,334,o),
(269,496,o),
(338,653,c),
(338,714,l),
(162,714,ls),
(116,714,o),
(80,716,o),
(55,721,cs),
(31,726,o),
(6,735,o),
(-18,750,c),
(-18,672,l),
(0,657,o),
(21,647,o),
(46,642,cs),
(71,637,o),
(110,634,o),
(162,634,cs),
(240,634,l),
(190,503,o),
(165,345,o),
(165,159,c),
(68,213,o),
(48,313,o),
(48,444,c),
(-33,444,l),
(-33,364,ls),
(-33,197,o),
(85,51,o),
(244,45,c)
);
}
);
width = 383;
}
);
}
{
glyphname = u182F.med;
layers = (
{
layerId = UUID0;
shapes = (
{
closed = 1;
nodes = (
(85,96,l),
(104,364,l),
(314,364,l),
(314,444,l),
(86,444,l),
(88,518,o),
(109,581,o),
(148,653,c),
(148,719,l),
(28,719,ls),
(-43,719,o),
(-102,721,o),
(-152,755,c),
(-152,677,l),
(-112,642,o),
(-54,639,o),
(28,639,cs),
(62,639,l),
(34,580,o),
(19,515,o),
(16,444,c),
(0,444,l),
(0,364,l),
(19,96,l)
);
}
);
width = 284;
}
);
}
{
glyphname = u182F.medx;
layers = (
{
layerId = UUID0;
shapes = (
{
closed = 1;
nodes = (
(329,96,l),
(348,364,l),
(558,364,l),
(558,444,l),
(330,444,l),
(333,518,o),
(354,581,o),
(392,653,c),
(392,719,l),
(272,719,ls),
(196,719,o),
(140,722,o),
(92,755,c),
(92,677,l),
(133,641,o),
(188,639,o),
(272,639,cs),
(306,639,l),
(278,580,o),
(263,515,o),
(260,444,c),
(244,444,l),
(244,364,l),
(263,96,l)
);
},
{
closed = 1;
nodes = (
(291,364,l),
(291,444,l),
(0,444,l),
(0,364,l)
);
}
);
width = 527;
}
);
}
{
glyphname = u182F_182F.med;
layers = (
{
layerId = UUID0;
shapes = (
{
closed = 1;
nodes = (
(85,96,l),
(104,364,l),
(304,364,l),
(323,96,l),
(389,96,l),
(408,364,l),
(618,364,l),
(618,444,l),
(390,444,l),
(392,527,o),
(408,610,o),
(441,693,c),
(441,759,l),
(338,759,ls),
(281,759,o),
(241,760,o),
(209,785,c),
(209,707,l),
(240,683,o),
(286,679,o),
(338,679,cs),
(356,679,l),
(333,607,o),
(321,529,o),
(320,444,c),
(86,444,l),
(87,492,o),
(97,545,o),
(117,603,c),
(117,669,l),
(26,669,ls),
(-50,669,o),
(-108,672,o),
(-153,705,c),
(-153,627,l),
(-113,592,o),
(-51,589,o),
(26,589,cs),
(32,589,l),
(23,546,o),
(18,498,o),
(16,444,c),
(0,444,l),
(0,364,l),
(19,96,l)
);
}
);
width = 588;
}
);
}
{
glyphname = u1830.fin;
layers = (
{
layerId = UUID0;
shapes = (
{
closed = 1;
nodes = (
(105,73,l),
(92,124,o),
(86,191,o),
(86,276,cs),
(86,395,o),
(111,495,o),
(166,613,c),
(170,613,l),
(179,519,o),
(197,431,o),
(222,350,cs),
(247,268,o),
(283,187,o),
(328,106,c),
(408,106,l),
(449,309,o),
(520,478,o),
(640,642,c),
(543,642,l),
(457,520,o),
(392,375,o),
(358,223,c),
(354,223,l),
(313,308,o),
(283,392,o),
(265,475,cs),
(247,558,o),
(238,644,o),
(238,734,c),
(157,734,l),
(94,640,o),
(53,543,o),
(32,444,c),
(0,444,l),
(0,364,ls),
(0,276,o),
(11,168,o),
(27,73,c)
);
}
);
width = 685;
}
);
}
{
glyphname = u1830.finV1;
layers = (
{
layerId = UUID0;
shapes = (
{
closed = 1;
nodes = (
(151,106,l),
(194,312,o),
(264,478,o),
(383,642,c),
(286,642,l),
(202,525,o),
(131,365,o),
(101,223,c),
(97,223,l),
(46,284,o),
(37,351,o),
(37,444,c),
(-33,444,l),
(-33,364,ls),
(-33,278,o),
(17,178,o),
(80,106,c)
);
}
);
width = 428;
}
);
}
{
glyphname = u1830.finV2;
layers = (
{
layerId = UUID0;
shapes = (
{
closed = 1;
nodes = (
(105,73,l),
(97,106,o),
(93,148,o),
(93,199,cs),
(93,350,o),
(123,481,o),
(197,617,c),
(201,617,l),
(217,419,o),
(256,247,o),
(334,73,c),
(419,73,l),
(373,168,o),
(337,265,o),
(313,364,c),
(611,364,ls),
(682,364,o),
(709,333,o),
(709,279,cs),
(709,235,o),
(702,196,o),
(687,162,c),
(761,162,l),
(778,199,o),
(786,238,o),
(786,279,cs),
(786,389,o),
(728,444,o),
(611,444,cs),
(296,444,l),
(279,539,o),
(271,636,o),
(271,734,c),
(190,734,l),
(125,645,o),
(79,548,o),
(50,444,c),
(0,444,l),
(0,364,ls),
(0,276,o),
(11,159,o),
(28,73,c)
);
}
);
width = 831;
}
);
}
{
glyphname = u1830.med;
layers = (
{
layerId = UUID0;
shapes = (
{
closed = 1;
nodes = (
(105,73,l),
(97,106,o),
(93,148,o),
(93,199,cs),
(93,350,o),
(123,481,o),
(197,617,c),
(201,617,l),
(217,419,o),
(256,247,o),
(334,73,c),
(419,73,l),
(373,168,o),
(337,265,o),
(313,364,c),
(611,364,l),
(611,444,l),
(296,444,l),
(279,539,o),
(271,636,o),
(271,734,c),
(190,734,l),
(125,645,o),
(79,548,o),
(50,444,c),
(0,444,l),
(0,364,ls),
(0,276,o),
(11,159,o),
(28,73,c)
);
}
);
width = 581;
}
);
}
{
glyphname = u1832.fin;
layers = (
{
layerId = UUID0;
shapes = (
{
closed = 1;
nodes = (
(425,96,l),
(444,364,l),
(654,364,ls),
(725,364,o),
(752,333,o),
(752,279,cs),
(752,235,o),
(745,196,o),
(730,162,c),
(804,162,l),
(821,199,o),
(829,238,o),
(829,279,cs),
(829,389,o),
(771,444,o),
(654,444,cs),
(414,444,l),
(406,643,o),
(361,777,o),
(197,777,cs),
(79,777,o),
(-1,691,o),
(-1,563,cs),
(-1,522,o),
(7,482,o),
(24,444,c),
(0,444,l),
(0,364,l),
(340,364,l),
(359,96,l)
);
},
{
closed = 1;
nodes = (
(86,471,o),
(78,511,o),
(78,563,cs),
(78,642,o),
(121,694,o),
(197,694,cs),
(301,694,o),
(329,584,o),
(334,444,c),
(101,444,l)
);
}
);
width = 874;
}
);
}
{
glyphname = u1832.med;
layers = (
{
layerId = UUID0;
shapes = (
{
closed = 1;
nodes = (
(419,-157,o),
(491,-83,o),
(491,27,cs),
(491,152,o),
(414,232,o),
(290,232,cs),
(228,232,o),
(174,201,o),
(142,154,c),
(117,225,o),
(96,295,o),
(79,364,c),
(643,364,l),
(643,444,l),
(0,444,l),
(0,364,l),
(23,266,o),
(50,174,o),
(84,88,cs),
(141,-55,o),
(201,-157,o),
(319,-157,cs)
);
},
{
closed = 1;
nodes = (
(263,-77,o),
(217,-33,o),
(172,76,c),
(195,123,o),
(239,153,o),
(290,153,cs),
(373,153,o),
(413,103,o),
(413,27,cs),
(413,-38,o),
(375,-77,o),
(319,-77,cs)
);
}
);
width = 613;
}
);
}
{
glyphname = u1832.medV1;
layers = (
{
layerId = UUID0;
shapes = (
{
closed = 1;
nodes = (
(425,96,l),
(444,364,l),
(654,364,l),
(654,444,l),
(414,444,l),
(406,640,o),
(361,777,o),
(197,777,cs),
(79,777,o),
(-1,691,o),
(-1,563,cs),
(-1,522,o),
(7,482,o),
(24,444,c),
(0,444,l),
(0,364,l),
(340,364,l),
(359,96,l)
);
},
{
closed = 1;
nodes = (
(86,471,o),
(78,511,o),
(78,563,cs),
(78,642,o),
(121,694,o),
(197,694,cs),
(301,694,o),
(329,584,o),
(334,444,c),
(101,444,l)
);
}
);
width = 624;
}
);
}
{
glyphname = u1833.fin;
layers = (
{
layerId = UUID0;
shapes = (
{
closed = 1;
nodes = (
(324,40,o),
(395,123,o),
(395,249,cs),
(395,293,o),
(388,331,o),
(373,364,c),
(540,364,l),
(540,207,o),
(640,63,o),
(801,53,c),
(801,156,ls),
(801,398,o),
(853,665,o),
(990,836,c),
(898,836,l),
(776,677,o),
(724,399,o),
(724,156,c),
(631,211,o),
(614,307,o),
(614,444,c),
(0,444,l),
(0,364,l),
(20,364,l),
(7,333,o),
(0,294,o),
(0,249,cs),
(0,116,o),
(69,40,o),
(197,40,cs)
);
},
{
closed = 1;
nodes = (
(118,123,o),
(79,166,o),
(79,251,cs),
(79,295,o),
(86,333,o),
(99,364,c),
(296,364,l),
(309,333,o),
(316,295,o),
(316,251,cs),
(316,166,o),
(271,123,o),
(197,123,cs)
);
}
);
width = 1000;
}
);
}
{
glyphname = u1833.finV1;
layers = (
{
layerId = UUID0;
shapes = (
{
closed = 1;
nodes = (
(419,-157,o),
(491,-83,o),
(491,27,cs),
(491,152,o),
(414,232,o),
(290,232,cs),
(228,232,o),
(174,201,o),
(142,154,c),
(117,225,o),
(96,295,o),
(79,364,c),
(643,364,ls),
(713,364,o),
(741,333,o),
(741,279,cs),
(741,236,o),
(734,197,o),
(719,162,c),
(793,162,l),
(810,197,o),
(818,236,o),
(818,279,cs),
(818,389,o),
(760,444,o),
(643,444,cs),
(0,444,l),
(0,364,l),
(23,266,o),
(50,174,o),
(84,88,cs),
(141,-55,o),
(201,-157,o),
(319,-157,cs)
);
},
{
closed = 1;
nodes = (
(263,-77,o),
(217,-33,o),
(172,76,c),
(195,123,o),
(239,153,o),
(290,153,cs),
(373,153,o),
(413,103,o),
(413,27,cs),
(413,-38,o),
(375,-77,o),
(319,-77,cs)
);
}
);
width = 863;
}
);
}
{
glyphname = u1834.fin;
layers = (
{
layerId = UUID0;
shapes = (
{
closed = 1;
nodes = (
(68,57,o),
(138,63,o),
(235,63,cs),
(356,63,l),
(356,129,l),
(329,209,o),
(315,280,o),
(315,364,c),
(560,364,ls),
(630,364,o),
(658,333,o),
(658,279,cs),
(658,236,o),
(651,197,o),
(636,162,c),
(710,162,l),
(727,197,o),
(735,236,o),
(735,279,cs),
(735,389,o),
(677,444,o),
(560,444,cs),
(0,444,l),
(0,364,l),
(241,364,l),
(241,279,o),
(251,206,o),
(271,143,c),
(235,143,ls),
(141,143,o),
(63,141,o),
(0,101,c),
(0,16,l)
);
}
);
width = 780;
}
);
}
{
glyphname = u1834.med;
layers = (
{
layerId = UUID0;
shapes = (
{
closed = 1;
nodes = (
(68,57,o),
(138,63,o),
(235,63,cs),
(356,63,l),
(356,129,l),
(329,209,o),
(315,280,o),
(315,364,c),
(560,364,l),
(560,444,l),
(0,444,l),
(0,364,l),
(241,364,l),
(241,279,o),
(251,206,o),
(271,143,c),
(235,143,ls),
(141,143,o),
(63,141,o),
(0,101,c),
(0,16,l)
);
}
);
width = 530;
}
);
}
{
glyphname = u1835.med;
layers = (
{
layerId = UUID0;
shapes = (
{
closed = 1;
nodes = (
(43,44,o),
(89,77,o),
(137,103,cs),
(245,161,ls),
(318,200,o),
(351,262,o),
(351,364,c),
(560,364,l),
(560,444,l),
(0,444,l),
(0,364,l),
(274,364,l),
(274,293,o),
(255,254,o),
(196,222,cs),
(114,178,ls),
(59,149,o),
(22,122,o),
(0,100,c),
(0,5,l)
);
}
);
width = 530;
}
);
}
{
glyphname = u1836.med;
layers = (
{
layerId = UUID0;
shapes = (
{
closed = 1;
nodes = (
(94,-95,o),
(198,-27,o),
(233,-7,c),
(179,94,o),
(105,262,o),
(78,364,c),
(391,364,l),
(391,444,l),
(0,444,l),
(0,364,l),
(29,252,o),
(71,139,o),
(126,25,c),
(91,-4,o),
(59,-36,o),
(27,-70,c),
(65,-119,l)
);
}
);
width = 361;
}
);
}
{
glyphname = u1836.medV2;
layers = (
{
layerId = UUID0;
shapes = (
{
closed = 1;
nodes = (
(199,85,l),
(125,188,o),
(77,287,o),
(77,407,cs),
(77,544,o),
(134,609,o),
(226,609,cs),
(342,609,o),
(371,514,o),
(381,364,c),
(455,364,l),
(445,587,o),
(375,692,o),
(226,692,cs),
(77,692,o),
(-2,573,o),
(-2,407,cs),
(-2,292,o),
(41,170,o),
(127,42,c)
);
}
);
width = 381;
}
);
}
{
glyphname = u1837.fin;
layers = (
{
layerId = UUID0;
shapes = (
{
closed = 1;
nodes = (
(208,55,l),
(162,119,o),
(128,179,o),
(107,236,c),
(193,236,ls),
(275,236,o),
(309,192,o),
(309,115,cs),
(309,88,o),
(304,65,o),
(294,47,c),
(374,47,l),
(385,68,o),
(390,95,o),
(390,126,cs),
(390,241,o),
(319,315,o),
(196,315,cs),
(85,315,l),
(80,339,o),
(77,370,o),
(77,407,cs),
(77,536,o),
(120,642,o),
(229,642,cs),
(317,642,o),
(369,558,o),
(379,409,c),
(459,419,l),
(448,591,o),
(381,725,o),
(229,725,cs),
(74,725,o),
(-2,587,o),
(-2,407,cs),
(-2,284,o),
(44,152,o),
(137,12,c)
);
}
);
width = 504;
}
);
}
{
glyphname = u1837.med;
layers = (
{
layerId = UUID0;
shapes = (
{
closed = 1;
nodes = (
(254,-96,l),
(209,-13,o),
(174,67,o),
(146,143,c),
(230,143,ls),
(320,143,o),
(357,97,o),
(357,13,cs),
(357,-19,o),
(352,-44,o),
(342,-65,c),
(421,-65,l),
(432,-38,o),
(437,-9,o),
(437,24,cs),
(437,144,o),
(362,223,o),
(233,223,cs),
(117,223,l),
(103,265,o),
(90,312,o),
(78,364,c),
(589,364,l),
(589,444,l),
(0,444,l),
(0,364,l),
(39,198,o),
(99,33,o),
(181,-131,c)
);
}
);
width = 559;
}
);
}
{
glyphname = u1838.fin;
layers = (
{
layerId = UUID0;
shapes = (
{
closed = 1;
nodes = (
(346,-119,o),
(377,-106,o),
(392,-85,c),
(392,6,l),
(373,-22,o),
(345,-36,o),
(309,-36,cs),
(244,-36,o),
(202,49,o),
(156,152,cs),
(124,224,o),
(99,294,o),
(79,364,c),
(488,364,ls),
(559,364,o),
(586,333,o),
(586,279,cs),
(586,235,o),
(579,196,o),
(564,162,c),
(638,162,l),
(655,199,o),
(663,238,o),
(663,279,cs),
(663,389,o),
(604,444,o),
(488,444,cs),
(0,444,l),
(0,364,l),
(20,292,o),
(42,223,o),
(68,157,cs),
(132,-6,o),
(187,-119,o),
(309,-119,cs)
);
}
);
width = 708;
}
);
}
{
glyphname = u1839.fin;
layers = (
{
layerId = UUID0;
shapes = (
{
closed = 1;
nodes = (
(479,-264,l),
(465,-238,o),
(458,-213,o),
(458,-187,cs),
(458,-119,o),
(482,-79,o),
(536,-7,cs),
(594,70,o),
(636,139,o),
(663,199,cs),
(690,259,o),
(702,324,o),
(702,390,cs),
(702,634,o),
(569,782,o),
(344,782,cs),
(123,782,o),
(-1,640,o),
(-1,408,cs),
(-1,203,o),
(49,83,o),
(155,50,c),
(134,13,o),
(123,-25,o),
(123,-64,cs),
(123,-112,o),
(133,-152,o),
(153,-182,c),
(243,-182,l),
(218,-148,o),
(205,-108,o),
(205,-63,cs),
(205,-25,o),
(212,9,o),
(225,40,c),
(228,40,ls),
(330,40,o),
(405,138,o),
(405,275,cs),
(405,316,o),
(395,403,o),
(382,444,c),
(78,444,l),
(82,606,o),
(182,699,o),
(344,699,cs),
(523,699,o),
(623,583,o),
(623,388,cs),
(623,330,o),
(613,277,o),
(594,230,cs),
(575,183,o),
(539,123,o),
(484,50,cs),
(420,-35,o),
(378,-102,o),
(378,-187,cs),
(378,-214,o),
(384,-239,o),
(397,-264,c)
);
},
{
closed = 1;
nodes = (
(127,123,o),
(81,203,o),
(78,364,c),
(316,364,l),
(323,343,o),
(326,313,o),
(326,275,cs),
(326,190,o),
(291,123,o),
(218,123,cs)
);
}
);
width = 747;
}
);
}
{
glyphname = u1839.ini;
layers = (
{
layerId = UUID0;
shapes = (
{
closed = 1;
nodes = (
(289,-182,l),
(264,-148,o),
(251,-108,o),
(251,-63,cs),
(251,-25,o),
(258,9,o),
(271,40,c),
(275,40,ls),
(376,40,o),
(451,138,o),
(451,274,cs),
(451,311,o),
(440,410,o),
(428,444,c),
(124,444,l),
(126,590,o),
(198,699,o),
(335,699,cs),
(467,699,o),
(552,576,o),
(557,364,c),
(631,364,l),
(631,586,o),
(532,782,o),
(336,782,cs),
(141,782,o),
(45,624,o),
(45,408,cs),
(45,202,o),
(96,83,o),
(201,50,c),
(180,14,o),
(169,-24,o),
(169,-64,cs),
(169,-113,o),
(179,-152,o),
(199,-182,c)
);
},
{
closed = 1;
nodes = (
(173,123,o),
(126,203,o),
(124,364,c),
(362,364,l),
(369,345,o),
(372,315,o),
(372,275,cs),
(372,190,o),
(337,123,o),
(264,123,cs)
);
}
);
width = 557;
}
);
}
{
glyphname = u1839_1820;
layers = (
{
layerId = UUID0;
shapes = (
{
closed = 1;
nodes = (
(946,-264,l),
(932,-238,o),
(925,-213,o),
(925,-187,cs),
(925,-124,o),
(943,-95,o),
(992,-31,cs),
(1066,66,o),
(1125,155,o),
(1125,245,cs),
(1125,373,o),
(1047,444,o),
(894,444,cs),
(652,444,l),
(625,637,o),
(535,782,o),
(352,782,cs),
(151,782,o),
(45,630,o),
(45,408,cs),
(45,202,o),
(96,83,o),
(201,50,c),
(180,14,o),
(169,-24,o),
(169,-64,cs),
(169,-113,o),
(179,-152,o),
(199,-182,c),
(289,-182,l),
(264,-148,o),
(251,-108,o),
(251,-63,cs),
(251,-25,o),
(258,9,o),
(271,40,c),
(275,40,ls),
(376,40,o),
(451,138,o),
(451,273,cs),
(451,310,o),
(440,410,o),
(428,444,c),
(124,444,l),
(126,592,o),
(204,699,o),
(352,699,cs),
(493,699,o),
(563,586,o),
(579,364,cs),
(598,96,l),
(664,96,l),
(683,364,l),
(893,364,ls),
(1000,364,o),
(1047,325,o),
(1047,243,cs),
(1047,175,o),
(1008,116,o),
(940,28,cs),
(885,-44,o),
(845,-110,o),
(845,-187,cs),
(845,-217,o),
(852,-242,o),
(864,-264,c)
);
},
{
closed = 1;
nodes = (
(173,123,o),
(126,203,o),
(124,364,c),
(362,364,l),
(369,345,o),
(372,311,o),
(372,271,cs),
(372,186,o),
(334,123,o),
(264,123,cs)
);
}
);
width = 1170;
}
);
}
{
glyphname = u1839_1820.ini;
layers = (
{
layerId = UUID0;
shapes = (
{
closed = 1;
nodes = (
(289,-182,l),
(264,-148,o),
(251,-108,o),
(251,-63,cs),
(251,-25,o),
(258,9,o),
(271,40,c),
(280,40,ls),
(363,40,o),
(451,125,o),
(451,272,cs),
(451,309,o),
(440,410,o),
(428,444,c),
(124,444,l),
(126,592,o),
(204,699,o),
(352,699,cs),
(493,699,o),
(563,586,o),
(579,364,cs),
(598,96,l),
(664,96,l),
(683,364,l),
(893,364,l),
(893,444,l),
(652,444,l),
(625,637,o),
(535,782,o),
(352,782,cs),
(150,782,o),
(45,630,o),
(45,408,cs),
(45,202,o),
(96,83,o),
(201,50,c),
(180,14,o),
(169,-24,o),
(169,-64,cs),
(169,-113,o),
(179,-152,o),
(199,-182,c)
);
},
{
closed = 1;
nodes = (
(173,123,o),
(126,203,o),
(124,364,c),
(362,364,l),
(369,345,o),
(372,314,o),
(372,274,cs),
(372,189,o),
(336,123,o),
(264,123,cs)
);
}
);
width = 863;
}
);
}
{
glyphname = u1839_1822;
layers = (
{
layerId = UUID0;
shapes = (
{
closed = 1;
nodes = (
(289,-182,l),
(264,-148,o),
(251,-108,o),
(251,-63,cs),
(251,-25,o),
(258,9,o),
(271,40,c),
(277,40,ls),
(375,40,o),
(451,138,o),
(451,273,cs),
(451,310,o),
(440,410,o),
(428,444,c),
(124,444,l),
(126,588,o),
(194,699,o),
(330,699,cs),
(469,699,o),
(523,589,o),
(552,418,cs),
(584,231,o),
(631,122,o),
(729,-67,c),
(802,-31,l),
(722,113,o),
(668,238,o),
(642,364,c),
(947,364,ls),
(1018,364,o),
(1045,333,o),
(1045,279,cs),
(1045,235,o),
(1038,196,o),
(1023,162,c),
(1097,162,l),
(1114,199,o),
(1122,238,o),
(1122,279,cs),
(1122,389,o),
(1063,444,o),
(947,444,cs),
(627,444,l),
(589,650,o),
(514,782,o),
(330,782,cs),
(138,782,o),
(45,624,o),
(45,408,cs),
(45,202,o),
(96,83,o),
(201,50,c),
(180,14,o),
(169,-24,o),
(169,-64,cs),
(169,-113,o),
(179,-152,o),
(199,-182,c)
);
},
{
closed = 1;
nodes = (
(173,123,o),
(126,203,o),
(124,364,c),
(362,364,l),
(369,345,o),
(372,315,o),
(372,275,cs),
(372,189,o),
(337,123,o),
(264,123,cs)
);
}
);
width = 1167;
}
);
}
{
glyphname = u1839_1822.ini;
layers = (
{
layerId = UUID0;
shapes = (
{
closed = 1;
nodes = (
(289,-182,l),
(264,-148,o),
(251,-108,o),
(251,-63,cs),
(251,-25,o),
(258,9,o),
(271,40,c),
(276,40,ls),
(375,40,o),
(451,137,o),
(451,274,cs),
(451,311,o),
(440,410,o),
(428,444,c),
(124,444,l),
(126,588,o),
(194,699,o),
(330,699,cs),
(469,699,o),
(523,589,o),
(552,418,cs),
(584,231,o),
(631,122,o),
(729,-67,c),
(802,-31,l),
(722,113,o),
(668,238,o),
(642,364,c),
(947,364,l),
(947,444,l),
(627,444,l),
(589,650,o),
(514,782,o),
(330,782,cs),
(138,782,o),
(45,624,o),
(45,408,cs),
(45,202,o),
(96,83,o),
(201,50,c),
(180,14,o),
(169,-24,o),
(169,-64,cs),
(169,-113,o),
(179,-152,o),
(199,-182,c)
);
},
{
closed = 1;
nodes = (
(173,123,o),
(126,203,o),
(124,364,c),
(362,364,l),
(369,345,o),
(372,315,o),
(372,275,cs),
(372,190,o),
(337,123,o),
(264,123,cs)
);
}
);
width = 917;
}
);
}
{
glyphname = u1839_1823;
layers = (
{
layerId = UUID0;
shapes = (
{
closed = 1;
nodes = (
(288,-182,l),
(263,-148,o),
(250,-108,o),
(250,-63,cs),
(250,-23,o),
(257,11,o),
(271,41,c),
(323,47,o),
(372,79,o),
(396,135,c),
(424,71,o),
(474,40,o),
(538,40,cs),
(683,40,o),
(752,146,o),
(752,375,cs),
(752,607,o),
(632,782,o),
(405,782,cs),
(178,782,o),
(45,617,o),
(45,375,cs),
(45,173,o),
(97,70,o),
(198,45,c),
(178,10,o),
(168,-26,o),
(168,-64,cs),
(168,-113,o),
(178,-152,o),
(198,-182,c)
);
},
{
closed = 1;
nodes = (
(144,123,o),
(124,224,o),
(124,364,c),
(359,364,l),
(359,281,ls),
(359,189,o),
(320,123,o),
(248,123,cs)
);
},
{
closed = 1;
nodes = (
(471,123,o),
(438,177,o),
(438,286,cs),
(438,364,l),
(673,364,l),
(668,188,o),
(638,123,o),
(538,123,cs)
);
},
{
closed = 1;
nodes = (
(145,605,o),
(236,699,o),
(405,699,cs),
(556,699,o),
(647,596,o),
(668,444,c),
(127,444,l)
);
}
);
width = 797;
}
);
}
{
glyphname = u1839_1823.ini;
layers = (
{
layerId = UUID0;
shapes = (
{
closed = 1;
nodes = (
(288,-182,l),
(263,-148,o),
(250,-108,o),
(250,-63,cs),
(250,-23,o),
(257,11,o),
(271,41,c),
(323,47,o),
(372,79,o),
(396,135,c),
(424,71,o),
(474,40,o),
(538,40,cs),
(681,40,o),
(750,146,o),
(752,364,c),
(963,364,l),
(963,444,l),
(748,444,l),
(726,652,o),
(598,782,o),
(405,782,cs),
(178,782,o),
(45,617,o),
(45,375,cs),
(45,173,o),
(97,70,o),
(198,45,c),
(178,10,o),
(168,-26,o),
(168,-64,cs),
(168,-113,o),
(178,-152,o),
(198,-182,c)
);
},
{
closed = 1;
nodes = (
(145,123,o),
(124,222,o),
(124,364,c),
(359,364,l),
(359,285,ls),
(359,194,o),
(325,123,o),
(249,123,cs)
);
},
{
closed = 1;
nodes = (
(471,123,o),
(438,177,o),
(438,286,cs),
(438,364,l),
(673,364,l),
(668,188,o),
(638,123,o),
(538,123,cs)
);
},
{
closed = 1;
nodes = (
(147,605,o),
(234,699,o),
(405,699,cs),
(556,699,o),
(647,596,o),
(668,444,c),
(127,444,l)
);
}
);
width = 933;
}
);
}
{
glyphname = u183A.fin;
layers = (
{
layerId = UUID0;
shapes = (
{
closed = 1;
nodes = (
(341,-264,l),
(327,-238,o),
(320,-213,o),
(320,-187,cs),
(320,-121,o),
(348,-76,o),
(403,-7,cs),
(512,130,o),
(575,239,o),
(575,388,cs),
(575,588,o),
(475,727,o),
(284,727,cs),
(112,727,o),
(0,609,o),
(0,419,cs),
(0,96,l),
(66,96,l),
(74,215,l),
(94,171,o),
(125,124,o),
(166,73,c),
(228,128,l),
(150,219,o),
(79,319,o),
(79,419,cs),
(79,560,o),
(150,644,o),
(284,644,cs),
(422,644,o),
(497,542,o),
(497,388,cs),
(497,260,o),
(449,172,o),
(350,50,cs),
(281,-35,o),
(240,-98,o),
(240,-187,cs),
(240,-214,o),
(247,-240,o),
(259,-264,c)
);
}
);
width = 620;
}
);
}
{
glyphname = u183A.ini;
layers = (
{
layerId = UUID0;
shapes = (
{
closed = 1;
nodes = (
(306,90,l),
(181,225,o),
(124,329,o),
(124,419,cs),
(124,546,o),
(166,644,o),
(274,644,cs),
(394,644,o),
(418,530,o),
(429,364,c),
(503,364,l),
(493,610,o),
(422,727,o),
(274,727,cs),
(121,727,o),
(45,594,o),
(45,419,cs),
(45,96,l),
(111,96,l),
(119,215,l),
(146,157,o),
(188,97,o),
(244,35,c)
);
}
);
width = 429;
}
);
}
{
glyphname = u183A_1820;
layers = (
{
layerId = UUID0;
shapes = (
{
closed = 1;
nodes = (
(797,-264,l),
(783,-238,o),
(776,-213,o),
(776,-187,cs),
(776,-127,o),
(794,-93,o),
(843,-31,cs),
(917,64,o),
(976,155,o),
(976,245,cs),
(976,373,o),
(898,444,o),
(745,444,cs),
(503,444,l),
(482,614,o),
(424,727,o),
(274,727,cs),
(121,727,o),
(45,594,o),
(45,419,cs),
(45,96,l),
(111,96,l),
(119,215,l),
(146,157,o),
(188,97,o),
(244,35,c),
(306,90,l),
(181,225,o),
(124,329,o),
(124,419,cs),
(124,546,o),
(166,644,o),
(274,644,cs),
(394,644,o),
(418,534,o),
(430,364,cs),
(449,96,l),
(515,96,l),
(534,364,l),
(744,364,ls),
(851,364,o),
(898,325,o),
(898,243,cs),
(898,175,o),
(859,116,o),
(791,28,cs),
(736,-44,o),
(696,-108,o),
(696,-187,cs),
(696,-216,o),
(702,-242,o),
(715,-264,c)
);
}
);
width = 1021;
}
);
}
{
glyphname = u183A_1820.ini;
layers = (
{
layerId = UUID0;
shapes = (
{
closed = 1;
nodes = (
(306,90,l),
(181,225,o),
(124,329,o),
(124,419,cs),
(124,546,o),
(166,644,o),
(274,644,cs),
(394,644,o),
(418,534,o),
(430,364,cs),
(449,96,l),
(515,96,l),
(534,364,l),
(744,364,l),
(744,444,l),
(503,444,l),
(482,614,o),
(424,727,o),
(274,727,cs),
(121,727,o),
(45,594,o),
(45,419,cs),
(45,96,l),
(111,96,l),
(119,215,l),
(146,157,o),
(188,97,o),
(244,35,c)
);
}
);
width = 714;
}
);
}
{
glyphname = u183A_1822;
layers = (
{
layerId = UUID0;
shapes = (
{
closed = 1;
nodes = (
(695,-31,l),
(611,101,o),
(558,232,o),
(533,364,c),
(840,364,ls),
(911,364,o),
(938,333,o),
(938,279,cs),
(938,236,o),
(931,197,o),
(916,162,c),
(990,162,l),
(1007,199,o),
(1015,238,o),
(1015,279,cs),
(1015,389,o),
(957,444,o),
(840,444,cs),
(523,444,l),
(501,628,o),
(443,760,o),
(287,760,cs),
(125,760,o),
(45,608,o),
(45,419,cs),
(45,96,l),
(111,96,l),
(119,215,l),
(146,157,o),
(188,97,o),
(244,35,c),
(306,90,l),
(181,225,o),
(124,329,o),
(124,419,cs),
(124,559,o),
(170,677,o),
(287,677,cs),
(400,677,o),
(427,577,o),
(447,418,cs),
(468,253,o),
(530,82,o),
(622,-67,c)
);
}
);
width = 1060;
}
);
}
{
glyphname = u183A_1822.ini;
layers = (
{
layerId = UUID0;
shapes = (
{
closed = 1;
nodes = (
(695,-31,l),
(611,101,o),
(558,232,o),
(533,364,c),
(840,364,l),
(840,444,l),
(523,444,l),
(501,628,o),
(444,760,o),
(287,760,cs),
(125,760,o),
(45,608,o),
(45,419,cs),
(45,96,l),
(111,96,l),
(119,215,l),
(146,157,o),
(188,97,o),
(244,35,c),
(306,90,l),
(181,225,o),
(124,329,o),
(124,419,cs),
(124,559,o),
(170,677,o),
(287,677,cs),
(400,677,o),
(427,576,o),
(447,418,cs),
(468,253,o),
(530,83,o),
(622,-67,c)
);
}
);
width = 810;
}
);
}
{
glyphname = u183A_1823.ini;
layers = (
{
layerId = UUID0;
shapes = (
{
closed = 1;
nodes = (
(286,80,l),
(199,189,o),
(124,303,o),
(124,419,cs),
(124,576,o),
(214,677,o),
(365,677,cs),
(503,677,o),
(586,599,o),
(614,444,c),
(367,444,l),
(342,397,o),
(329,330,o),
(329,275,cs),
(329,133,o),
(391,40,o),
(519,40,cs),
(626,40,o),
(704,147,o),
(704,303,cs),
(704,324,o),
(704,344,o),
(702,364,c),
(915,364,l),
(915,444,l),
(693,444,l),
(658,649,o),
(545,760,o),
(365,760,cs),
(169,760,o),
(45,624,o),
(45,408,cs),
(45,76,l),
(111,76,l),
(119,192,l),
(142,147,o),
(177,95,o),
(224,35,c)
);
},
{
closed = 1;
nodes = (
(443,123,o),
(408,174,o),
(408,275,cs),
(408,312,o),
(414,342,o),
(424,364,c),
(623,364,l),
(625,344,o),
(625,324,o),
(625,303,cs),
(625,183,o),
(579,123,o),
(512,123,cs)
);
}
);
width = 885;
}
);
}
{
glyphname = u183A_1825.V1;
layers = (
{
layerId = UUID0;
shapes = (
{
closed = 1;
nodes = (
(286,80,l),
(198,189,o),
(124,303,o),
(124,419,cs),
(124,576,o),
(214,677,o),
(365,677,cs),
(503,677,o),
(586,599,o),
(614,444,c),
(367,444,l),
(343,397,o),
(329,330,o),
(329,275,cs),
(329,134,o),
(390,40,o),
(518,40,cs),
(626,40,o),
(704,147,o),
(704,302,cs),
(704,323,o),
(704,344,o),
(702,364,c),
(915,364,ls),
(985,364,o),
(1013,333,o),
(1013,279,cs),
(1013,236,o),
(1006,197,o),
(991,162,c),
(1065,162,l),
(1082,197,o),
(1090,236,o),
(1090,279,cs),
(1090,389,o),
(1032,444,o),
(915,444,cs),
(693,444,l),
(658,649,o),
(545,760,o),
(365,760,cs),
(169,760,o),
(45,624,o),
(45,408,cs),
(45,76,l),
(111,76,l),
(119,192,l),
(142,147,o),
(177,95,o),
(224,35,c)
);
},
{
closed = 1;
nodes = (
(443,123,o),
(408,174,o),
(408,275,cs),
(408,312,o),
(414,342,o),
(424,364,c),
(623,364,l),
(625,344,o),
(625,324,o),
(625,303,cs),
(625,183,o),
(579,123,o),
(512,123,cs)
);
}
);
width = 1135;
}
);
}
{
glyphname = u183A_1827;
layers = (
{
layerId = UUID0;
shapes = (
{
closed = 1;
nodes = (
(774,-119,o),
(805,-106,o),
(819,-85,c),
(819,6,l),
(801,-22,o),
(773,-36,o),
(737,-36,cs),
(678,-36,o),
(637,33,o),
(599,117,cs),
(566,190,o),
(542,271,o),
(530,364,c),
(915,364,ls),
(985,364,o),
(1013,333,o),
(1013,279,cs),
(1013,236,o),
(1006,197,o),
(991,162,c),
(1065,162,l),
(1082,197,o),
(1090,236,o),
(1090,279,cs),
(1090,389,o),
(1032,444,o),
(915,444,cs),
(521,444,l),
(499,627,o),
(443,760,o),
(287,760,cs),
(125,760,o),
(45,608,o),
(45,419,cs),
(45,96,l),
(111,96,l),
(119,215,l),
(146,157,o),
(188,97,o),
(244,35,c),
(306,90,l),
(181,225,o),
(124,329,o),
(124,419,cs),
(124,559,o),
(170,677,o),
(287,677,cs),
(398,677,o),
(428,570,o),
(445,418,cs),
(460,280,o),
(493,154,o),
(547,41,cs),
(594,-58,o),
(644,-119,o),
(737,-119,cs)
);
}
);
width = 1135;
}
);
}
{
glyphname = u183A_1827.ini;
layers = (
{
layerId = UUID0;
shapes = (
{
closed = 1;
nodes = (
(774,-119,o),
(805,-106,o),
(819,-85,c),
(819,6,l),
(801,-22,o),
(773,-36,o),
(737,-36,cs),
(678,-36,o),
(637,33,o),
(599,117,cs),
(566,190,o),
(542,271,o),
(530,364,c),
(915,364,l),
(915,444,l),
(521,444,l),
(499,627,o),
(443,760,o),
(287,760,cs),
(125,760,o),
(45,608,o),
(45,419,cs),
(45,96,l),
(111,96,l),
(119,215,l),
(146,157,o),
(188,97,o),
(244,35,c),
(306,90,l),
(181,225,o),
(124,329,o),
(124,419,cs),
(124,559,o),
(170,677,o),
(287,677,cs),
(398,677,o),
(428,570,o),
(445,418,cs),
(460,280,o),
(493,154,o),
(547,41,cs),
(594,-58,o),
(644,-119,o),
(737,-119,cs)
);
}
);
width = 885;
}
);
}
{
glyphname = u183A_1844.ini;
layers = (
{
layerId = UUID0;
shapes = (
{
closed = 1;
nodes = (
(808,92,l),
(787,110,o),
(752,119,o),
(703,119,cs),
(662,119,ls),
(571,119,o),
(525,167,o),
(525,263,cs),
(525,364,l),
(960,364,l),
(960,444,l),
(524,444,l),
(516,614,o),
(445,760,o),
(287,760,cs),
(125,760,o),
(45,608,o),
(45,419,cs),
(45,96,l),
(111,96,l),
(119,215,l),
(139,170,o),
(182,107,o),
(244,35,c),
(306,90,l),
(181,225,o),
(124,329,o),
(124,419,cs),
(124,559,o),
(170,677,o),
(287,677,cs),
(393,677,o),
(446,583,o),
(446,404,cs),
(446,263,ls),
(446,109,o),
(523,36,o),
(662,36,cs),
(703,36,ls),
(753,36,o),
(788,27,o),
(808,9,c)
);
}
);
width = 930;
}
);
}
{
glyphname = u183A_1845;
layers = (
{
layerId = UUID0;
shapes = (
{
closed = 1;
nodes = (
(868,92,l),
(849,108,o),
(812,119,o),
(763,119,cs),
(734,119,l),
(734,364,l),
(1020,364,ls),
(1091,364,o),
(1118,333,o),
(1118,279,cs),
(1118,236,o),
(1111,197,o),
(1096,162,c),
(1170,162,l),
(1187,197,o),
(1195,236,o),
(1195,279,cs),
(1195,389,o),
(1137,444,o),
(1020,444,cs),
(655,444,l),
(655,119,l),
(622,119,ls),
(557,119,o),
(525,154,o),
(525,223,cs),
(525,404,ls),
(525,596,o),
(453,760,o),
(287,760,cs),
(125,760,o),
(45,608,o),
(45,419,cs),
(45,96,l),
(111,96,l),
(119,215,l),
(146,157,o),
(188,97,o),
(244,35,c),
(306,90,l),
(181,225,o),
(124,329,o),
(124,419,cs),
(124,559,o),
(170,677,o),
(287,677,cs),
(393,677,o),
(446,583,o),
(446,404,cs),
(446,223,ls),
(446,98,o),
(507,36,o),
(622,36,cs),
(763,36,ls),
(813,36,o),
(848,27,o),
(868,9,c)
);
}
);
width = 1240;
}
);
}
{
glyphname = u183A_1847;
layers = (
{
layerId = UUID0;
shapes = (
{
closed = 1;
nodes = (
(668,-81,l),
(639,-29,o),
(615,19,o),
(596,61,c),
(672,106,o),
(704,198,o),
(704,303,cs),
(704,561,o),
(606,760,o),
(365,760,cs),
(170,760,o),
(45,624,o),
(45,408,cs),
(45,76,l),
(111,76,l),
(119,192,l),
(142,147,o),
(177,95,o),
(224,35,c),
(286,80,l),
(198,189,o),
(124,303,o),
(124,419,cs),
(124,576,o),
(214,677,o),
(365,677,cs),
(503,677,o),
(586,599,o),
(614,444,c),
(367,444,l),
(343,397,o),
(329,330,o),
(329,275,cs),
(329,135,o),
(390,40,o),
(517,40,c),
(539,-10,o),
(566,-64,o),
(597,-121,c)
);
},
{
closed = 1;
nodes = (
(443,123,o),
(408,174,o),
(408,275,cs),
(408,312,o),
(414,342,o),
(424,364,c),
(623,364,l),
(625,344,o),
(625,324,o),
(625,303,cs),
(625,183,o),
(579,123,o),
(512,123,cs)
);
}
);
width = 749;
}
);
}
{
glyphname = u183B.fin;
layers = (
{
layerId = UUID0;
shapes = (
{
closed = 1;
nodes = (
(341,-264,l),
(327,-238,o),
(320,-213,o),
(320,-187,cs),
(320,-121,o),
(348,-76,o),
(403,-7,cs),
(450,52,o),
(489,108,o),
(518,163,cs),
(556,234,o),
(575,304,o),
(575,388,cs),
(575,588,o),
(475,727,o),
(284,727,cs),
(104,727,o),
(-2,601,o),
(-2,407,cs),
(-2,292,o),
(41,170,o),
(127,42,c),
(198,85,l),
(126,185,o),
(87,270,o),
(79,364,c),
(238,364,l),
(238,444,l),
(78,444,l),
(90,579,o),
(167,644,o),
(284,644,cs),
(422,644,o),
(497,542,o),
(497,388,cs),
(497,306,o),
(479,244,o),
(438,174,cs),
(418,140,o),
(389,98,o),
(350,50,cs),
(281,-35,o),
(240,-98,o),
(240,-187,cs),
(240,-214,o),
(247,-240,o),
(259,-264,c)
);
}
);
width = 620;
}
);
}
{
glyphname = u183B.ini;
layers = (
{
layerId = UUID0;
shapes = (
{
closed = 1;
nodes = (
(245,85,l),
(175,181,o),
(135,269,o),
(125,364,c),
(285,364,l),
(285,444,l),
(125,444,l),
(133,576,o),
(188,644,o),
(273,644,cs),
(393,644,o),
(417,530,o),
(428,364,c),
(502,364,l),
(492,610,o),
(421,727,o),
(273,727,cs),
(133,727,o),
(45,601,o),
(45,407,cs),
(45,292,o),
(88,170,o),
(174,42,c)
);
}
);
width = 428;
}
);
}
{
glyphname = u183B_1820;
layers = (
{
layerId = UUID0;
shapes = (
{
closed = 1;
nodes = (
(797,-264,l),
(783,-238,o),
(776,-213,o),
(776,-187,cs),
(776,-125,o),
(795,-92,o),
(843,-31,cs),
(916,63,o),
(976,155,o),
(976,245,cs),
(976,373,o),
(898,444,o),
(745,444,cs),
(503,444,l),
(482,614,o),
(424,727,o),
(274,727,cs),
(135,727,o),
(45,606,o),
(45,417,cs),
(45,299,o),
(88,174,o),
(174,42,c),
(245,85,l),
(183,174,o),
(136,262,o),
(126,364,c),
(285,364,l),
(285,444,l),
(124,444,l),
(130,579,o),
(188,644,o),
(274,644,cs),
(394,644,o),
(418,533,o),
(430,363,cs),
(449,96,l),
(515,96,l),
(534,364,l),
(744,364,ls),
(851,364,o),
(898,325,o),
(898,243,cs),
(898,175,o),
(859,116,o),
(791,28,cs),
(736,-44,o),
(696,-108,o),
(696,-187,cs),
(696,-216,o),
(702,-242,o),
(715,-264,c)
);
}
);
width = 1021;
}
);
}
{
glyphname = u183B_1820.ini;
layers = (
{
layerId = UUID0;
shapes = (
{
closed = 1;
nodes = (
(245,85,l),
(183,174,o),
(136,262,o),
(126,364,c),
(285,364,l),
(285,444,l),
(124,444,l),
(130,579,o),
(188,644,o),
(274,644,cs),
(394,644,o),
(418,530,o),
(430,360,cs),
(449,96,l),
(515,96,l),
(534,364,l),
(744,364,l),
(744,444,l),
(503,444,l),
(482,614,o),
(424,727,o),
(274,727,cs),
(137,727,o),
(45,608,o),
(45,417,cs),
(45,299,o),
(88,174,o),
(174,42,c)
);
}
);
width = 714;
}
);
}
{
glyphname = u183B_1822;
layers = (
{
layerId = UUID0;
shapes = (
{
closed = 1;
nodes = (
(695,-31,l),
(611,101,o),
(558,232,o),
(533,364,c),
(840,364,ls),
(911,364,o),
(938,333,o),
(938,279,cs),
(938,236,o),
(931,197,o),
(916,162,c),
(990,162,l),
(1007,199,o),
(1015,238,o),
(1015,279,cs),
(1015,389,o),
(957,444,o),
(840,444,cs),
(523,444,l),
(501,628,o),
(443,760,o),
(288,760,cs),
(127,760,o),
(45,606,o),
(45,417,cs),
(45,299,o),
(88,174,o),
(174,42,c),
(245,85,l),
(183,174,o),
(136,262,o),
(126,364,c),
(285,364,l),
(285,444,l),
(124,444,l),
(129,572,o),
(177,677,o),
(287,677,cs),
(400,677,o),
(426,577,o),
(447,418,cs),
(469,253,o),
(528,85,o),
(622,-67,c)
);
}
);
width = 1060;
}
);
}
{
glyphname = u183B_1822.ini;
layers = (
{
layerId = UUID0;
shapes = (
{
closed = 1;
nodes = (
(695,-31,l),
(611,101,o),
(558,232,o),
(533,364,c),
(840,364,l),
(840,444,l),
(523,444,l),
(501,628,o),
(444,760,o),
(287,760,cs),
(126,760,o),
(45,606,o),
(45,417,cs),
(45,299,o),
(88,174,o),
(174,42,c),
(245,85,l),
(183,174,o),
(136,262,o),
(126,364,c),
(285,364,l),
(285,444,l),
(124,444,l),
(129,572,o),
(177,677,o),
(287,677,cs),
(400,677,o),
(428,573,o),
(447,418,cs),
(467,253,o),
(531,82,o),
(622,-67,c)
);
}
);
width = 810;
}
);
}
{
glyphname = u183B_1825.V1;
layers = (
{
layerId = UUID0;
shapes = (
{
closed = 1;
nodes = (
(628,40,o),
(704,148,o),
(704,303,cs),
(704,324,o),
(704,344,o),
(702,364,c),
(915,364,ls),
(985,364,o),
(1013,333,o),
(1013,279,cs),
(1013,236,o),
(1006,197,o),
(991,162,c),
(1065,162,l),
(1082,197,o),
(1090,236,o),
(1090,279,cs),
(1090,389,o),
(1032,444,o),
(915,444,cs),
(693,444,l),
(658,649,o),
(545,760,o),
(365,760,cs),
(171,760,o),
(45,617,o),
(45,408,cs),
(45,290,o),
(86,152,o),
(146,42,c),
(219,73,l),
(164,174,o),
(133,271,o),
(126,364,c),
(263,364,l),
(263,444,l),
(125,444,l),
(138,588,o),
(227,677,o),
(365,677,cs),
(503,677,o),
(586,599,o),
(614,444,c),
(367,444,l),
(343,397,o),
(329,330,o),
(329,275,cs),
(329,134,o),
(390,40,o),
(518,40,cs)
);
},
{
closed = 1;
nodes = (
(443,123,o),
(408,174,o),
(408,275,cs),
(408,312,o),
(414,342,o),
(424,364,c),
(623,364,l),
(625,344,o),
(625,324,o),
(625,303,cs),
(625,183,o),
(579,123,o),
(512,123,cs)
);
}
);
width = 1135;
}
);
}
{
glyphname = u183B_1847;
layers = (
{
layerId = UUID0;
shapes = (
{
closed = 1;
nodes = (
(656,-81,l),
(621,-15,o),
(598,31,o),
(586,55,c),
(657,90,o),
(704,176,o),
(704,303,cs),
(704,561,o),
(606,760,o),
(365,760,cs),
(170,760,o),
(45,616,o),
(45,408,cs),
(45,290,o),
(86,152,o),
(146,42,c),
(219,73,l),
(164,174,o),
(133,271,o),
(126,364,c),
(263,364,l),
(263,444,l),
(125,444,l),
(138,588,o),
(227,677,o),
(365,677,cs),
(503,677,o),
(586,599,o),
(614,444,c),
(367,444,l),
(343,397,o),
(329,330,o),
(329,275,cs),
(329,141,o),
(384,44,o),
(505,40,c),
(527,-10,o),
(554,-64,o),
(585,-121,c)
);
},
{
closed = 1;
nodes = (
(443,123,o),
(408,174,o),
(408,275,cs),
(408,312,o),
(414,342,o),
(424,364,c),
(623,364,l),
(625,344,o),
(625,324,o),
(625,303,cs),
(625,183,o),
(579,123,o),
(512,123,cs)
);
}
);
width = 749;
}
);
}
{
glyphname = u183C.fin;
layers = (
{
layerId = UUID0;
shapes = (
{
closed = 1;
nodes = (
(507,-171,o),
(564,-117,o),
(564,-32,cs),
(564,43,o),
(514,100,o),
(433,100,cs),
(394,100,o),
(361,85,o),
(342,62,c),
(339,63,l),
(336,82,o),
(335,103,o),
(335,125,cs),
(335,210,o),
(343,278,o),
(369,364,c),
(685,364,l),
(755,364,o),
(783,333,o),
(783,279,cs),
(783,236,o),
(776,197,o),
(761,162,c),
(835,162,l),
(852,197,o),
(860,236,o),
(860,279,cs),
(860,389,o),
(802,444,o),
(685,444,cs),
(0,444,l),
(0,364,l),
(294,364,l),
(275,296,o),
(266,223,o),
(266,143,c),
(235,143,ls),
(141,143,o),
(63,141,o),
(0,101,c),
(0,16,l),
(68,57,o),
(138,63,o),
(235,63,cs),
(267,63,l),
(274,-57,o),
(323,-171,o),
(423,-171,cs)
);
},
{
closed = 1;
nodes = (
(384,-99,o),
(358,-55,o),
(350,-8,c),
(360,19,o),
(390,37,o),
(423,37,cs),
(468,37,o),
(494,9,o),
(494,-32,cs),
(494,-71,o),
(470,-99,o),
(427,-99,cs)
);
}
);
width = 905;
}
);
}
{
glyphname = u183C.med;
layers = (
{
layerId = UUID0;
shapes = (
{
closed = 1;
nodes = (
(507,-171,o),
(564,-117,o),
(564,-32,cs),
(564,43,o),
(514,100,o),
(433,100,cs),
(394,100,o),
(361,85,o),
(342,62,c),
(339,63,l),
(336,82,o),
(335,103,o),
(335,125,cs),
(335,210,o),
(343,278,o),
(369,364,c),
(685,364,l),
(685,444,l),
(0,444,l),
(0,364,l),
(294,364,l),
(275,296,o),
(266,223,o),
(266,143,c),
(235,143,ls),
(141,143,o),
(63,141,o),
(0,101,c),
(0,16,l),
(68,57,o),
(138,63,o),
(235,63,cs),
(267,63,l),
(274,-57,o),
(323,-171,o),
(423,-171,cs)
);
},
{
closed = 1;
nodes = (
(384,-99,o),
(358,-55,o),
(350,-8,c),
(360,19,o),
(390,37,o),
(423,37,cs),
(468,37,o),
(494,9,o),
(494,-32,cs),
(494,-71,o),
(470,-99,o),
(427,-99,cs)
);
}
);
width = 655;
}
);
}
{
glyphname = u183D.fin;
layers = (
{
layerId = UUID0;
shapes = (
{
closed = 1;
nodes = (
(488,-119,o),
(517,-108,o),
(534,-85,c),
(534,6,l),
(513,-22,o),
(486,-36,o),
(452,-36,cs),
(369,-36,o),
(339,43,o),
(339,151,cs),
(339,217,o),
(349,288,o),
(369,364,c),
(608,364,ls),
(679,364,o),
(706,333,o),
(706,279,cs),
(706,236,o),
(699,197,o),
(684,162,c),
(758,162,l),
(775,198,o),
(783,237,o),
(783,279,cs),
(783,389,o),
(725,444,o),
(608,444,cs),
(0,444,l),
(0,364,l),
(294,364,l),
(275,296,o),
(266,223,o),
(266,143,c),
(235,143,ls),
(141,143,o),
(63,141,o),
(0,101,c),
(0,16,l),
(68,57,o),
(138,63,o),
(235,63,cs),
(270,63,l),
(286,-50,o),
(349,-119,o),
(449,-119,cs)
);
}
);
width = 828;
}
);
}
{
glyphname = u183D.med;
layers = (
{
layerId = UUID0;
shapes = (
{
closed = 1;
nodes = (
(488,-119,o),
(517,-108,o),
(534,-85,c),
(534,6,l),
(513,-22,o),
(486,-36,o),
(452,-36,cs),
(369,-36,o),
(339,43,o),
(339,151,cs),
(339,217,o),
(349,288,o),
(369,364,c),
(608,364,l),
(608,444,l),
(0,444,l),
(0,364,l),
(294,364,l),
(275,296,o),
(266,223,o),
(266,143,c),
(235,143,ls),
(141,143,o),
(63,141,o),
(0,101,c),
(0,16,l),
(68,57,o),
(138,63,o),
(235,63,cs),
(270,63,l),
(286,-50,o),
(349,-119,o),
(449,-119,cs)
);
}
);
width = 578;
}
);
}
{
glyphname = u183E.fin;
layers = (
{
layerId = UUID0;
shapes = (
{
closed = 1;
nodes = (
(409,-57,l),
(334,82,o),
(297,215,o),
(295,364,c),
(551,364,ls),
(622,364,o),
(649,333,o),
(649,279,cs),
(649,235,o),
(642,196,o),
(627,162,c),
(701,162,l),
(718,199,o),
(726,238,o),
(726,279,cs),
(726,389,o),
(667,444,o),
(551,444,cs),
(219,444,l),
(219,366,ls),
(219,220,o),
(247,93,o),
(303,-17,c),
(179,-72,l),
(104,70,o),
(75,200,o),
(75,364,cs),
(75,444,l),
(0,444,l),
(0,364,ls),
(0,166,o),
(45,-6,o),
(140,-182,c)
);
}
);
width = 771;
}
);
}
{
glyphname = u183E.med;
layers = (
{
layerId = UUID0;
shapes = (
{
closed = 1;
nodes = (
(409,-57,l),
(334,82,o),
(297,215,o),
(295,364,c),
(551,364,l),
(551,444,l),
(219,444,l),
(219,366,ls),
(219,220,o),
(247,93,o),
(303,-17,c),
(179,-72,l),
(104,70,o),
(75,200,o),
(75,364,cs),
(75,444,l),
(0,444,l),
(0,364,ls),
(0,166,o),
(45,-6,o),
(140,-182,c)
);
}
);
width = 521;
}
);
}
{
glyphname = u183F.fin;
layers = (
{
layerId = UUID0;
shapes = (
{
closed = 1;
nodes = (
(408,-117,o),
(462,-83,o),
(499,-14,c),
(433,27,l),
(416,-12,o),
(379,-35,o),
(336,-35,cs),
(171,-35,o),
(78,178,o),
(78,372,cs),
(78,576,o),
(180,715,o),
(333,715,cs),
(412,715,o),
(456,680,o),
(481,592,c),
(479,590,l),
(466,599,o),
(451,603,o),
(434,603,cs),
(395,603,o),
(352,593,o),
(305,573,c),
(305,500,l),
(346,517,o),
(382,525,o),
(413,525,cs),
(473,525,o),
(491,483,o),
(497,404,cs),
(521,74,l),
(587,74,l),
(597,219,ls),
(605,333,o),
(631,364,o),
(740,364,cs),
(817,364,ls),
(888,364,o),
(915,333,o),
(915,279,cs),
(915,236,o),
(908,197,o),
(893,162,c),
(967,162,l),
(984,198,o),
(992,237,o),
(992,279,cs),
(992,389,o),
(934,444,o),
(817,444,cs),
(739,444,ls),
(655,444,o),
(602,416,o),
(580,361,c),
(576,361,l),
(573,444,ls),
(565,676,o),
(487,792,o),
(333,792,cs),
(137,792,o),
(-1,608,o),
(-1,374,cs),
(-1,123,o),
(119,-117,o),
(336,-117,cs)
);
}
);
width = 1037;
}
);
}
{
glyphname = u1840.med;
layers = (
{
layerId = UUID0;
shapes = (
{
closed = 1;
nodes = (
(693,-57,l),
(619,82,o),
(582,215,o),
(579,364,c),
(835,364,l),
(835,444,l),
(503,444,l),
(503,366,ls),
(503,221,o),
(531,94,o),
(587,-17,c),
(463,-72,l),
(388,69,o),
(359,199,o),
(359,364,cs),
(359,444,l),
(86,444,l),
(88,518,o),
(109,581,o),
(148,653,c),
(148,719,l),
(28,719,ls),
(-43,719,o),
(-103,722,o),
(-152,755,c),
(-152,677,l),
(-112,642,o),
(-54,639,o),
(28,639,cs),
(62,639,l),
(34,580,o),
(19,515,o),
(16,444,c),
(0,444,l),
(0,364,l),
(19,96,l),
(85,96,l),
(104,364,l),
(284,364,l),
(284,166,o),
(329,-6,o),
(424,-182,c)
);
}
);
width = 805;
}
);
}
{
glyphname = u1842.fin;
layers = (
{
layerId = UUID0;
shapes = (
{
closed = 1;
nodes = (
(324,40,o),
(395,123,o),
(395,249,cs),
(395,293,o),
(388,331,o),
(373,364,c),
(504,364,l),
(491,331,o),
(484,293,o),
(484,249,cs),
(484,116,o),
(553,40,o),
(681,40,cs),
(807,40,o),
(879,122,o),
(879,249,cs),
(879,294,o),
(872,333,o),
(857,364,c),
(987,364,l),
(987,444,l),
(0,444,l),
(0,364,l),
(20,364,l),
(7,333,o),
(0,294,o),
(0,249,cs),
(0,116,o),
(69,40,o),
(197,40,cs)
);
},
{
closed = 1;
nodes = (
(118,123,o),
(79,166,o),
(79,251,cs),
(79,295,o),
(86,333,o),
(99,364,c),
(296,364,l),
(309,333,o),
(316,295,o),
(316,251,cs),
(316,166,o),
(271,123,o),
(197,123,cs)
);
},
{
closed = 1;
nodes = (
(603,123,o),
(563,166,o),
(563,251,cs),
(563,295,o),
(570,333,o),
(583,364,c),
(780,364,l),
(793,333,o),
(800,295,o),
(800,251,cs),
(800,166,o),
(754,123,o),
(681,123,cs)
);
}
);
width = 1032;
}
);
}
{
glyphname = u1843.fin;
layers = (
{
layerId = UUID0;
shapes = (
{
closed = 1;
nodes = (
(170,-264,l),
(156,-238,o),
(149,-213,o),
(149,-187,cs),
(149,-125,o),
(169,-92,o),
(216,-31,cs),
(290,64,o),
(349,155,o),
(349,245,cs),
(349,373,o),
(271,444,o),
(118,444,cs),
(65,444,l),
(88,632,l),
(0,632,l),
(22,444,l),
(0,444,l),
(0,364,l),
(117,364,ls),
(223,364,o),
(271,325,o),
(271,245,cs),
(271,177,o),
(229,113,o),
(164,28,cs),
(109,-44,o),
(69,-108,o),
(69,-187,cs),
(69,-216,o),
(75,-242,o),
(88,-264,c)
);
}
);
width = 399;
}
);
}
{
glyphname = u1843.med;
layers = (
{
layerId = UUID0;
shapes = (
{
closed = 1;
nodes = (
(161,364,l),
(161,444,l),
(65,444,l),
(88,632,l),
(0,632,l),
(22,444,l),
(0,444,l),
(0,364,l)
);
}
);
width = 120;
}
);
}
{
glyphname = u1844.ini;
layers = (
{
layerId = UUID0;
shapes = (
{
closed = 1;
nodes = (
(854,92,l),
(833,110,o),
(798,119,o),
(749,119,cs),
(708,119,ls),
(617,119,o),
(571,167,o),
(571,263,cs),
(571,364,l),
(1006,364,l),
(1006,444,l),
(444,444,ls),
(360,444,o),
(307,416,o),
(285,361,c),
(281,361,l),
(278,445,ls),
(273,575,o),
(248,653,o),
(139,653,cs),
(100,653,o),
(57,643,o),
(10,623,c),
(10,550,l),
(52,567,o),
(88,575,o),
(118,575,cs),
(179,575,o),
(194,520,o),
(200,437,cs),
(226,74,l),
(292,74,l),
(302,219,ls),
(309,326,o),
(335,364,o),
(445,364,cs),
(492,364,l),
(492,263,ls),
(492,109,o),
(569,36,o),
(708,36,cs),
(749,36,ls),
(799,36,o),
(834,27,o),
(854,9,c)
);
}
);
width = 976;
}
);
}
